<?xml version="1.0" encoding="UTF-8"?>
<svg version="1.1" xmlns="http://www.w3.org/2000/svg" width="512" height="512">
<path d="M0 0 C0.88988113 -0.00511093 1.77976227 -0.01022186 2.6966095 -0.01548767 C5.63773324 -0.02938583 8.57862272 -0.02842675 11.51977539 -0.02612305 C13.56474393 -0.03000979 15.60971166 -0.03434442 17.65467834 -0.03910828 C21.94103614 -0.04657093 26.22731157 -0.04627882 30.51367188 -0.04101562 C36.00610955 -0.03522031 41.49821008 -0.05215339 46.990592 -0.0753603 C51.21393301 -0.09009297 55.43719273 -0.09096998 59.66055489 -0.08785057 C61.68554922 -0.08836399 63.71054808 -0.09360569 65.7355175 -0.10366249 C68.56739073 -0.11600069 71.39860603 -0.10925091 74.23046875 -0.09765625 C75.06647614 -0.10529999 75.90248352 -0.11294373 76.76382446 -0.12081909 C81.35215619 -0.0793018 84.52403552 0.18812027 88.17993164 3.2746582 C89.24220276 5.14622498 89.24220276 5.14622498 89.84619141 7.26855469 C90.07597687 8.06760223 90.30576233 8.86664978 90.54251099 9.68991089 C91.6618189 14.228716 92.62547222 18.78419656 93.51977539 23.37231445 C93.94719241 25.4941232 94.37493666 27.61586605 94.80297852 29.73754883 C95.46326759 33.04341744 96.11994131 36.3499186 96.77050781 39.65771484 C97.40608787 42.87717507 98.05580891 46.09353684 98.70727539 49.30981445 C98.99029762 50.7804409 98.99029762 50.7804409 99.27903748 52.28077698 C101.35165103 62.42844699 104.62721277 69.20680333 113.17993164 75.2746582 C117.00964116 77.61734385 120.94470182 79.71016009 124.92993164 81.7746582 C127.06483042 82.90338454 129.19895448 84.03357749 131.33227539 85.1652832 C132.34402832 85.69959961 133.35578125 86.23391602 134.39819336 86.78442383 C138.71323771 89.09608178 142.91536135 91.57228691 147.10571289 94.1027832 C153.9445796 97.9665497 162.57573567 97.45274905 169.97796631 95.55871582 C177.62480664 93.21870423 185.11983825 90.42426013 192.61743164 87.6496582 C197.06591607 86.00755118 201.52365266 84.39501528 205.98852539 82.7980957 C206.99386826 82.41591888 207.99921112 82.03374207 209.03501892 81.63998413 C215.26079623 79.41323929 218.96437152 78.78886911 225.17993164 81.2746582 C230.90633939 86.0747164 234.27176067 93.19781045 237.92758179 99.59848022 C239.76964322 102.82241768 241.6361854 106.03215605 243.50024414 109.2434082 C244.07481606 110.23512276 244.07481606 110.23512276 244.66099548 111.24687195 C248.80090216 118.37672023 253.07375616 125.42417007 257.36743164 132.4621582 C257.71883209 133.03839935 258.07023254 133.6146405 258.43228149 134.20834351 C259.44564839 135.86987669 260.45927122 137.53125377 261.47290039 139.19262695 C262.0985791 140.2192041 262.72425781 141.24578125 263.36889648 142.3034668 C264.56510485 144.26597094 265.76331009 146.22725948 266.96362305 148.18725586 C267.5055127 149.07848145 268.04740234 149.96970703 268.60571289 150.88793945 C269.31787964 152.05450073 269.31787964 152.05450073 270.04443359 153.24462891 C271.9147515 156.58836002 272.36119177 159.38042189 272.42993164 163.1496582 C272.45571289 163.99270508 272.48149414 164.83575195 272.50805664 165.7043457 C271.74517289 171.68026842 267.45851773 175.18510963 263.17993164 179.0246582 C262.6054126 179.54833984 262.03089355 180.07202148 261.43896484 180.61157227 C256.98687629 184.63582327 252.36512958 188.42242885 247.68383789 192.17700195 C244.55057613 194.80190299 241.71494645 197.6439177 238.87915039 200.58325195 C237.17993164 202.2746582 237.17993164 202.2746582 234.61743164 204.1496582 C227.79653181 210.09608369 223.75682516 217.51313286 222.98661804 226.54040527 C222.90133247 228.99296932 222.87650674 231.43780643 222.87915039 233.8918457 C222.87486526 234.78904327 222.87058014 235.68624084 222.86616516 236.61062622 C222.86045325 238.49814006 222.85989828 240.38567591 222.86425781 242.27319336 C222.86741519 245.13474729 222.84392805 247.99526312 222.81860352 250.85668945 C222.81632968 252.70174025 222.81562742 254.54679379 222.81665039 256.3918457 C222.80283577 257.65482986 222.80283577 257.65482986 222.78874207 258.94332886 C222.88045618 270.93318807 227.02958538 278.6574345 235.17993164 287.2746582 C237.07441121 289.0906682 239.00825557 290.79843093 241.02758789 292.47387695 C243.59292037 294.62018961 246.03513023 296.88057562 248.49243164 299.1496582 C252.23402475 302.56905857 256.04817625 305.84138687 259.99243164 309.0246582 C271.61400839 318.43497643 271.61400839 318.43497643 272.48852539 324.3684082 C272.75905612 329.41831517 272.17764711 332.87296159 269.64086914 337.27856445 C269.09390381 338.23843262 268.54693848 339.19830078 267.98339844 340.18725586 C267.09068237 341.71552002 267.09068237 341.71552002 266.17993164 343.2746582 C265.58156494 344.31541504 264.98319824 345.35617187 264.36669922 346.4284668 C262.38216544 349.86539174 260.37871303 353.29085288 258.36743164 356.7121582 C258.00531586 357.32884369 257.64320007 357.94552917 257.27011108 358.5809021 C251.92739624 367.67397785 246.54181188 376.74134341 241.0897522 385.76931763 C240.36768421 386.96550819 239.64692402 388.16248934 238.92758179 389.36032104 C227.17218569 408.91531929 227.17218569 408.91531929 220.6796875 411.12597656 C215.39400982 411.35053029 211.09536288 409.47672506 206.18383789 407.65356445 C203.99326184 406.87506534 201.80250048 406.09708752 199.61157227 405.31958008 C196.18593543 404.08582301 192.76324831 402.84478106 189.34423828 401.59277344 C167.69343171 393.12559921 167.69343171 393.12559921 145.55493164 397.0246582 C143.78507749 398.01464511 142.01652383 399.00774774 140.27172852 400.04125977 C137.8389119 401.47573567 135.37850694 402.85574907 132.91430664 404.2355957 C112.5214799 414.30911578 112.5214799 414.30911578 100.90087891 432.48251343 C99.69643607 437.14718022 98.73711415 441.8499454 97.80493164 446.57543945 C97.37290844 448.70765533 96.94060873 450.83981519 96.50805664 452.97192383 C95.83964014 456.29354962 95.17425562 459.61572351 94.51391602 462.93896484 C93.8692058 466.17368898 93.21283053 469.40587587 92.55493164 472.63793945 C92.26416748 474.12708611 92.26416748 474.12708611 91.9675293 475.64631653 C89.75569529 486.4364402 89.75569529 486.4364402 85.63108826 489.38000488 C81.93326155 490.7296832 78.24667125 490.56080672 74.35986328 490.54931641 C73.02504158 490.5569828 73.02504158 490.5569828 71.66325378 490.56480408 C68.72213004 490.57870224 65.78124057 490.57774316 62.84008789 490.57543945 C60.79511935 490.5793262 58.75015162 490.58366082 56.70518494 490.58842468 C52.41882714 490.59588733 48.13255171 490.59559523 43.84619141 490.59033203 C38.35375373 490.58453671 32.8616532 490.6014698 27.36927128 490.6246767 C23.14593027 490.63940937 18.92267055 490.64028638 14.6993084 490.63716698 C12.67431406 490.6376804 10.6493152 490.6429221 8.62434578 490.6529789 C5.79247255 490.66531709 2.96125725 490.65856731 0.12939453 490.64697266 C-0.70661285 490.65461639 -1.54262024 490.66226013 -2.40396118 490.6701355 C-6.99229291 490.6286182 -10.16417224 490.36119613 -13.82006836 487.2746582 C-14.88233948 485.40309143 -14.88233948 485.40309143 -15.48632812 483.28076172 C-15.71611359 482.48171417 -15.94589905 481.68266663 -16.18264771 480.85940552 C-17.30195562 476.32060041 -18.26560894 471.76511985 -19.15991211 467.17700195 C-19.58732913 465.05519321 -20.01507338 462.93345036 -20.44311523 460.81176758 C-21.10340431 457.50589897 -21.76007803 454.1993978 -22.41064453 450.89160156 C-23.04622459 447.67214134 -23.69594563 444.45577957 -24.34741211 441.23950195 C-24.5360936 440.25908432 -24.72477509 439.27866669 -24.91917419 438.26853943 C-26.99178775 428.12086942 -30.26734949 421.34251307 -38.82006836 415.2746582 C-42.64977788 412.93197256 -46.58483854 410.83915632 -50.57006836 408.7746582 C-52.70496713 407.64593186 -54.8390912 406.51573892 -56.97241211 405.3840332 C-58.4900415 404.58255859 -58.4900415 404.58255859 -60.03833008 403.76489258 C-64.35337443 401.45323462 -68.55549807 398.9770295 -72.74584961 396.4465332 C-79.58471631 392.5827667 -88.21587239 393.09656736 -95.61810303 394.99060059 C-103.26494336 397.33061218 -110.75997497 400.12505627 -118.25756836 402.8996582 C-122.70605279 404.54176523 -127.16378937 406.15430113 -131.62866211 407.7512207 C-132.63400497 408.13339752 -133.63934784 408.51557434 -134.67515564 408.90933228 C-140.90093295 411.13607712 -144.60450824 411.76044729 -150.82006836 409.2746582 C-156.5464761 404.47460001 -159.91189739 397.35150596 -163.56771851 390.95083618 C-165.40977994 387.72689873 -167.27632211 384.51716036 -169.14038086 381.3059082 C-169.5234288 380.64476517 -169.90647675 379.98362213 -170.3011322 379.30244446 C-174.44103887 372.17259618 -178.71389288 365.12514634 -183.00756836 358.0871582 C-183.35896881 357.51091705 -183.71036926 356.9346759 -184.07241821 356.3409729 C-185.08578511 354.67943972 -186.09940793 353.01806264 -187.11303711 351.35668945 C-187.73871582 350.3301123 -188.36439453 349.30353516 -189.0090332 348.24584961 C-190.20524157 346.28334546 -191.40344681 344.32205692 -192.60375977 342.36206055 C-193.14564941 341.47083496 -193.68753906 340.57960938 -194.24584961 339.66137695 C-194.72062744 338.88366943 -195.19540527 338.10596191 -195.68457031 337.3046875 C-197.55488822 333.96095639 -198.00132849 331.16889451 -198.07006836 327.3996582 C-198.09584961 326.55661133 -198.12163086 325.71356445 -198.14819336 324.8449707 C-197.38530961 318.86904798 -193.09865445 315.36420677 -188.82006836 311.5246582 C-188.24554932 311.00097656 -187.67103027 310.47729492 -187.07910156 309.93774414 C-182.62701301 305.91349314 -178.0052663 302.12688755 -173.32397461 298.37231445 C-170.19071285 295.74741342 -167.35508317 292.9053987 -164.51928711 289.96606445 C-162.82006836 288.2746582 -162.82006836 288.2746582 -160.25756836 286.3996582 C-153.43666853 280.45323271 -149.39696188 273.03618355 -148.62675476 264.00891113 C-148.54146919 261.55634709 -148.51664346 259.11150998 -148.51928711 256.6574707 C-148.51285942 255.31167435 -148.51285942 255.31167435 -148.50630188 253.93869019 C-148.50058997 252.05117634 -148.500035 250.1636405 -148.50439453 248.27612305 C-148.50755191 245.41456911 -148.48406477 242.55405329 -148.45874023 239.69262695 C-148.4564664 237.84757616 -148.45576414 236.00252262 -148.45678711 234.1574707 C-148.44757736 233.31548126 -148.43836761 232.47349182 -148.42887878 231.60598755 C-148.5205929 219.61612833 -152.6697221 211.89188191 -160.82006836 203.2746582 C-162.71454793 201.4586482 -164.64839229 199.75088548 -166.66772461 198.07543945 C-169.23305709 195.9291268 -171.67526695 193.66874078 -174.13256836 191.3996582 C-177.87416147 187.98025783 -181.68831297 184.70792954 -185.63256836 181.5246582 C-197.25414511 172.11433997 -197.25414511 172.11433997 -198.12866211 166.1809082 C-198.39919284 161.13100124 -197.81778383 157.67635481 -195.28100586 153.27075195 C-194.46055786 151.83094971 -194.46055786 151.83094971 -193.62353516 150.36206055 C-193.02839111 149.34321777 -192.43324707 148.324375 -191.82006836 147.2746582 C-191.22170166 146.23390137 -190.62333496 145.19314453 -190.00683594 144.12084961 C-188.02230216 140.68392467 -186.01884975 137.25846353 -184.00756836 133.8371582 C-183.46439468 132.91212997 -183.46439468 132.91212997 -182.9102478 131.96841431 C-177.56753296 122.87533856 -172.1819486 113.807973 -166.72988892 104.77999878 C-166.00782092 103.58380822 -165.28706074 102.38682707 -164.56771851 101.18899536 C-152.81232241 81.63399712 -152.81232241 81.63399712 -146.31982422 79.42333984 C-141.03414654 79.19878611 -136.7354996 81.07259134 -131.82397461 82.89575195 C-129.63339856 83.67425106 -127.4426372 84.45222889 -125.25170898 85.22973633 C-121.82607215 86.4634934 -118.40338503 87.70453534 -114.984375 88.95654297 C-93.33356843 97.42371719 -93.33356843 97.42371719 -71.19506836 93.5246582 C-69.42521421 92.53467129 -67.65666055 91.54156866 -65.91186523 90.50805664 C-63.47904862 89.07358074 -61.01864366 87.69356734 -58.55444336 86.3137207 C-38.16161661 76.24020063 -38.16161661 76.24020063 -26.54101562 58.06680298 C-25.33657279 53.40213619 -24.37725086 48.69937101 -23.44506836 43.97387695 C-23.01304516 41.84166108 -22.58074545 39.70950122 -22.14819336 37.57739258 C-21.47977686 34.25576678 -20.81439233 30.9335929 -20.15405273 27.61035156 C-19.50934252 24.37562743 -18.85296725 21.14344054 -18.19506836 17.91137695 C-18.00122559 16.91861252 -17.80738281 15.92584808 -17.60766602 14.90299988 C-15.395832 4.11287621 -15.395832 4.11287621 -11.27122498 1.16931152 C-7.57339827 -0.18036679 -3.88680797 -0.01149031 0 0 Z " fill="#688491" transform="translate(218.820068359375,10.725341796875)"/>
<path d="M0 0 C1.8883205 1.77837774 3.75686208 3.57524195 5.625 5.375 C6.33011719 6.01695312 7.03523437 6.65890625 7.76171875 7.3203125 C20.97849949 19.70601778 30.82943709 36.75591928 37.625 53.375 C38.04523438 54.39464844 38.46546875 55.41429687 38.8984375 56.46484375 C46.17931753 75.37306855 48.11244338 95.23472586 47.625 115.375 C47.59664063 116.55707031 47.56828125 117.73914063 47.5390625 118.95703125 C45.95376764 154.39969496 29.92389645 186.1528932 5.625 211.375 C4.98304688 212.08011719 4.34109375 212.78523437 3.6796875 213.51171875 C-19.34366686 238.07993023 -55.52799788 252.02085364 -88.625 253.375 C-131.87057987 254.40572699 -167.99546625 240.19473236 -199.375 210.375 C-200.00921875 209.80523437 -200.6434375 209.23546875 -201.296875 208.6484375 C-224.87186824 186.75737235 -238.90489189 150.78272785 -240.28515625 119.0703125 C-240.31480469 117.85085938 -240.34445313 116.63140625 -240.375 115.375 C-240.41496094 114.11429688 -240.45492187 112.85359375 -240.49609375 111.5546875 C-241.18529998 70.7698954 -226.66389546 34.73870152 -198.375 5.375 C-197.73304688 4.66988281 -197.09109375 3.96476562 -196.4296875 3.23828125 C-146.01765838 -50.5563732 -52.65047415 -48.48854749 0 0 Z " fill="#D1D9DD" transform="translate(352.375,147.625)"/>
<path d="M0 0 C1.05657303 0.00323273 1.05657303 0.00323273 2.13449097 0.00653076 C30.03385162 0.14352329 52.933778 8.62401165 73.33203125 28.390625 C94.27240843 50.69398531 99.87418114 78.04807951 99.28076172 107.65039062 C99.09324069 113.00308508 98.36194387 118.09499934 97.1875 123.3125 C96.94257813 124.48425781 96.69765625 125.65601563 96.4453125 126.86328125 C93.07397516 141.22875851 86.49404067 153.87061539 77.1875 165.3125 C76.52363281 166.15167969 75.85976563 166.99085938 75.17578125 167.85546875 C60.71437223 185.09688986 38.30273976 195.86760647 16.1875 198.3125 C10.91325453 198.59998864 5.65471543 198.65412109 0.375 198.625 C-0.68157303 198.62176727 -0.68157303 198.62176727 -1.75949097 198.61846924 C-29.65885162 198.48147671 -52.558778 190.00098835 -72.95703125 170.234375 C-90.81885803 151.20994411 -98.78226933 126.94845658 -98.40942383 101.18603516 C-98.37481934 98.54873105 -98.38893597 95.91474904 -98.40820312 93.27734375 C-98.38582075 67.69011561 -88.49761029 44.46377616 -70.578125 26.01171875 C-61.10274994 17.04727078 -49.9344289 10.09697428 -37.8125 5.3125 C-37.07902344 5.01730469 -36.34554687 4.72210938 -35.58984375 4.41796875 C-24.18016193 0.21440176 -12.021856 -0.06630841 0 0 Z " fill="#546A74" transform="translate(255.8125,156.6875)"/>
<path d="M0 0 C4.27596118 1.64724338 7.10075777 4.86617853 10.234375 8.07421875 C10.83123108 8.6762764 11.42808716 9.27833405 12.04302979 9.89863586 C13.95017565 11.82355915 15.85052066 13.75501347 17.75 15.6875 C20.24138019 18.21563092 22.73594226 20.74055712 25.234375 23.26171875 C25.83668945 23.8696225 26.43900391 24.47752625 27.05957031 25.10385132 C30.60433104 28.66071545 34.23124463 32.04075392 38.06347656 35.28833008 C43.38065413 39.98811978 48.24292037 45.21053759 53.22265625 50.26171875 C57.0858985 54.15870111 60.93058382 58.01590026 65.09375 61.59375 C65.72007324 62.15634521 66.34639648 62.71894043 66.99169922 63.29858398 C69.0145148 65.07778843 69.0145148 65.07778843 71.48095703 66.65649414 C74.98983904 69.34187704 77.54617708 71.7065666 78.43395996 76.1930542 C79.04002876 82.76923976 78.67952007 89.35292126 78.375 95.9375 C78.2690873 98.91248621 78.17661748 101.88701962 78.10098267 104.8629303 C78.05087583 106.70573188 77.98216111 108.54816367 77.89096069 110.38938904 C77.5218235 121.12097038 80.62239459 128.43873146 87.61328125 136.4765625 C90.22952279 139.24267057 92.91933453 141.76958152 95.84765625 144.19921875 C98.41298873 146.34553141 100.85519859 148.60591742 103.3125 150.875 C107.05409311 154.29440037 110.86824461 157.56672866 114.8125 160.75 C126.43407675 170.16031823 126.43407675 170.16031823 127.30859375 176.09375 C127.57912448 181.14365696 126.99771547 184.59830339 124.4609375 189.00390625 C123.91397217 189.96377441 123.36700684 190.92364258 122.8034668 191.91259766 C122.20832275 192.93144043 121.61317871 193.9502832 121 195 C120.4016333 196.04075684 119.8032666 197.08151367 119.18676758 198.15380859 C117.2022338 201.59073353 115.19878139 205.01619467 113.1875 208.4375 C112.82538422 209.05418549 112.46326843 209.67087097 112.09017944 210.3062439 C106.7474646 219.39931964 101.36188024 228.46668521 95.90982056 237.49465942 C95.18775256 238.69084999 94.46699238 239.88783113 93.74765015 241.08566284 C81.99225405 260.64066108 81.99225405 260.64066108 75.49975586 262.85131836 C70.21407818 263.07587209 65.91543124 261.20206686 61.00390625 259.37890625 C58.8133302 258.60040714 56.62256884 257.82242932 54.43164062 257.04492188 C51.00600379 255.8111648 47.58331667 254.57012286 44.16430664 253.31811523 C22.51350007 244.85094101 22.51350007 244.85094101 0.375 248.75 C-1.39485415 249.73998691 -3.16340781 250.73308954 -4.90820312 251.76660156 C-7.34101974 253.20107747 -9.8014247 254.58109086 -12.265625 255.9609375 C-32.65845175 266.03445757 -32.65845175 266.03445757 -44.27905273 284.20785522 C-45.48349557 288.87252201 -46.4428175 293.57528719 -47.375 298.30078125 C-47.8070232 300.43299712 -48.23932291 302.56515698 -48.671875 304.69726562 C-49.3402915 308.01889142 -50.00567603 311.34106531 -50.66601562 314.66430664 C-51.31072584 317.89903078 -51.96710111 321.13121767 -52.625 324.36328125 C-52.91576416 325.8524279 -52.91576416 325.8524279 -53.21240234 327.37165833 C-55.44136751 338.24535394 -55.44136751 338.24535394 -59.83984375 341.26171875 C-64.66015586 342.90916719 -69.03381178 343.18156894 -74 342 C-78.29029995 338.87212425 -81.61978735 335.05673413 -85 331 C-90.206156 324.85190292 -95.7596487 319.14966645 -101.5 313.5 C-110.59737328 304.5463451 -110.59737328 304.5463451 -114.46875 300.03125 C-118.71188046 295.08832335 -123.36183726 290.56893643 -128 286 C-133.26031206 280.81820006 -138.39250747 275.62939118 -143.19921875 270.0234375 C-146.77825901 266.00186948 -150.66457869 262.27483014 -154.5 258.5 C-163.59737328 249.5463451 -163.59737328 249.5463451 -167.46875 245.03125 C-171.71188046 240.08832335 -176.36183726 235.56893643 -181 231 C-188.10180637 224.00419074 -195.06996008 217.03653171 -201 209 C-198.2402389 210.31409932 -195.76491951 211.77681719 -193.26953125 213.5390625 C-183.24799388 220.49720326 -173.27152297 226.32066992 -162 231 C-160.85402344 231.48082031 -159.70804688 231.96164062 -158.52734375 232.45703125 C-140.55874095 239.41329736 -122.11008421 240.91270868 -103 241 C-101.87948242 241.01401855 -101.87948242 241.01401855 -100.73632812 241.02832031 C-80.80604668 241.13526329 -60.77343647 234.59087069 -43 226 C-41.97003906 225.50757813 -40.94007813 225.01515625 -39.87890625 224.5078125 C-27.13825224 217.9618161 -16.26116053 208.87598183 -6 199 C-5.36835938 198.43152344 -4.73671875 197.86304688 -4.0859375 197.27734375 C19.56947162 175.35965426 33.53270786 139.33678935 34.91015625 107.5546875 C34.93980469 106.38164062 34.96945312 105.20859375 35 104 C35.03996094 102.90945313 35.07992187 101.81890625 35.12109375 100.6953125 C35.79739887 66.88005647 26.46866549 36.46094117 6.33203125 9.19140625 C4.12824777 6.17550826 2.04828453 3.12186815 0 0 Z " fill="#546A74" transform="translate(364,159)"/>
<path d="M0 0 C12.75527727 10.58711079 21.92170599 24.81213743 23.59619141 41.59301758 C23.71220846 44.46505686 23.72981064 47.31351929 23.6875 50.1875 C23.67662354 51.1973999 23.66574707 52.2072998 23.65454102 53.24780273 C23.29404719 70.10667062 17.41523033 85.05024072 5.3984375 96.98828125 C-9.43320285 110.75914732 -26.71094577 114.50847978 -46.40380859 113.88183594 C-62.06412306 112.97777673 -75.66105423 104.16226116 -86.3125 93.1875 C-96.83068163 81.06952501 -102.2161074 64.51069729 -101.890625 48.5078125 C-100.59667343 30.93993155 -94.43368046 15.14008063 -81.25292969 3.07861328 C-58.0647089 -16.60172008 -24.6632821 -18.12345166 0 0 Z " fill="#A9FEEB" transform="translate(294.6875,205.25)"/>
<path d="M0 0 C14.85 0 29.7 0 45 0 C45 42.34138594 32.63559679 78.23843069 3 109 C2.35804688 109.70511719 1.71609375 110.41023438 1.0546875 111.13671875 C-21.96866686 135.70493023 -58.15299788 149.64585364 -91.25 151 C-114.36397797 151.55090488 -138.36452875 149.14085739 -159 138 C-153.88855177 126.99165641 -148.60099948 116.12955423 -142.84765625 105.44140625 C-141.52416351 102.97629609 -140.22772116 100.51329305 -139 98 C-138.35675781 98.26554687 -137.71351563 98.53109375 -137.05078125 98.8046875 C-136.14714844 99.15789062 -135.24351562 99.51109375 -134.3125 99.875 C-133.44238281 100.22304688 -132.57226562 100.57109375 -131.67578125 100.9296875 C-121.03179215 104.02899995 -110.19771754 104.37322856 -99.1875 104.3125 C-98.48311798 104.31034485 -97.77873596 104.3081897 -97.05300903 104.30596924 C-70.39239211 104.17505923 -47.85861715 96.61560386 -28 78 C-10.390023 59.80567987 -2.55914207 37.35493277 -0.875 12.4375 C-0.58625 8.333125 -0.2975 4.22875 0 0 Z " fill="#91A5AF" transform="translate(355,250)"/>
<path d="M0 0 C1.8883205 1.77837774 3.75686208 3.57524195 5.625 5.375 C6.33011719 6.01695312 7.03523437 6.65890625 7.76171875 7.3203125 C20.97849949 19.70601778 30.82943709 36.75591928 37.625 53.375 C38.04523438 54.39464844 38.46546875 55.41429687 38.8984375 56.46484375 C41.53647982 63.31575971 43.39319581 70.13250385 44.875 77.3125 C45.03814697 78.08585693 45.20129395 78.85921387 45.36938477 79.65600586 C46.84961576 87.30767357 47.0945427 94.41814049 47.625 102.375 C32.775 102.375 17.925 102.375 2.625 102.375 C1.965 97.425 1.305 92.475 0.625 87.375 C-4.38460628 63.15825699 -16.82777048 40.73659081 -37.375 26.375 C-55.78150184 14.3102744 -74.23820922 9.94720072 -96.1875 10.0625 C-96.89055267 10.06399048 -97.59360535 10.06548096 -98.31796265 10.0670166 C-112.023613 10.11925905 -124.37667303 11.23285987 -137.140625 16.703125 C-139.77079024 17.49401385 -140.82248656 17.31745703 -143.375 16.375 C-144.75610352 14.93896484 -144.75610352 14.93896484 -146.00390625 13.0859375 C-146.47675049 12.39846436 -146.94959473 11.71099121 -147.43676758 11.00268555 C-147.93200928 10.25929932 -148.42725098 9.51591309 -148.9375 8.75 C-149.99299183 7.20059529 -151.05032546 5.65244387 -152.109375 4.10546875 C-152.9147168 2.92476807 -152.9147168 2.92476807 -153.73632812 1.72021484 C-155.32027301 -0.54667648 -156.96008047 -2.75325993 -158.640625 -4.94921875 C-159.15294678 -5.62194824 -159.66526855 -6.29467773 -160.19311523 -6.98779297 C-161.17291671 -8.26612896 -162.16175011 -9.53760365 -163.16040039 -10.80126953 C-166.31605411 -14.95891148 -166.31605411 -14.95891148 -166.5703125 -17.83203125 C-164.6875678 -20.65614831 -161.95398503 -21.69017534 -158.9375 -23 C-158.27226318 -23.29745117 -157.60702637 -23.59490234 -156.92163086 -23.90136719 C-105.03144005 -46.50984944 -42.19528786 -38.85982515 0 0 Z " fill="#A9FEEB" transform="translate(352.375,147.625)"/>
<path d="" fill="#58707B" transform="translate(0,0)"/>
<path d="" fill="#688491" transform="translate(0,0)"/>
<path d="" fill="#5D7782" transform="translate(0,0)"/>
<path d="" fill="#688491" transform="translate(0,0)"/>
<path d="" fill="#688491" transform="translate(0,0)"/>
<path d="" fill="#688491" transform="translate(0,0)"/>
<path d="" fill="#566E79" transform="translate(0,0)"/>
<path d="" fill="#688491" transform="translate(0,0)"/>
<path d="" fill="#688491" transform="translate(0,0)"/>
<path d="" fill="#688491" transform="translate(0,0)"/>
<path d="" fill="#688491" transform="translate(0,0)"/>
<path d="" fill="#688491" transform="translate(0,0)"/>
<path d="" fill="#688491" transform="translate(0,0)"/>
<path d="" fill="#688491" transform="translate(0,0)"/>
<path d="" fill="#688491" transform="translate(0,0)"/>
<path d="" fill="#688491" transform="translate(0,0)"/>
</svg>
