<?xml version="1.0" encoding="UTF-8"?>
<svg version="1.1" xmlns="http://www.w3.org/2000/svg" width="256" height="256">
<path d="M0 0 C3.32790897 0.34391764 4.62690092 0.7391958 7.375 2.75 C8.179375 3.78125 8.98375 4.8125 9.8125 5.875 C24.82666101 24.05165301 45.79898292 31.41797103 68.67944336 33.80712891 C74.62355187 34.37026064 80.56031004 34.84544665 86.52734375 35.07421875 C87.25429443 35.10555908 87.98124512 35.13689941 88.73022461 35.16918945 C90.67364785 35.24461132 92.6181243 35.29137889 94.5625 35.3359375 C98.43389396 35.97806775 100.10921556 37.06239155 102.8125 39.875 C104.28177328 43.72464911 103.96018065 47.87666747 103.95776367 51.93798828 C103.96112228 52.74846619 103.9644809 53.55894409 103.96794128 54.39398193 C103.97744805 57.07777439 103.97939534 59.76150424 103.98046875 62.4453125 C103.98368535 64.32461573 103.98704973 66.20391872 103.99055481 68.08322144 C103.9965481 72.03253762 103.99839489 75.98183193 103.99780273 79.93115234 C103.99770198 84.94244801 104.01126294 89.95359922 104.02857494 94.96486092 C104.03981743 98.85501724 104.04171811 102.74514024 104.04119301 106.63531113 C104.04235829 108.47930263 104.0466964 110.32329541 104.05452538 112.16727066 C104.11247578 127.24763941 103.77225494 142.67384584 99.75 157.3125 C99.54084961 158.08416504 99.33169922 158.85583008 99.11621094 159.65087891 C93.64276506 178.58593958 83.36073816 194.71205048 69.8125 208.875 C69.23628906 209.514375 68.66007813 210.15375 68.06640625 210.8125 C61.79243978 217.51963564 54.25696684 222.76798255 46.94042969 228.26416016 C43.86440881 230.59270372 40.83741044 232.98070126 37.8125 235.375 C36.68385476 236.26074936 35.55494413 237.14616064 34.42578125 238.03125 C32.51013844 239.53421871 30.60115686 241.04426998 28.70068359 242.56640625 C26.47595077 244.34736677 24.23884853 246.11183307 22 247.875 C20.9780957 248.70354492 20.9780957 248.70354492 19.93554688 249.54882812 C12.28051092 255.52909338 4.49773914 257.90829781 -5.1875 256.875 C-13.80007177 255.69627211 -19.95855568 249.65612202 -26.421875 244.31835938 C-29.04744476 242.17201418 -31.74112486 240.1188265 -34.4375 238.0625 C-35.50422662 237.24260414 -36.5706216 236.42227667 -37.63671875 235.6015625 C-39.52672624 234.14837845 -41.41905967 232.69844704 -43.31494141 231.25292969 C-73.11861263 208.51663774 -96.55279771 183.00596133 -102.75447083 144.81227112 C-103.73256588 135.91904724 -103.5397911 126.94092689 -103.55859375 118.00390625 C-103.56757281 115.79100996 -103.57669487 113.57811425 -103.58595276 111.36521912 C-103.60236191 106.75005625 -103.61012963 102.13496531 -103.61303711 97.51977539 C-103.61845114 91.60591338 -103.65628994 85.69272456 -103.70178127 79.77905369 C-103.73148934 75.21945192 -103.73875911 70.66001478 -103.73976326 66.10032463 C-103.74396824 63.91900443 -103.7564136 61.73768386 -103.77728081 59.55645943 C-103.80409984 56.51442148 -103.79940075 53.47398004 -103.78686523 50.43188477 C-103.80169952 49.53363983 -103.81653381 48.6353949 -103.83181763 47.70993042 C-103.77974577 43.27829058 -103.6223514 41.44163673 -100.84353638 37.82067871 C-97.56866 35.42166893 -95.65647466 35.20311262 -91.62109375 35.08984375 C-90.34024902 35.03658936 -89.0594043 34.98333496 -87.73974609 34.9284668 C-87.06772156 34.9100473 -86.39569702 34.89162781 -85.70330811 34.87265015 C-82.19634582 34.77115206 -78.69443074 34.58235062 -75.19140625 34.390625 C-74.49881714 34.35345871 -73.80622803 34.31629242 -73.09265137 34.27799988 C-59.61204422 33.49141739 -46.46479682 30.56447901 -34.1875 24.875 C-33.23617187 24.43414063 -32.28484375 23.99328125 -31.3046875 23.5390625 C-22.28110606 18.9895688 -15.39638928 12.72603423 -9.1875 4.8125 C-6.28224883 1.44759448 -4.48137002 0.23168087 0 0 Z " fill="#629ACB" transform="translate(128.1875,-0.875)"/>
<path d="M0 0 C6.93 0.495 6.93 0.495 14 1 C16.58410248 1.14159668 19.16867289 1.2753519 21.75390625 1.39453125 C23.03974609 1.46349609 24.32558594 1.53246094 25.65039062 1.60351562 C27.62471592 1.70898383 29.59913389 1.8140692 31.57446289 1.89868164 C33.53094252 1.98418087 35.48625043 2.0952798 37.44140625 2.20703125 C38.58295166 2.2635083 39.72449707 2.31998535 40.90063477 2.37817383 C44.62418671 3.12523068 46.35767452 4.2989362 49 7 C50.47294386 10.84708214 50.14767989 15.00294263 50.14526367 19.06298828 C50.14862228 19.87346619 50.1519809 20.68394409 50.15544128 21.51898193 C50.16494805 24.20277439 50.16689534 26.88650424 50.16796875 29.5703125 C50.17118535 31.44961573 50.17454973 33.32891872 50.17805481 35.20822144 C50.1840481 39.15753762 50.18589489 43.10683193 50.18530273 47.05615234 C50.18520198 52.06744801 50.19876294 57.07859922 50.21607494 62.08986092 C50.22731743 65.98001724 50.22921811 69.87014024 50.22869301 73.76031113 C50.22985829 75.60430263 50.2341964 77.44829541 50.24202538 79.29227066 C50.29997578 94.37263941 49.95975494 109.79884584 45.9375 124.4375 C45.72834961 125.20916504 45.51919922 125.98083008 45.30371094 126.77587891 C39.83026506 145.71093958 29.54823816 161.83705048 16 176 C15.42378906 176.639375 14.84757812 177.27875 14.25390625 177.9375 C7.97993978 184.64463564 0.44446684 189.89298255 -6.87207031 195.38916016 C-9.94809119 197.71770372 -12.97508956 200.10570126 -16 202.5 C-17.12864524 203.38574936 -18.25755587 204.27116064 -19.38671875 205.15625 C-21.30236156 206.65921871 -23.21134314 208.16926998 -25.11181641 209.69140625 C-27.33654923 211.47236677 -29.57365147 213.23683307 -31.8125 215 C-32.49376953 215.55236328 -33.17503906 216.10472656 -33.87695312 216.67382812 C-41.53198908 222.65409338 -49.31476086 225.03329781 -59 224 C-67.63121878 222.81872006 -73.72388191 216.79761605 -80.20263672 211.45751953 C-83.03343393 209.16196678 -85.94923121 206.98486898 -88.875 204.8125 C-90.35613281 203.70841797 -90.35613281 203.70841797 -91.8671875 202.58203125 C-92.92292969 201.79892578 -92.92292969 201.79892578 -94 201 C-91.91390379 198.77869385 -89.83252271 197.16906936 -87.25 195.5625 C-81.96643878 192.12992322 -77.15124488 188.16855924 -72.31738281 184.13891602 C-69.00943215 181.42488892 -66.15215802 179.29953037 -62 178 C-62.17402344 176.081875 -62.17402344 176.081875 -62.3515625 174.125 C-63.20493216 160.7052659 -63.20493216 160.7052659 -59.94921875 156.09765625 C-57.38637361 154.11951948 -54.8328203 152.55908504 -52 151 C-50.32621735 149.67561063 -48.65784947 148.34428074 -47 147 C-46.67 147 -46.34 147 -46 147 C-45.67 156.9 -45.34 166.8 -45 177 C-42.628125 175.06125 -40.25625 173.1225 -37.8125 171.125 C-33.19605644 167.35451147 -28.56108543 163.63219415 -23.78271484 160.06860352 C-6.27439019 146.96817511 7.01597151 129.75049019 10.53198242 107.65722656 C11.26433528 101.53843803 11.20215937 95.38883485 11.23828125 89.234375 C11.25038887 87.26794037 11.25038887 87.26794037 11.26274109 85.26177979 C11.27767161 82.50166969 11.28756004 79.74158446 11.29516602 76.98144531 C11.30629874 73.44838882 11.34081682 69.9159503 11.38033772 66.38311386 C11.4127327 63.00022535 11.41727115 59.61740663 11.42578125 56.234375 C11.45204338 54.33434723 11.45204338 54.33434723 11.47883606 52.39593506 C11.47591049 51.2208136 11.47298492 50.04569214 11.4699707 48.83496094 C11.47877007 47.28563873 11.47877007 47.28563873 11.48774719 45.70501709 C10.85008381 42.16857369 9.89011386 41.1126423 7 39 C4.69 38.34 2.38 37.68 0 37 C0 24.79 0 12.58 0 0 Z " fill="#48709C" transform="translate(182,32)"/>
<path d="M0 0 C0.02345665 17.69936102 0.04104147 35.39871712 0.05181217 53.09809017 C0.05694818 61.31792155 0.06393894 69.53774322 0.07543945 77.75756836 C0.08546925 84.9296949 0.09187298 92.10181441 0.09408849 99.27394778 C0.09538164 103.06449129 0.09837757 106.85501468 0.10573006 110.64555168 C0.16236301 140.96902394 0.16236301 140.96902394 -1 155 C-12.82663141 147.65471569 -23.76555428 138.42034208 -34 129 C-34.6496875 128.42636719 -35.299375 127.85273438 -35.96875 127.26171875 C-45.49327848 118.4148971 -50.87837246 107.1572037 -55 95 C-55.35320312 94.02933594 -55.70640625 93.05867188 -56.0703125 92.05859375 C-59.58735551 80.48781781 -58.30020737 67.66963996 -58.35009766 55.68457031 C-58.36348526 52.8076228 -58.39144599 49.93137646 -58.43212891 47.0546875 C-58.48145995 43.56466271 -58.5062159 40.07527747 -58.51332474 36.58491898 C-58.52327069 34.61891144 -58.55749549 32.65307497 -58.59213257 30.68734741 C-58.57105183 21.82397785 -58.57105183 21.82397785 -55.73339844 17.72949219 C-53.2581723 16.16335232 -51.59546898 15.24083835 -48.7421875 14.7421875 C-47.95755127 14.59346191 -47.17291504 14.44473633 -46.36450195 14.29150391 C-45.54296631 14.15405762 -44.72143066 14.01661133 -43.875 13.875 C-42.1571625 13.54892073 -40.43970956 13.22080872 -38.72265625 12.890625 C-37.90168457 12.73787109 -37.08071289 12.58511719 -36.23486328 12.42773438 C-28.78539881 11.0019684 -21.72409757 8.61802741 -14.625 6 C-13.94606689 5.75072754 -13.26713379 5.50145508 -12.56762695 5.24462891 C-8.61029138 3.7458243 -4.13160563 0 0 0 Z " fill="#C5CEE1" transform="translate(120,54)"/>
<path d="M0 0 C3.11227049 1.24177655 6.21304415 2.50314902 9.30078125 3.8046875 C22.77658009 9.40610629 35.82953839 13.74667217 50.44921875 15.21484375 C54.02293633 16.31487014 56.1871459 17.75422347 58 21 C58.73611107 25.4056261 58.62811579 29.76987563 58.55859375 34.2265625 C58.55509666 36.17446182 58.55509666 36.17446182 58.55152893 38.16171265 C58.54537091 40.91072808 58.52272659 43.65892641 58.48706055 46.40771484 C58.44205681 49.90081357 58.42704749 53.39316803 58.42332363 56.88652992 C58.41777668 60.24997946 58.39437461 63.61318659 58.37109375 66.9765625 C58.36573105 68.21652985 58.36036835 69.45649719 58.35484314 70.73403931 C58.05442209 92.98790597 50.67717545 112.04287499 35 128 C34.49073975 128.53407471 33.98147949 129.06814941 33.45678711 129.6184082 C29.14027724 134.07044429 24.52740987 137.85781028 19.5625 141.5625 C18.85029297 142.10068359 18.13808594 142.63886719 17.40429688 143.19335938 C15.98351885 144.26571772 14.55989538 145.33431765 13.13330078 146.39892578 C11.66502496 147.5008888 10.20549546 148.61457111 8.75341797 149.73779297 C8.03943848 150.28709473 7.32545898 150.83639648 6.58984375 151.40234375 C5.94781006 151.90113037 5.30577637 152.39991699 4.64428711 152.91381836 C3 154 3 154 1 154 C0.20618101 133.97169641 -0.13895941 113.99113032 -0.09765625 93.9453125 C-0.09521333 91.2080793 -0.09431433 88.47084613 -0.09336853 85.73361206 C-0.09031109 79.35972844 -0.08217659 72.98586283 -0.07201904 66.61198699 C-0.06067983 59.33210949 -0.05530351 52.05223093 -0.05032361 44.77234674 C-0.03998638 29.84822128 -0.02250039 14.92411247 0 0 Z " fill="#AEB9D2" transform="translate(136,54)"/>
<path d="M0 0 C5.72821019 1.9094034 11.30538437 3.84443722 16.875 6.125 C21.89600238 8.17180835 21.89600238 8.17180835 27 10 C27.0769827 17.23666451 27.12898481 24.47322089 27.16479492 31.71020508 C27.17974648 34.1646723 27.20011509 36.61911344 27.22631836 39.07348633 C27.53232417 68.50404533 23.55745 97.23255318 2.53125 119.59375 C1 121 1 121 0 121 C0 81.07 0 41.14 0 0 Z " fill="#C6CEE1" transform="translate(137,55)"/>
<path d="M0 0 C3.0766616 2.12999649 3.85763576 3.25654231 4.5625 6.9375 C3.79477021 11.11736219 2.42123173 12.52506641 -1 15 C-4.95779649 15.62491523 -7.00863886 15.61006839 -10.4375 13.5 C-12.33148168 10.46962931 -12.64334247 8.44169066 -12.4453125 4.91015625 C-12 3 -12 3 -9.9375 0.4375 C-6.07364271 -1.45332378 -4.09918272 -1.19248952 0 0 Z " fill="#48719C" transform="translate(132,26)"/>
<path d="M0 0 C3.37564269 2.44195429 4.75320045 3.9230565 5.6875 8 C4.90167392 11.42905924 3.62880414 13.06237136 0.7890625 15.1484375 C-2.41545328 16.67373104 -4.72950713 16.04902601 -8 15 C-10.81972931 12.63506574 -10.97850831 11.1719335 -11.4375 7.5 C-11 4 -11 4 -9.4375 1.5625 C-6.01685857 -0.63021887 -3.99048721 -0.63007693 0 0 Z " fill="#6198CA" transform="translate(213,51)"/>
<path d="M0 0 C3 2.0625 3 2.0625 5 5 C5.1506132 9.29247606 4.66257079 11.22050496 1.875 14.5 C-1.93532871 16.48799759 -3.91964404 16.20899436 -8 15 C-10.81972931 12.63506574 -10.97850831 11.1719335 -11.4375 7.5 C-11 4 -11 4 -9.4375 1.5625 C-6.01685857 -0.63021887 -3.99048721 -0.63007693 0 0 Z " fill="#6198CA" transform="translate(131,224)"/>
<path d="M0 0 C3 2.0625 3 2.0625 5 5 C5.1506132 9.29247606 4.66257079 11.22050496 1.875 14.5 C-1.93532871 16.48799759 -3.91964404 16.20899436 -8 15 C-10.81972931 12.63506574 -10.97850831 11.1719335 -11.4375 7.5 C-11 4 -11 4 -9.4375 1.5625 C-6.01685857 -0.63021887 -3.99048721 -0.63007693 0 0 Z " fill="#48719C" transform="translate(49,51)"/>
<path d="M0 0 C0 5.28 0 10.56 0 16 C-7.03125 11.703125 -7.03125 11.703125 -9 10 C-9 8.68 -9 7.36 -9 6 C-7.28515625 4.296875 -7.28515625 4.296875 -5.0625 2.75 C-4.33160156 2.22921875 -3.60070312 1.7084375 -2.84765625 1.171875 C-1 0 -1 0 0 0 Z " fill="#AEB8D2" transform="translate(119,193)"/>
</svg>
