<?xml version="1.0" encoding="UTF-8"?>
<svg version="1.1" xmlns="http://www.w3.org/2000/svg" width="1024" height="1024">
<path d="M0 0 C2.72071366 -0.00022484 5.44142654 -0.001649 8.16213989 -0.00289917 C13.82115173 -0.0046985 19.48015035 -0.00237488 25.13916016 0.00244141 C31.59546753 0.00787431 38.05174324 0.00611922 44.50804985 0.000615 C50.14123957 -0.0039874 55.77442001 -0.00453241 61.40761101 -0.00194633 C64.73254291 -0.0004213 68.05744877 -0.00050008 71.38238144 -0.00348282 C89.23908477 -0.01599279 107.04260921 0.37233255 124.8828125 1.1328125 C124.8828125 1.7928125 124.8828125 2.4528125 124.8828125 3.1328125 C126.67912109 3.11541016 126.67912109 3.11541016 128.51171875 3.09765625 C138.68949561 3.03049698 148.73810854 3.28362951 158.8828125 4.1328125 C158.8828125 4.7928125 158.8828125 5.4528125 158.8828125 6.1328125 C159.80320312 6.12121094 160.72359375 6.10960937 161.671875 6.09765625 C170.46953757 6.03494379 179.1112022 6.37594012 187.8828125 7.1328125 C187.8828125 7.7928125 187.8828125 8.4528125 187.8828125 9.1328125 C188.62144531 9.12121094 189.36007812 9.10960937 190.12109375 9.09765625 C197.10735098 9.03551673 203.9390888 9.36736264 210.8828125 10.1328125 C210.8828125 10.7928125 210.8828125 11.4528125 210.8828125 12.1328125 C211.50027344 12.12121094 212.11773438 12.10960937 212.75390625 12.09765625 C218.55806794 12.03581587 224.12619338 12.39002294 229.8828125 13.1328125 C229.8828125 13.7928125 229.8828125 14.4528125 229.8828125 15.1328125 C235.4928125 15.4628125 241.1028125 15.7928125 246.8828125 16.1328125 C246.8828125 16.7928125 246.8828125 17.4528125 246.8828125 18.1328125 C251.8328125 18.4628125 256.7828125 18.7928125 261.8828125 19.1328125 C261.8828125 19.7928125 261.8828125 20.4528125 261.8828125 21.1328125 C262.46289062 21.12121094 263.04296875 21.10960937 263.640625 21.09765625 C268.1826371 21.04519076 272.40994819 21.21530187 276.8828125 22.1328125 C276.8828125 22.7928125 276.8828125 23.4528125 276.8828125 24.1328125 C280.8428125 24.4628125 284.8028125 24.7928125 288.8828125 25.1328125 C288.8828125 25.7928125 288.8828125 26.4528125 288.8828125 27.1328125 C290.0790625 27.1121875 291.2753125 27.0915625 292.5078125 27.0703125 C296.06286119 27.06398679 299.38836874 27.43392375 302.8828125 28.1328125 C302.8828125 28.7928125 302.8828125 29.4528125 302.8828125 30.1328125 C306.1828125 30.4628125 309.4828125 30.7928125 312.8828125 31.1328125 C312.8828125 31.7928125 312.8828125 32.4528125 312.8828125 33.1328125 C316.5128125 33.4628125 320.1428125 33.7928125 323.8828125 34.1328125 C323.8828125 34.7928125 323.8828125 35.4528125 323.8828125 36.1328125 C326.8528125 36.4628125 329.8228125 36.7928125 332.8828125 37.1328125 C332.8828125 37.7928125 332.8828125 38.4528125 332.8828125 39.1328125 C335.8528125 39.4628125 338.8228125 39.7928125 341.8828125 40.1328125 C341.8828125 40.7928125 341.8828125 41.4528125 341.8828125 42.1328125 C344.8528125 42.4628125 347.8228125 42.7928125 350.8828125 43.1328125 C350.8828125 43.7928125 350.8828125 44.4528125 350.8828125 45.1328125 C354.8428125 45.6278125 354.8428125 45.6278125 358.8828125 46.1328125 C358.8828125 46.7928125 358.8828125 47.4528125 358.8828125 48.1328125 C361.1928125 48.4628125 363.5028125 48.7928125 365.8828125 49.1328125 C365.8828125 49.7928125 365.8828125 50.4528125 365.8828125 51.1328125 C367.8628125 51.4628125 369.8428125 51.7928125 371.8828125 52.1328125 C371.8828125 52.7928125 371.8828125 53.4528125 371.8828125 54.1328125 C373.4915625 54.3184375 373.4915625 54.3184375 375.1328125 54.5078125 C378.26144865 55.02925186 380.21761674 55.53369504 382.8828125 57.1328125 C382.8828125 57.7928125 382.8828125 58.4528125 382.8828125 59.1328125 C384.8628125 59.4628125 386.8428125 59.7928125 388.8828125 60.1328125 C388.8828125 60.7928125 388.8828125 61.4528125 388.8828125 62.1328125 C389.8521875 62.2565625 390.8215625 62.3803125 391.8203125 62.5078125 C392.8309375 62.7140625 393.8415625 62.9203125 394.8828125 63.1328125 C395.2128125 63.7928125 395.5428125 64.4528125 395.8828125 65.1328125 C398.35350239 66.47442367 400.88856626 67.6311149 403.4375 68.81640625 C405.74802529 70.06025134 407.07706989 71.28103112 408.8828125 73.1328125 C411.98288451 74.33330657 411.98288451 74.33330657 414.8828125 75.1328125 C414.8828125 76.1228125 414.8828125 77.1128125 414.8828125 78.1328125 C415.8728125 78.1328125 416.8628125 78.1328125 417.8828125 78.1328125 C419.5703125 79.5078125 419.5703125 79.5078125 420.8828125 81.1328125 C420.8828125 81.7928125 420.8828125 82.4528125 420.8828125 83.1328125 C421.8728125 83.1328125 422.8628125 83.1328125 423.8828125 83.1328125 C424.2128125 84.1228125 424.5428125 85.1128125 424.8828125 86.1328125 C426.88402425 88.49788093 427.85080911 89.1221447 430.8828125 90.1328125 C430.8828125 90.7928125 430.8828125 91.4528125 430.8828125 92.1328125 C431.5428125 92.1328125 432.2028125 92.1328125 432.8828125 92.1328125 C432.8828125 93.1228125 432.8828125 94.1128125 432.8828125 95.1328125 C433.8728125 95.1328125 434.8628125 95.1328125 435.8828125 95.1328125 C435.8828125 96.4528125 435.8828125 97.7728125 435.8828125 99.1328125 C436.8728125 99.1328125 437.8628125 99.1328125 438.8828125 99.1328125 C439.5428125 101.7728125 440.2028125 104.4128125 440.8828125 107.1328125 C441.5428125 107.1328125 442.2028125 107.1328125 442.8828125 107.1328125 C442.8828125 108.1228125 442.8828125 109.1128125 442.8828125 110.1328125 C443.841875 110.41125 443.841875 110.41125 444.8203125 110.6953125 C446.8828125 112.1328125 446.8828125 112.1328125 447.6328125 115.7578125 C447.7565625 117.4284375 447.7565625 117.4284375 447.8828125 119.1328125 C448.8728125 119.1328125 449.8628125 119.1328125 450.8828125 119.1328125 C450.8828125 120.4528125 450.8828125 121.7728125 450.8828125 123.1328125 C451.8728125 123.1328125 452.8628125 123.1328125 453.8828125 123.1328125 C454.0684375 124.339375 454.0684375 124.339375 454.2578125 125.5703125 C454.4640625 126.4159375 454.6703125 127.2615625 454.8828125 128.1328125 C455.5428125 128.4628125 456.2028125 128.7928125 456.8828125 129.1328125 C456.8828125 130.4528125 456.8828125 131.7728125 456.8828125 133.1328125 C457.5428125 133.1328125 458.2028125 133.1328125 458.8828125 133.1328125 C458.8828125 134.1228125 458.8828125 135.1128125 458.8828125 136.1328125 C459.5428125 136.6071875 460.2028125 137.0815625 460.8828125 137.5703125 C461.5428125 138.0859375 462.2028125 138.6015625 462.8828125 139.1328125 C462.8828125 140.4528125 462.8828125 141.7728125 462.8828125 143.1328125 C463.8728125 143.1328125 464.8628125 143.1328125 465.8828125 143.1328125 C465.8828125 144.7828125 465.8828125 146.4328125 465.8828125 148.1328125 C466.8728125 148.1328125 467.8628125 148.1328125 468.8828125 148.1328125 C468.8828125 149.4528125 468.8828125 150.7728125 468.8828125 152.1328125 C469.5428125 152.1328125 470.2028125 152.1328125 470.8828125 152.1328125 C470.8828125 153.7828125 470.8828125 155.4328125 470.8828125 157.1328125 C471.8728125 157.1328125 472.8628125 157.1328125 473.8828125 157.1328125 C473.8828125 158.4528125 473.8828125 159.7728125 473.8828125 161.1328125 C474.8728125 161.1328125 475.8628125 161.1328125 476.8828125 161.1328125 C477.0684375 162.339375 477.0684375 162.339375 477.2578125 163.5703125 C477.4640625 164.4159375 477.6703125 165.2615625 477.8828125 166.1328125 C478.5428125 166.4628125 479.2028125 166.7928125 479.8828125 167.1328125 C480.5078125 169.6953125 480.5078125 169.6953125 480.8828125 172.1328125 C481.8728125 172.1328125 482.8628125 172.1328125 483.8828125 172.1328125 C483.8828125 173.4528125 483.8828125 174.7728125 483.8828125 176.1328125 C484.5428125 176.1328125 485.2028125 176.1328125 485.8828125 176.1328125 C486.2128125 177.7828125 486.5428125 179.4328125 486.8828125 181.1328125 C487.5428125 181.1328125 488.2028125 181.1328125 488.8828125 181.1328125 C488.8828125 182.4528125 488.8828125 183.7728125 488.8828125 185.1328125 C489.8728125 185.1328125 490.8628125 185.1328125 491.8828125 185.1328125 C492.0684375 186.339375 492.0684375 186.339375 492.2578125 187.5703125 C492.4640625 188.4159375 492.6703125 189.2615625 492.8828125 190.1328125 C493.5428125 190.4628125 494.2028125 190.7928125 494.8828125 191.1328125 C495.5078125 193.6953125 495.5078125 193.6953125 495.8828125 196.1328125 C496.5428125 196.1328125 497.2028125 196.1328125 497.8828125 196.1328125 C498.2128125 198.4428125 498.5428125 200.7528125 498.8828125 203.1328125 C499.8728125 203.1328125 500.8628125 203.1328125 501.8828125 203.1328125 C501.8828125 203.7928125 501.8828125 204.4528125 501.8828125 205.1328125 C502.5428125 205.1328125 503.2028125 205.1328125 503.8828125 205.1328125 C503.8828125 206.7828125 503.8828125 208.4328125 503.8828125 210.1328125 C504.8728125 210.1328125 505.8628125 210.1328125 506.8828125 210.1328125 C506.8828125 211.4528125 506.8828125 212.7728125 506.8828125 214.1328125 C507.8728125 214.1328125 508.8628125 214.1328125 509.8828125 214.1328125 C510.2128125 217.1028125 510.5428125 220.0728125 510.8828125 223.1328125 C511.5428125 223.1328125 512.2028125 223.1328125 512.8828125 223.1328125 C513.2128125 225.1128125 513.5428125 227.0928125 513.8828125 229.1328125 C514.5428125 229.1328125 515.2028125 229.1328125 515.8828125 229.1328125 C517.23720918 231.84160585 516.94782701 234.14214518 516.8828125 237.1328125 C517.5428125 237.1328125 518.2028125 237.1328125 518.8828125 237.1328125 C519.2128125 239.1128125 519.5428125 241.0928125 519.8828125 243.1328125 C520.5428125 243.1328125 521.2028125 243.1328125 521.8828125 243.1328125 C521.8828125 246.1028125 521.8828125 249.0728125 521.8828125 252.1328125 C522.8728125 252.1328125 523.8628125 252.1328125 524.8828125 252.1328125 C525.86587084 259.5023333 526.028489 266.72681209 526.015625 274.15625 C526.01658173 275.37937897 526.01753845 276.60250793 526.01852417 277.86270142 C526.01920155 280.43271944 526.01737822 283.00273922 526.01318359 285.57275391 C526.00780134 289.51598914 526.01315776 293.4591119 526.01953125 297.40234375 C526.01887093 299.90364609 526.01759073 302.40494835 526.015625 304.90625 C526.01764923 306.08746429 526.01967346 307.26867859 526.02175903 308.48568726 C526.01860687 309.57757355 526.01545471 310.66945984 526.01220703 311.79443359 C526.01101364 313.23597305 526.01101364 313.23597305 526.00979614 314.70663452 C525.8828125 317.1328125 525.8828125 317.1328125 524.8828125 320.1328125 C523.8928125 320.1328125 522.9028125 320.1328125 521.8828125 320.1328125 C521.91761719 320.71289062 521.95242188 321.29296875 521.98828125 321.890625 C522.17025774 327.1419465 521.71658961 330.52792469 518.8828125 335.1328125 C518.2228125 335.1328125 517.5628125 335.1328125 516.8828125 335.1328125 C516.8828125 337.4428125 516.8828125 339.7528125 516.8828125 342.1328125 C515.8928125 342.1328125 514.9028125 342.1328125 513.8828125 342.1328125 C513.8828125 344.1128125 513.8828125 346.0928125 513.8828125 348.1328125 C512.8928125 348.1328125 511.9028125 348.1328125 510.8828125 348.1328125 C510.5528125 351.4328125 510.2228125 354.7328125 509.8828125 358.1328125 C508.8928125 358.1328125 507.9028125 358.1328125 506.8828125 358.1328125 C506.8828125 359.4528125 506.8828125 360.7728125 506.8828125 362.1328125 C505.8928125 362.1328125 504.9028125 362.1328125 503.8828125 362.1328125 C503.8828125 363.7828125 503.8828125 365.4328125 503.8828125 367.1328125 C503.2228125 367.1328125 502.5628125 367.1328125 501.8828125 367.1328125 C501.5528125 368.4528125 501.2228125 369.7728125 500.8828125 371.1328125 C500.2228125 371.1328125 499.5628125 371.1328125 498.8828125 371.1328125 C498.5528125 372.1228125 498.2228125 373.1128125 497.8828125 374.1328125 C497.2228125 374.1328125 496.5628125 374.1328125 495.8828125 374.1328125 C495.5528125 376.1128125 495.2228125 378.0928125 494.8828125 380.1328125 C493.8928125 380.1328125 492.9028125 380.1328125 491.8828125 380.1328125 C491.8828125 381.7828125 491.8828125 383.4328125 491.8828125 385.1328125 C490.2328125 385.4628125 488.5828125 385.7928125 486.8828125 386.1328125 C486.8828125 387.1228125 486.8828125 388.1128125 486.8828125 389.1328125 C485.8928125 389.1328125 484.9028125 389.1328125 483.8828125 389.1328125 C483.8828125 389.7928125 483.8828125 390.4528125 483.8828125 391.1328125 C484.5428125 391.1328125 485.2028125 391.1328125 485.8828125 391.1328125 C485.8828125 392.1228125 485.8828125 393.1128125 485.8828125 394.1328125 C484.8928125 394.1328125 483.9028125 394.1328125 482.8828125 394.1328125 C482.8828125 395.1228125 482.8828125 396.1128125 482.8828125 397.1328125 C481.2328125 397.4628125 479.5828125 397.7928125 477.8828125 398.1328125 C477.8828125 398.7928125 477.8828125 399.4528125 477.8828125 400.1328125 C477.0990625 400.2153125 476.3153125 400.2978125 475.5078125 400.3828125 C474.6415625 400.6303125 473.7753125 400.8778125 472.8828125 401.1328125 C472.17886638 402.44684526 471.51935592 403.7848382 470.8828125 405.1328125 C465.86860795 410.1328125 465.86860795 410.1328125 462.8828125 410.1328125 C462.5528125 411.1228125 462.2228125 412.1128125 461.8828125 413.1328125 C461.2228125 413.1328125 460.5628125 413.1328125 459.8828125 413.1328125 C459.8828125 413.7928125 459.8828125 414.4528125 459.8828125 415.1328125 C458.20745791 416.65266133 456.46575628 418.09987703 454.6953125 419.5078125 C453.73238281 420.27867187 452.76945313 421.04953125 451.77734375 421.84375 C450.82214844 422.59914063 449.86695313 423.35453125 448.8828125 424.1328125 C447.97917969 424.88820313 447.07554687 425.64359375 446.14453125 426.421875 C443.8828125 428.1328125 443.8828125 428.1328125 441.8828125 428.1328125 C441.8828125 428.7928125 441.8828125 429.4528125 441.8828125 430.1328125 C440.22748627 431.15147479 438.56021112 432.15092063 436.8828125 433.1328125 C436.5528125 433.7928125 436.2228125 434.4528125 435.8828125 435.1328125 C434.8928125 435.1328125 433.9028125 435.1328125 432.8828125 435.1328125 C432.5528125 436.1228125 432.2228125 437.1128125 431.8828125 438.1328125 C430.2328125 438.4628125 428.5828125 438.7928125 426.8828125 439.1328125 C426.8828125 440.1228125 426.8828125 441.1128125 426.8828125 442.1328125 C425.2328125 442.1328125 423.5828125 442.1328125 421.8828125 442.1328125 C421.2228125 443.7828125 420.5628125 445.4328125 419.8828125 447.1328125 C417.2428125 447.4628125 414.6028125 447.7928125 411.8828125 448.1328125 C411.8828125 449.1228125 411.8828125 450.1128125 411.8828125 451.1328125 C408.65489695 453.2847562 407.59880441 453.33367693 403.8828125 453.1328125 C403.8828125 454.1228125 403.8828125 455.1128125 403.8828125 456.1328125 C401.9028125 456.4628125 399.9228125 456.7928125 397.8828125 457.1328125 C397.8828125 457.7928125 397.8828125 458.4528125 397.8828125 459.1328125 C396.2328125 459.4628125 394.5828125 459.7928125 392.8828125 460.1328125 C392.8828125 460.7928125 392.8828125 461.4528125 392.8828125 462.1328125 C391.5078125 463.7578125 391.5078125 463.7578125 389.8828125 465.1328125 C389.2228125 465.1328125 388.5628125 465.1328125 387.8828125 465.1328125 C387.8828125 464.4728125 387.8828125 463.8128125 387.8828125 463.1328125 C386.8928125 463.4628125 385.9028125 463.7928125 384.8828125 464.1328125 C384.8828125 464.7928125 384.8828125 465.4528125 384.8828125 466.1328125 C383.2328125 466.1328125 381.5828125 466.1328125 379.8828125 466.1328125 C379.8828125 466.7928125 379.8828125 467.4528125 379.8828125 468.1328125 C378.2328125 468.4628125 376.5828125 468.7928125 374.8828125 469.1328125 C374.8828125 469.7928125 374.8828125 470.4528125 374.8828125 471.1328125 C373.2328125 471.7928125 371.5828125 472.4528125 369.8828125 473.1328125 C370.2128125 473.7928125 370.5428125 474.4528125 370.8828125 475.1328125 C367.9128125 475.1328125 364.9428125 475.1328125 361.8828125 475.1328125 C361.8828125 475.7928125 361.8828125 476.4528125 361.8828125 477.1328125 C360.8928125 477.4628125 359.9028125 477.7928125 358.8828125 478.1328125 C358.8828125 478.7928125 358.8828125 479.4528125 358.8828125 480.1328125 C355.5828125 480.7928125 352.2828125 481.4528125 348.8828125 482.1328125 C349.2128125 482.7928125 349.5428125 483.4528125 349.8828125 484.1328125 C346.9128125 484.1328125 343.9428125 484.1328125 340.8828125 484.1328125 C340.8828125 484.7928125 340.8828125 485.4528125 340.8828125 486.1328125 C340.0784375 486.2565625 339.2740625 486.3803125 338.4453125 486.5078125 C337.176875 486.8171875 337.176875 486.8171875 335.8828125 487.1328125 C335.5528125 487.7928125 335.2228125 488.4528125 334.8828125 489.1328125 C332.37890625 489.546875 332.37890625 489.546875 329.3203125 489.7578125 C328.30839844 489.83257813 327.29648437 489.90734375 326.25390625 489.984375 C325.47144531 490.03335937 324.68898438 490.08234375 323.8828125 490.1328125 C323.8828125 490.7928125 323.8828125 491.4528125 323.8828125 492.1328125 C323.0784375 492.2565625 322.2740625 492.3803125 321.4453125 492.5078125 C320.176875 492.8171875 320.176875 492.8171875 318.8828125 493.1328125 C318.5528125 493.7928125 318.2228125 494.4528125 317.8828125 495.1328125 C315.16015625 495.546875 315.16015625 495.546875 311.8203125 495.7578125 C310.16322266 495.86996094 310.16322266 495.86996094 308.47265625 495.984375 C307.61800781 496.03335937 306.76335938 496.08234375 305.8828125 496.1328125 C305.8828125 496.7928125 305.8828125 497.4528125 305.8828125 498.1328125 C306.5428125 498.1328125 307.2028125 498.1328125 307.8828125 498.1328125 C307.8828125 499.1228125 307.8828125 500.1128125 307.8828125 501.1328125 C306.8928125 501.1328125 305.9028125 501.1328125 304.8828125 501.1328125 C304.8828125 500.4728125 304.8828125 499.8128125 304.8828125 499.1328125 C302.5728125 499.1328125 300.2628125 499.1328125 297.8828125 499.1328125 C297.8828125 499.7928125 297.8828125 500.4528125 297.8828125 501.1328125 C295.9028125 501.1328125 293.9228125 501.1328125 291.8828125 501.1328125 C291.8828125 502.1228125 291.8828125 503.1128125 291.8828125 504.1328125 C290.7484375 504.2771875 289.6140625 504.4215625 288.4453125 504.5703125 C285.07504049 504.74452728 285.07504049 504.74452728 283.8828125 506.1328125 C281.54983817 506.17374187 279.21576025 506.17522973 276.8828125 506.1328125 C276.8828125 507.1228125 276.8828125 508.1128125 276.8828125 509.1328125 C271.9328125 509.4628125 266.9828125 509.7928125 261.8828125 510.1328125 C261.8828125 511.1228125 261.8828125 512.1128125 261.8828125 513.1328125 C258.5828125 513.4628125 255.2828125 513.7928125 251.8828125 514.1328125 C251.5528125 515.1228125 251.2228125 516.1128125 250.8828125 517.1328125 C232.06276694 519.42894006 232.06276694 519.42894006 222.8828125 519.1328125 C222.8828125 519.7928125 222.8828125 520.4528125 222.8828125 521.1328125 C219.2528125 521.4628125 215.6228125 521.7928125 211.8828125 522.1328125 C211.8828125 522.7928125 211.8828125 523.4528125 211.8828125 524.1328125 C204.85476551 524.98654489 197.96003181 525.25390561 190.8828125 525.1328125 C190.8828125 525.7928125 190.8828125 526.4528125 190.8828125 527.1328125 C187.56736951 528.23796016 184.67871139 528.45388881 181.1953125 528.6953125 C180.01582031 528.77910156 178.83632813 528.86289062 177.62109375 528.94921875 C176.71746094 529.00980469 175.81382812 529.07039062 174.8828125 529.1328125 C174.8828125 529.4628125 174.8828125 529.7928125 174.8828125 530.1328125 C170.2628125 530.1328125 165.6428125 530.1328125 160.8828125 530.1328125 C160.8828125 531.1228125 160.8828125 532.1128125 160.8828125 533.1328125 C147.868134 533.85157186 134.91748328 534.27605064 121.8828125 534.1328125 C121.8828125 534.7928125 121.8828125 535.4528125 121.8828125 536.1328125 C117.06882469 537.37832949 112.35934363 537.25970294 107.42578125 537.23046875 C106.52281815 537.2290538 105.61985504 537.22763885 104.68952942 537.22618103 C101.81642287 537.22060073 98.94339534 537.20805184 96.0703125 537.1953125 C94.11783967 537.19029495 92.16536561 537.18573249 90.21289062 537.18164062 C85.43616765 537.17063775 80.65950346 537.15338668 75.8828125 537.1328125 C75.8828125 537.7928125 75.8828125 538.4528125 75.8828125 539.1328125 C50.1428125 539.1328125 24.4028125 539.1328125 -2.1171875 539.1328125 C-2.1171875 538.4728125 -2.1171875 537.8128125 -2.1171875 537.1328125 C-3.34348877 537.13804932 -4.56979004 537.14328613 -5.83325195 537.14868164 C-10.3786547 537.16676811 -14.92405426 537.1782579 -19.46948242 537.18774414 C-21.43758682 537.192776 -23.40568747 537.19960208 -25.3737793 537.20825195 C-28.20101851 537.22036767 -31.02820834 537.22605226 -33.85546875 537.23046875 C-35.17748039 537.23821068 -35.17748039 537.23821068 -36.52619934 537.24610901 C-37.34682358 537.24618454 -38.16744781 537.24626007 -39.01293945 537.24633789 C-40.09548759 537.24966881 -40.09548759 537.24966881 -41.1999054 537.25306702 C-43.1171875 537.1328125 -43.1171875 537.1328125 -46.1171875 536.1328125 C-46.1171875 535.4728125 -46.1171875 534.8128125 -46.1171875 534.1328125 C-47.70080078 534.15021484 -47.70080078 534.15021484 -49.31640625 534.16796875 C-61.27923158 534.25542829 -73.17388601 533.79240311 -85.1171875 533.1328125 C-85.4471875 532.4728125 -85.7771875 531.8128125 -86.1171875 531.1328125 C-89.39274358 530.66280217 -89.39274358 530.66280217 -93.1796875 530.5078125 C-94.47003906 530.43304687 -95.76039063 530.35828125 -97.08984375 530.28125 C-98.08886719 530.23226562 -99.08789062 530.18328125 -100.1171875 530.1328125 C-100.1171875 529.4728125 -100.1171875 528.8128125 -100.1171875 528.1328125 C-101.00921875 528.14441406 -101.90125 528.15601563 -102.8203125 528.16796875 C-104.57601562 528.18150391 -104.57601562 528.18150391 -106.3671875 528.1953125 C-108.10742188 528.21271484 -108.10742188 528.21271484 -109.8828125 528.23046875 C-112.52695878 528.15063342 -114.61544841 527.91925028 -117.1171875 527.1328125 C-117.1171875 526.4728125 -117.1171875 525.8128125 -117.1171875 525.1328125 C-118.00857422 525.15021484 -118.00857422 525.15021484 -118.91796875 525.16796875 C-125.37614263 525.23827546 -131.69708363 524.81632166 -138.1171875 524.1328125 C-138.1171875 523.4728125 -138.1171875 522.8128125 -138.1171875 522.1328125 C-141.4171875 521.8028125 -144.7171875 521.4728125 -148.1171875 521.1328125 C-148.1171875 520.4728125 -148.1171875 519.8128125 -148.1171875 519.1328125 C-148.78363281 519.14441406 -149.45007813 519.15601563 -150.13671875 519.16796875 C-156.85949695 519.23378616 -163.4346265 518.85664889 -170.1171875 518.1328125 C-170.1171875 517.1428125 -170.1171875 516.1528125 -170.1171875 515.1328125 C-172.4271875 515.1328125 -174.7371875 515.1328125 -177.1171875 515.1328125 C-177.1171875 514.4728125 -177.1171875 513.8128125 -177.1171875 513.1328125 C-180.0871875 513.1328125 -183.0571875 513.1328125 -186.1171875 513.1328125 C-186.1171875 512.1428125 -186.1171875 511.1528125 -186.1171875 510.1328125 C-191.7271875 509.8028125 -197.3371875 509.4728125 -203.1171875 509.1328125 C-203.1171875 508.1428125 -203.1171875 507.1528125 -203.1171875 506.1328125 C-204.7671875 506.1328125 -206.4171875 506.1328125 -208.1171875 506.1328125 C-206.7971875 506.7928125 -205.4771875 507.4528125 -204.1171875 508.1328125 C-204.4471875 508.7928125 -204.7771875 509.4528125 -205.1171875 510.1328125 C-207.0971875 509.8028125 -209.0771875 509.4728125 -211.1171875 509.1328125 C-211.1171875 508.4728125 -211.1171875 507.8128125 -211.1171875 507.1328125 C-212.3546875 507.1946875 -212.3546875 507.1946875 -213.6171875 507.2578125 C-217.73710565 507.11067257 -221.14866057 506.22757855 -225.1171875 505.1328125 C-224.4571875 504.8028125 -223.7971875 504.4728125 -223.1171875 504.1328125 C-223.1171875 503.4728125 -223.1171875 502.8128125 -223.1171875 502.1328125 C-224.1071875 501.8028125 -225.0971875 501.4728125 -226.1171875 501.1328125 C-225.7871875 500.8028125 -225.4571875 500.4728125 -225.1171875 500.1328125 C-227.0971875 499.4728125 -229.0771875 498.8128125 -231.1171875 498.1328125 C-231.1171875 497.4728125 -231.1171875 496.8128125 -231.1171875 496.1328125 C-231.96023437 496.08382813 -232.80328125 496.03484375 -233.671875 495.984375 C-234.76757812 495.90960937 -235.86328125 495.83484375 -236.9921875 495.7578125 C-238.08273438 495.68820312 -239.17328125 495.61859375 -240.296875 495.546875 C-243.1171875 495.1328125 -243.1171875 495.1328125 -245.1171875 493.1328125 C-247.26549674 492.40917149 -249.43604676 491.75048067 -251.6171875 491.1328125 C-257.89496528 489.35503472 -257.89496528 489.35503472 -260.1171875 487.1328125 C-262.10540063 486.73516987 -264.10663089 486.39505901 -266.1171875 486.1328125 C-266.1171875 485.4728125 -266.1171875 484.8128125 -266.1171875 484.1328125 C-267.1071875 484.4628125 -268.0971875 484.7928125 -269.1171875 485.1328125 C-269.1171875 485.7928125 -269.1171875 486.4528125 -269.1171875 487.1328125 C-276.46878113 486.53022286 -276.46878113 486.53022286 -279.0546875 484.9453125 C-280.5324532 482.42441806 -280.79746096 480.0103514 -281.1171875 477.1328125 C-283.0971875 477.1328125 -285.0771875 477.1328125 -287.1171875 477.1328125 C-287.1171875 476.4728125 -287.1171875 475.8128125 -287.1171875 475.1328125 C-288.4371875 475.1328125 -289.7571875 475.1328125 -291.1171875 475.1328125 C-291.1171875 475.7928125 -291.1171875 476.4528125 -291.1171875 477.1328125 C-291.7771875 477.1328125 -292.4371875 477.1328125 -293.1171875 477.1328125 C-293.1171875 476.4728125 -293.1171875 475.8128125 -293.1171875 475.1328125 C-294.7671875 474.8028125 -296.4171875 474.4728125 -298.1171875 474.1328125 C-298.1171875 473.1428125 -298.1171875 472.1528125 -298.1171875 471.1328125 C-299.1071875 471.1328125 -300.0971875 471.1328125 -301.1171875 471.1328125 C-301.1171875 470.1428125 -301.1171875 469.1528125 -301.1171875 468.1328125 C-302.1484375 468.5246875 -303.1796875 468.9165625 -304.2421875 469.3203125 C-308.78779005 470.27342271 -310.280944 469.56555228 -314.1171875 467.1328125 C-314.1171875 466.1428125 -314.1171875 465.1528125 -314.1171875 464.1328125 C-316.4271875 463.8028125 -318.7371875 463.4728125 -321.1171875 463.1328125 C-321.4471875 461.1528125 -321.7771875 459.1728125 -322.1171875 457.1328125 C-323.1071875 457.1328125 -324.0971875 457.1328125 -325.1171875 457.1328125 C-325.1171875 457.7928125 -325.1171875 458.4528125 -325.1171875 459.1328125 C-326.1071875 459.1328125 -327.0971875 459.1328125 -328.1171875 459.1328125 C-328.1171875 458.1428125 -328.1171875 457.1528125 -328.1171875 456.1328125 C-329.7671875 456.4628125 -331.4171875 456.7928125 -333.1171875 457.1328125 C-333.1171875 456.4728125 -333.1171875 455.8128125 -333.1171875 455.1328125 C-332.4571875 455.1328125 -331.7971875 455.1328125 -331.1171875 455.1328125 C-331.1171875 454.4728125 -331.1171875 453.8128125 -331.1171875 453.1328125 C-331.7771875 453.1328125 -332.4371875 453.1328125 -333.1171875 453.1328125 C-333.1171875 452.4728125 -333.1171875 451.8128125 -333.1171875 451.1328125 C-334.4371875 451.1328125 -335.7571875 451.1328125 -337.1171875 451.1328125 C-337.1171875 451.7928125 -337.1171875 452.4528125 -337.1171875 453.1328125 C-338.7671875 453.1328125 -340.4171875 453.1328125 -342.1171875 453.1328125 C-342.1171875 452.1428125 -342.1171875 451.1528125 -342.1171875 450.1328125 C-343.1071875 450.1328125 -344.0971875 450.1328125 -345.1171875 450.1328125 C-345.1171875 449.4728125 -345.1171875 448.8128125 -345.1171875 448.1328125 C-346.1071875 448.1328125 -347.0971875 448.1328125 -348.1171875 448.1328125 C-348.1171875 446.4828125 -348.1171875 444.8328125 -348.1171875 443.1328125 C-350.0971875 443.1328125 -352.0771875 443.1328125 -354.1171875 443.1328125 C-354.1171875 442.4728125 -354.1171875 441.8128125 -354.1171875 441.1328125 C-355.1071875 441.1328125 -356.0971875 441.1328125 -357.1171875 441.1328125 C-357.4471875 439.4828125 -357.7771875 437.8328125 -358.1171875 436.1328125 C-358.1171875 436.7928125 -358.1171875 437.4528125 -358.1171875 438.1328125 C-359.4371875 438.1328125 -360.7571875 438.1328125 -362.1171875 438.1328125 C-362.1171875 437.4728125 -362.1171875 436.8128125 -362.1171875 436.1328125 C-362.8803125 435.8646875 -363.6434375 435.5965625 -364.4296875 435.3203125 C-366.99099634 434.18857138 -368.31411688 433.22057849 -370.1171875 431.1328125 C-369.7871875 430.4728125 -369.4571875 429.8128125 -369.1171875 429.1328125 C-370.1071875 429.1328125 -371.0971875 429.1328125 -372.1171875 429.1328125 C-372.1171875 427.8128125 -372.1171875 426.4928125 -372.1171875 425.1328125 C-373.1071875 424.8028125 -374.0971875 424.4728125 -375.1171875 424.1328125 C-375.1171875 423.4728125 -375.1171875 422.8128125 -375.1171875 422.1328125 C-375.7771875 422.1328125 -376.4371875 422.1328125 -377.1171875 422.1328125 C-377.1171875 422.7928125 -377.1171875 423.4528125 -377.1171875 424.1328125 C-383.44779918 421.96231707 -387.05522298 418.31531895 -391.1171875 413.1328125 C-391.7771875 412.8028125 -392.4371875 412.4728125 -393.1171875 412.1328125 C-393.1171875 411.4728125 -393.1171875 410.8128125 -393.1171875 410.1328125 C-394.1071875 409.8028125 -395.0971875 409.4728125 -396.1171875 409.1328125 C-396.1171875 408.4728125 -396.1171875 407.8128125 -396.1171875 407.1328125 C-397.1071875 406.8028125 -398.0971875 406.4728125 -399.1171875 406.1328125 C-399.1171875 404.4828125 -399.1171875 402.8328125 -399.1171875 401.1328125 C-400.1071875 400.8028125 -401.0971875 400.4728125 -402.1171875 400.1328125 C-402.1171875 399.4728125 -402.1171875 398.8128125 -402.1171875 398.1328125 C-403.1071875 398.4628125 -404.0971875 398.7928125 -405.1171875 399.1328125 C-404.7871875 397.8128125 -404.4571875 396.4928125 -404.1171875 395.1328125 C-405.4371875 395.4628125 -406.7571875 395.7928125 -408.1171875 396.1328125 C-408.1171875 394.8128125 -408.1171875 393.4928125 -408.1171875 392.1328125 C-409.7671875 391.4728125 -411.4171875 390.8128125 -413.1171875 390.1328125 C-413.1171875 389.4728125 -413.1171875 388.8128125 -413.1171875 388.1328125 C-412.4571875 388.1328125 -411.7971875 388.1328125 -411.1171875 388.1328125 C-411.1171875 387.4728125 -411.1171875 386.8128125 -411.1171875 386.1328125 C-412.7671875 385.8028125 -414.4171875 385.4728125 -416.1171875 385.1328125 C-416.4471875 383.4828125 -416.7771875 381.8328125 -417.1171875 380.1328125 C-418.1071875 380.4628125 -419.0971875 380.7928125 -420.1171875 381.1328125 C-419.7871875 379.8128125 -419.4571875 378.4928125 -419.1171875 377.1328125 C-420.1071875 377.1328125 -421.0971875 377.1328125 -422.1171875 377.1328125 C-422.6121875 375.6478125 -422.6121875 375.6478125 -423.1171875 374.1328125 C-423.7771875 374.1328125 -424.4371875 374.1328125 -425.1171875 374.1328125 C-425.1171875 373.4728125 -425.1171875 372.8128125 -425.1171875 372.1328125 C-425.7771875 371.8028125 -426.4371875 371.4728125 -427.1171875 371.1328125 C-427.1171875 370.1428125 -427.1171875 369.1528125 -427.1171875 368.1328125 C-428.4371875 367.8028125 -429.7571875 367.4728125 -431.1171875 367.1328125 C-431.6121875 365.1528125 -431.6121875 365.1528125 -432.1171875 363.1328125 C-432.7771875 363.1328125 -433.4371875 363.1328125 -434.1171875 363.1328125 C-434.1171875 362.4728125 -434.1171875 361.8128125 -434.1171875 361.1328125 C-433.4571875 361.1328125 -432.7971875 361.1328125 -432.1171875 361.1328125 C-432.4471875 360.4728125 -432.7771875 359.8128125 -433.1171875 359.1328125 C-433.7771875 359.1328125 -434.4371875 359.1328125 -435.1171875 359.1328125 C-434.7871875 357.1528125 -434.4571875 355.1728125 -434.1171875 353.1328125 C-435.4371875 353.4628125 -436.7571875 353.7928125 -438.1171875 354.1328125 C-437.7871875 352.1528125 -437.4571875 350.1728125 -437.1171875 348.1328125 C-438.4371875 348.7928125 -439.7571875 349.4528125 -441.1171875 350.1328125 C-441.1171875 348.8128125 -441.1171875 347.4928125 -441.1171875 346.1328125 C-441.7771875 346.1328125 -442.4371875 346.1328125 -443.1171875 346.1328125 C-443.2203125 345.2253125 -443.3234375 344.3178125 -443.4296875 343.3828125 C-444.12133699 340.11319675 -444.93853671 338.59563513 -447.1171875 336.1328125 C-446.7871875 335.4728125 -446.4571875 334.8128125 -446.1171875 334.1328125 C-445.4571875 334.4628125 -444.7971875 334.7928125 -444.1171875 335.1328125 C-444.1171875 333.1528125 -444.1171875 331.1728125 -444.1171875 329.1328125 C-445.1071875 329.1328125 -446.0971875 329.1328125 -447.1171875 329.1328125 C-447.4471875 326.4928125 -447.7771875 323.8528125 -448.1171875 321.1328125 C-448.7771875 321.1328125 -449.4371875 321.1328125 -450.1171875 321.1328125 C-450.0759375 320.0396875 -450.0346875 318.9465625 -449.9921875 317.8203125 C-449.79644084 314.04389021 -449.79644084 314.04389021 -452.1171875 311.1328125 C-452.3956604 309.02571106 -452.3956604 309.02571106 -452.43603516 306.56958008 C-452.45590485 305.64885208 -452.47577454 304.72812408 -452.49624634 303.77949524 C-452.50779755 302.78878525 -452.51934875 301.79807526 -452.53125 300.77734375 C-452.55061615 299.76057053 -452.5699823 298.7437973 -452.5899353 297.69621277 C-452.64975491 294.44599823 -452.69612626 291.19574833 -452.7421875 287.9453125 C-452.78036506 285.74282302 -452.81941666 283.54034851 -452.859375 281.33789062 C-452.95545833 275.93633067 -453.04049888 270.53468073 -453.1171875 265.1328125 C-453.7771875 265.1328125 -454.4371875 265.1328125 -455.1171875 265.1328125 C-454.86200279 262.86016746 -454.58749689 260.58968545 -454.3046875 258.3203125 C-454.15386719 257.05574219 -454.00304687 255.79117188 -453.84765625 254.48828125 C-453.13563539 251.21755439 -452.75110077 250.0739705 -450.1171875 248.1328125 C-449.7871875 249.4528125 -449.4571875 250.7728125 -449.1171875 252.1328125 C-449.7771875 252.1328125 -450.4371875 252.1328125 -451.1171875 252.1328125 C-451.1171875 255.1028125 -451.1171875 258.0728125 -451.1171875 261.1328125 C-450.4571875 261.1328125 -449.7971875 261.1328125 -449.1171875 261.1328125 C-449.1171875 258.4928125 -449.1171875 255.8528125 -449.1171875 253.1328125 C-448.4571875 253.1328125 -447.7971875 253.1328125 -447.1171875 253.1328125 C-447.1171875 250.1628125 -447.1171875 247.1928125 -447.1171875 244.1328125 C-447.7771875 244.1328125 -448.4371875 244.1328125 -449.1171875 244.1328125 C-449.1171875 243.1428125 -449.1171875 242.1528125 -449.1171875 241.1328125 C-447.4671875 241.1328125 -445.8171875 241.1328125 -444.1171875 241.1328125 C-444.1171875 240.1428125 -444.1171875 239.1528125 -444.1171875 238.1328125 C-444.7771875 238.1328125 -445.4371875 238.1328125 -446.1171875 238.1328125 C-446.1171875 237.1428125 -446.1171875 236.1528125 -446.1171875 235.1328125 C-445.4571875 235.1328125 -444.7971875 235.1328125 -444.1171875 235.1328125 C-444.1171875 235.7928125 -444.1171875 236.4528125 -444.1171875 237.1328125 C-443.1271875 237.1328125 -442.1371875 237.1328125 -441.1171875 237.1328125 C-441.2203125 235.9984375 -441.3234375 234.8640625 -441.4296875 233.6953125 C-441.4105027 228.2180529 -438.96064813 224.66259345 -436.1171875 220.1328125 C-434.86083569 218.01156166 -433.61101797 215.8864296 -432.3671875 213.7578125 C-431.47773438 212.26121094 -431.47773438 212.26121094 -430.5703125 210.734375 C-429.01722958 208.14383977 -429.01722958 208.14383977 -428.1171875 205.1328125 C-427.4571875 204.8028125 -426.7971875 204.4728125 -426.1171875 204.1328125 C-425.39559326 202.48918116 -424.72367329 200.82230864 -424.1171875 199.1328125 C-423.4571875 199.1328125 -422.7971875 199.1328125 -422.1171875 199.1328125 C-421.9934375 198.3903125 -421.8696875 197.6478125 -421.7421875 196.8828125 C-421.16232049 194.33139765 -420.38010011 192.4060552 -419.1171875 190.1328125 C-418.4571875 190.1328125 -417.7971875 190.1328125 -417.1171875 190.1328125 C-417.1171875 188.1528125 -417.1171875 186.1728125 -417.1171875 184.1328125 C-416.1271875 184.4628125 -415.1371875 184.7928125 -414.1171875 185.1328125 C-414.1171875 183.8128125 -414.1171875 182.4928125 -414.1171875 181.1328125 C-413.1271875 181.1328125 -412.1371875 181.1328125 -411.1171875 181.1328125 C-411.4471875 179.1528125 -411.7771875 177.1728125 -412.1171875 175.1328125 C-411.4571875 175.1328125 -410.7971875 175.1328125 -410.1171875 175.1328125 C-410.1171875 174.4728125 -410.1171875 173.8128125 -410.1171875 173.1328125 C-408.8046875 171.5078125 -408.8046875 171.5078125 -407.1171875 170.1328125 C-406.1271875 170.1328125 -405.1371875 170.1328125 -404.1171875 170.1328125 C-404.4471875 168.1528125 -404.7771875 166.1728125 -405.1171875 164.1328125 C-404.1271875 163.8028125 -403.1371875 163.4728125 -402.1171875 163.1328125 C-402.1171875 162.1428125 -402.1171875 161.1528125 -402.1171875 160.1328125 C-401.4571875 160.1328125 -400.7971875 160.1328125 -400.1171875 160.1328125 C-399.7871875 159.1428125 -399.4571875 158.1528125 -399.1171875 157.1328125 C-398.1271875 157.1328125 -397.1371875 157.1328125 -396.1171875 157.1328125 C-396.4471875 155.1528125 -396.7771875 153.1728125 -397.1171875 151.1328125 C-395.7971875 151.4628125 -394.4771875 151.7928125 -393.1171875 152.1328125 C-392.7871875 149.8228125 -392.4571875 147.5128125 -392.1171875 145.1328125 C-391.4571875 145.1328125 -390.7971875 145.1328125 -390.1171875 145.1328125 C-390.0346875 144.3696875 -389.9521875 143.6065625 -389.8671875 142.8203125 C-389.1171875 140.1328125 -389.1171875 140.1328125 -387.1171875 138.6953125 C-384.78400042 137.20857423 -384.78400042 137.20857423 -384.3671875 133.9453125 C-384.2846875 133.0171875 -384.2021875 132.0890625 -384.1171875 131.1328125 C-383.4571875 131.1328125 -382.7971875 131.1328125 -382.1171875 131.1328125 C-381.7871875 129.8128125 -381.4571875 128.4928125 -381.1171875 127.1328125 C-379.6321875 127.6278125 -379.6321875 127.6278125 -378.1171875 128.1328125 C-378.7771875 126.8128125 -379.4371875 125.4928125 -380.1171875 124.1328125 C-379.4571875 123.4728125 -378.7971875 122.8128125 -378.1171875 122.1328125 C-377.6221875 120.6478125 -377.6221875 120.6478125 -377.1171875 119.1328125 C-375.7971875 119.1328125 -374.4771875 119.1328125 -373.1171875 119.1328125 C-373.7771875 117.4828125 -374.4371875 115.8328125 -375.1171875 114.1328125 C-374.4571875 113.8028125 -373.7971875 113.4728125 -373.1171875 113.1328125 C-372.45946322 110.10346759 -372.45946322 110.10346759 -372.1171875 107.1328125 C-371.4571875 107.1328125 -370.7971875 107.1328125 -370.1171875 107.1328125 C-369.7871875 105.4828125 -369.4571875 103.8328125 -369.1171875 102.1328125 C-368.4571875 102.1328125 -367.7971875 102.1328125 -367.1171875 102.1328125 C-366.6221875 100.6478125 -366.6221875 100.6478125 -366.1171875 99.1328125 C-366.1171875 99.7928125 -366.1171875 100.4528125 -366.1171875 101.1328125 C-365.4571875 101.1328125 -364.7971875 101.1328125 -364.1171875 101.1328125 C-364.1996875 100.3903125 -364.2821875 99.6478125 -364.3671875 98.8828125 C-364.1171875 96.1328125 -364.1171875 96.1328125 -362.2421875 93.8203125 C-360.1171875 92.1328125 -360.1171875 92.1328125 -358.1171875 92.1328125 C-357.7871875 90.4828125 -357.4571875 88.8328125 -357.1171875 87.1328125 C-355.4671875 86.8028125 -353.8171875 86.4728125 -352.1171875 86.1328125 C-351.6221875 84.6478125 -351.6221875 84.6478125 -351.1171875 83.1328125 C-350.4571875 83.1328125 -349.7971875 83.1328125 -349.1171875 83.1328125 C-348.6221875 81.6478125 -348.6221875 81.6478125 -348.1171875 80.1328125 C-347.4571875 80.1328125 -346.7971875 80.1328125 -346.1171875 80.1328125 C-346.1171875 79.4728125 -346.1171875 78.8128125 -346.1171875 78.1328125 C-345.1271875 77.8028125 -344.1371875 77.4728125 -343.1171875 77.1328125 C-341.9725 75.9571875 -341.9725 75.9571875 -340.8046875 74.7578125 C-337.11294789 71.1519273 -333.18806045 69.10798037 -328.1171875 68.1328125 C-328.1171875 67.4728125 -328.1171875 66.8128125 -328.1171875 66.1328125 C-311.74825546 57.1328125 -311.74825546 57.1328125 -308.1171875 57.1328125 C-308.1171875 56.4728125 -308.1171875 55.8128125 -308.1171875 55.1328125 C-305.1471875 54.6378125 -305.1471875 54.6378125 -302.1171875 54.1328125 C-302.1171875 53.4728125 -302.1171875 52.8128125 -302.1171875 52.1328125 C-298.6521875 51.6378125 -298.6521875 51.6378125 -295.1171875 51.1328125 C-295.1171875 50.4728125 -295.1171875 49.8128125 -295.1171875 49.1328125 C-292.4771875 48.8028125 -289.8371875 48.4728125 -287.1171875 48.1328125 C-287.1171875 47.4728125 -287.1171875 46.8128125 -287.1171875 46.1328125 C-283.6521875 45.6378125 -283.6521875 45.6378125 -280.1171875 45.1328125 C-280.1171875 44.4728125 -280.1171875 43.8128125 -280.1171875 43.1328125 C-277.4771875 42.8028125 -274.8371875 42.4728125 -272.1171875 42.1328125 C-272.1171875 41.4728125 -272.1171875 40.8128125 -272.1171875 40.1328125 C-267.6621875 39.6378125 -267.6621875 39.6378125 -263.1171875 39.1328125 C-263.1171875 38.4728125 -263.1171875 37.8128125 -263.1171875 37.1328125 C-259.4871875 36.8028125 -255.8571875 36.4728125 -252.1171875 36.1328125 C-252.1171875 35.4728125 -252.1171875 34.8128125 -252.1171875 34.1328125 C-247.6621875 33.6378125 -247.6621875 33.6378125 -243.1171875 33.1328125 C-243.1171875 32.4728125 -243.1171875 31.8128125 -243.1171875 31.1328125 C-239.8171875 30.8028125 -236.5171875 30.4728125 -233.1171875 30.1328125 C-233.1171875 29.4728125 -233.1171875 28.8128125 -233.1171875 28.1328125 C-228.4971875 27.8028125 -223.8771875 27.4728125 -219.1171875 27.1328125 C-219.1171875 26.4728125 -219.1171875 25.8128125 -219.1171875 25.1328125 C-215.1571875 24.8028125 -211.1971875 24.4728125 -207.1171875 24.1328125 C-207.1171875 23.4728125 -207.1171875 22.8128125 -207.1171875 22.1328125 C-202.8271875 21.8028125 -198.5371875 21.4728125 -194.1171875 21.1328125 C-194.1171875 20.4728125 -194.1171875 19.8128125 -194.1171875 19.1328125 C-188.39678739 18.3007543 -182.89478634 18.01244586 -177.1171875 18.1328125 C-177.1171875 17.4728125 -177.1171875 16.8128125 -177.1171875 16.1328125 C-171.39678739 15.3007543 -165.89478634 15.01244586 -160.1171875 15.1328125 C-160.1171875 14.4728125 -160.1171875 13.8128125 -160.1171875 13.1328125 C-153.73491805 12.30929386 -147.54974151 12.01195032 -141.1171875 12.1328125 C-141.1171875 11.4728125 -141.1171875 10.8128125 -141.1171875 10.1328125 C-133.43114276 9.16121317 -125.85855351 9.02360828 -118.1171875 9.1328125 C-118.1171875 8.4728125 -118.1171875 7.8128125 -118.1171875 7.1328125 C-109.07997439 6.19038432 -100.19167003 6.02124099 -91.1171875 6.1328125 C-91.1171875 5.4728125 -91.1171875 4.8128125 -91.1171875 4.1328125 C-79.09900173 3.27107319 -67.16472671 3.01379181 -55.1171875 3.1328125 C-55.1171875 2.4728125 -55.1171875 1.8128125 -55.1171875 1.1328125 C-36.73694668 0.27628967 -18.39852254 -0.01647544 0 0 Z M-444.1171875 336.1328125 C-443.1171875 338.1328125 -443.1171875 338.1328125 -443.1171875 338.1328125 Z M-432.1171875 362.1328125 C-430.6321875 363.1228125 -430.6321875 363.1228125 -429.1171875 364.1328125 C-429.1171875 363.4728125 -429.1171875 362.8128125 -429.1171875 362.1328125 C-430.1071875 362.1328125 -431.0971875 362.1328125 -432.1171875 362.1328125 Z M480.8828125 392.1328125 C480.8828125 392.7928125 480.8828125 393.4528125 480.8828125 394.1328125 C481.5428125 394.1328125 482.2028125 394.1328125 482.8828125 394.1328125 C482.8828125 393.4728125 482.8828125 392.8128125 482.8828125 392.1328125 C482.2228125 392.1328125 481.5628125 392.1328125 480.8828125 392.1328125 Z M-381.1171875 419.1328125 C-380.1271875 420.6178125 -380.1271875 420.6178125 -379.1171875 422.1328125 C-378.7871875 421.1428125 -378.4571875 420.1528125 -378.1171875 419.1328125 C-379.1071875 419.1328125 -380.0971875 419.1328125 -381.1171875 419.1328125 Z M-366.1171875 430.1328125 C-365.7871875 430.7928125 -365.4571875 431.4528125 -365.1171875 432.1328125 C-364.4571875 432.1328125 -363.7971875 432.1328125 -363.1171875 432.1328125 C-363.1171875 431.4728125 -363.1171875 430.8128125 -363.1171875 430.1328125 C-364.1071875 430.1328125 -365.0971875 430.1328125 -366.1171875 430.1328125 Z M-363.1171875 433.1328125 C-361.6321875 434.1228125 -361.6321875 434.1228125 -360.1171875 435.1328125 C-360.1171875 434.4728125 -360.1171875 433.8128125 -360.1171875 433.1328125 C-361.1071875 433.1328125 -362.0971875 433.1328125 -363.1171875 433.1328125 Z M-354.1171875 439.1328125 C-352.6321875 440.1228125 -352.6321875 440.1228125 -351.1171875 441.1328125 C-351.1171875 440.4728125 -351.1171875 439.8128125 -351.1171875 439.1328125 C-352.1071875 439.1328125 -353.0971875 439.1328125 -354.1171875 439.1328125 Z M-318.1171875 462.1328125 C-318.1171875 462.4628125 -318.1171875 462.7928125 -318.1171875 463.1328125 C-316.4671875 463.1328125 -314.8171875 463.1328125 -313.1171875 463.1328125 C-313.1171875 462.8028125 -313.1171875 462.4728125 -313.1171875 462.1328125 C-314.7671875 462.1328125 -316.4171875 462.1328125 -318.1171875 462.1328125 Z M-313.1171875 463.1328125 C-313.1171875 463.7928125 -313.1171875 464.4528125 -313.1171875 465.1328125 C-312.1271875 465.1328125 -311.1371875 465.1328125 -310.1171875 465.1328125 C-310.1171875 464.4728125 -310.1171875 463.8128125 -310.1171875 463.1328125 C-311.1071875 463.1328125 -312.0971875 463.1328125 -313.1171875 463.1328125 Z M-309.1171875 466.1328125 C-309.1171875 466.7928125 -309.1171875 467.4528125 -309.1171875 468.1328125 C-308.1271875 467.8028125 -307.1371875 467.4728125 -306.1171875 467.1328125 C-307.1071875 466.8028125 -308.0971875 466.4728125 -309.1171875 466.1328125 Z M-295.1171875 472.1328125 C-295.1171875 472.7928125 -295.1171875 473.4528125 -295.1171875 474.1328125 C-294.1271875 474.1328125 -293.1371875 474.1328125 -292.1171875 474.1328125 C-292.1171875 473.4728125 -292.1171875 472.8128125 -292.1171875 472.1328125 C-293.1071875 472.1328125 -294.0971875 472.1328125 -295.1171875 472.1328125 Z M-223.1171875 501.1328125 C-220.44076261 503.31771257 -220.44076261 503.31771257 -218.1171875 503.1328125 C-218.1171875 502.4728125 -218.1171875 501.8128125 -218.1171875 501.1328125 C-219.7671875 501.1328125 -221.4171875 501.1328125 -223.1171875 501.1328125 Z " fill="#1F1E2A" transform="translate(477.1171875,482.8671875)"/>
<path d="M0 0 C2.72071366 -0.00022484 5.44142654 -0.001649 8.16213989 -0.00289917 C13.82115173 -0.0046985 19.48015035 -0.00237488 25.13916016 0.00244141 C31.59546753 0.00787431 38.05174324 0.00611922 44.50804985 0.000615 C50.14123957 -0.0039874 55.77442001 -0.00453241 61.40761101 -0.00194633 C64.73254291 -0.0004213 68.05744877 -0.00050008 71.38238144 -0.00348282 C89.23908477 -0.01599279 107.04260921 0.37233255 124.8828125 1.1328125 C124.8828125 1.7928125 124.8828125 2.4528125 124.8828125 3.1328125 C126.08035156 3.12121094 127.27789063 3.10960937 128.51171875 3.09765625 C138.68949561 3.03049698 148.73810854 3.28362951 158.8828125 4.1328125 C158.8828125 4.7928125 158.8828125 5.4528125 158.8828125 6.1328125 C159.80320312 6.12121094 160.72359375 6.10960937 161.671875 6.09765625 C170.46953757 6.03494379 179.1112022 6.37594012 187.8828125 7.1328125 C187.8828125 7.7928125 187.8828125 8.4528125 187.8828125 9.1328125 C188.62144531 9.12121094 189.36007812 9.10960937 190.12109375 9.09765625 C197.10735098 9.03551673 203.9390888 9.36736264 210.8828125 10.1328125 C210.8828125 10.7928125 210.8828125 11.4528125 210.8828125 12.1328125 C211.50027344 12.12121094 212.11773438 12.10960937 212.75390625 12.09765625 C218.55806794 12.03581587 224.12619338 12.39002294 229.8828125 13.1328125 C229.8828125 13.7928125 229.8828125 14.4528125 229.8828125 15.1328125 C235.4928125 15.4628125 241.1028125 15.7928125 246.8828125 16.1328125 C246.8828125 16.7928125 246.8828125 17.4528125 246.8828125 18.1328125 C251.8328125 18.4628125 256.7828125 18.7928125 261.8828125 19.1328125 C261.8828125 19.7928125 261.8828125 20.4528125 261.8828125 21.1328125 C262.46289062 21.12121094 263.04296875 21.10960937 263.640625 21.09765625 C268.1826371 21.04519076 272.40994819 21.21530187 276.8828125 22.1328125 C276.8828125 22.7928125 276.8828125 23.4528125 276.8828125 24.1328125 C280.8428125 24.4628125 284.8028125 24.7928125 288.8828125 25.1328125 C288.8828125 25.7928125 288.8828125 26.4528125 288.8828125 27.1328125 C290.0790625 27.1121875 291.2753125 27.0915625 292.5078125 27.0703125 C296.06286119 27.06398679 299.38836874 27.43392375 302.8828125 28.1328125 C302.8828125 28.7928125 302.8828125 29.4528125 302.8828125 30.1328125 C306.1828125 30.4628125 309.4828125 30.7928125 312.8828125 31.1328125 C312.8828125 31.7928125 312.8828125 32.4528125 312.8828125 33.1328125 C316.5128125 33.4628125 320.1428125 33.7928125 323.8828125 34.1328125 C323.8828125 34.7928125 323.8828125 35.4528125 323.8828125 36.1328125 C326.8528125 36.4628125 329.8228125 36.7928125 332.8828125 37.1328125 C332.8828125 37.7928125 332.8828125 38.4528125 332.8828125 39.1328125 C335.8528125 39.4628125 338.8228125 39.7928125 341.8828125 40.1328125 C341.8828125 40.7928125 341.8828125 41.4528125 341.8828125 42.1328125 C344.8528125 42.4628125 347.8228125 42.7928125 350.8828125 43.1328125 C350.8828125 43.7928125 350.8828125 44.4528125 350.8828125 45.1328125 C354.8428125 45.6278125 354.8428125 45.6278125 358.8828125 46.1328125 C358.8828125 46.7928125 358.8828125 47.4528125 358.8828125 48.1328125 C361.1928125 48.4628125 363.5028125 48.7928125 365.8828125 49.1328125 C365.8828125 49.7928125 365.8828125 50.4528125 365.8828125 51.1328125 C367.8628125 51.4628125 369.8428125 51.7928125 371.8828125 52.1328125 C371.8828125 52.7928125 371.8828125 53.4528125 371.8828125 54.1328125 C373.4915625 54.3184375 373.4915625 54.3184375 375.1328125 54.5078125 C378.26144865 55.02925186 380.21761674 55.53369504 382.8828125 57.1328125 C382.8828125 57.7928125 382.8828125 58.4528125 382.8828125 59.1328125 C384.8628125 59.4628125 386.8428125 59.7928125 388.8828125 60.1328125 C388.8828125 60.7928125 388.8828125 61.4528125 388.8828125 62.1328125 C389.8521875 62.2565625 390.8215625 62.3803125 391.8203125 62.5078125 C392.8309375 62.7140625 393.8415625 62.9203125 394.8828125 63.1328125 C395.2128125 63.7928125 395.5428125 64.4528125 395.8828125 65.1328125 C398.35350239 66.47442367 400.88856626 67.6311149 403.4375 68.81640625 C405.74802529 70.06025134 407.07706989 71.28103112 408.8828125 73.1328125 C411.98288451 74.33330657 411.98288451 74.33330657 414.8828125 75.1328125 C414.8828125 76.1228125 414.8828125 77.1128125 414.8828125 78.1328125 C415.8728125 78.1328125 416.8628125 78.1328125 417.8828125 78.1328125 C419.5703125 79.5078125 419.5703125 79.5078125 420.8828125 81.1328125 C420.8828125 81.7928125 420.8828125 82.4528125 420.8828125 83.1328125 C421.8728125 83.1328125 422.8628125 83.1328125 423.8828125 83.1328125 C424.2128125 84.1228125 424.5428125 85.1128125 424.8828125 86.1328125 C426.88402425 88.49788093 427.85080911 89.1221447 430.8828125 90.1328125 C430.8828125 90.7928125 430.8828125 91.4528125 430.8828125 92.1328125 C431.5428125 92.1328125 432.2028125 92.1328125 432.8828125 92.1328125 C432.8828125 93.1228125 432.8828125 94.1128125 432.8828125 95.1328125 C433.8728125 95.1328125 434.8628125 95.1328125 435.8828125 95.1328125 C435.8828125 96.4528125 435.8828125 97.7728125 435.8828125 99.1328125 C436.8728125 99.1328125 437.8628125 99.1328125 438.8828125 99.1328125 C439.5428125 101.7728125 440.2028125 104.4128125 440.8828125 107.1328125 C441.5428125 107.1328125 442.2028125 107.1328125 442.8828125 107.1328125 C442.8828125 108.4528125 442.8828125 109.7728125 442.8828125 111.1328125 C443.40488281 112.94265625 443.40488281 112.94265625 443.9375 114.7890625 C445.19504689 119.57084574 444.69412129 123.78920792 444.0078125 128.6328125 C443.90339844 129.45523438 443.79898438 130.27765625 443.69140625 131.125 C443.43503823 133.1293318 443.16079153 135.13136347 442.8828125 137.1328125 C442.2228125 137.1328125 441.5628125 137.1328125 440.8828125 137.1328125 C440.7796875 137.9990625 440.6765625 138.8653125 440.5703125 139.7578125 C439.53357797 144.84723654 437.33346682 149.23207284 433.8828125 153.1328125 C433.2228125 153.1328125 432.5628125 153.1328125 431.8828125 153.1328125 C431.5528125 154.4528125 431.2228125 155.7728125 430.8828125 157.1328125 C430.2228125 157.1328125 429.5628125 157.1328125 428.8828125 157.1328125 C428.6353125 157.7103125 428.3878125 158.2878125 428.1328125 158.8828125 C426.69981262 161.46221229 425.09856574 163.19402842 422.8828125 165.1328125 C422.2228125 165.1328125 421.5628125 165.1328125 420.8828125 165.1328125 C420.8828125 165.7928125 420.8828125 166.4528125 420.8828125 167.1328125 C419.5628125 167.4628125 418.2428125 167.7928125 416.8828125 168.1328125 C416.8828125 168.7928125 416.8828125 169.4528125 416.8828125 170.1328125 C413.49886671 173.21817484 409.95189994 175.09826878 405.8828125 177.1328125 C405.5528125 177.7928125 405.2228125 178.4528125 404.8828125 179.1328125 C403.24609375 180.09765625 403.24609375 180.09765625 401.1953125 181.0703125 C400.4734375 181.41835938 399.7515625 181.76640625 399.0078125 182.125 C398.3065625 182.45757813 397.6053125 182.79015625 396.8828125 183.1328125 C393.8904202 184.59967147 391.01790782 186.04798521 388.1953125 187.8203125 C385.8828125 189.1328125 385.8828125 189.1328125 382.8828125 189.1328125 C382.8828125 189.7928125 382.8828125 190.4528125 382.8828125 191.1328125 C381.28131364 191.80586268 379.67650221 192.47103477 378.0703125 193.1328125 C376.73033203 193.6896875 376.73033203 193.6896875 375.36328125 194.2578125 C372.8828125 195.1328125 372.8828125 195.1328125 369.8828125 195.1328125 C369.8828125 195.7928125 369.8828125 196.4528125 369.8828125 197.1328125 C364.90919596 198.89015701 360.1412127 200.45865863 354.8828125 201.1328125 C354.8828125 201.7928125 354.8828125 202.4528125 354.8828125 203.1328125 C353.4596875 203.5040625 353.4596875 203.5040625 352.0078125 203.8828125 C347.93100595 205.02863593 344.09889709 206.65217128 340.21484375 208.328125 C337.8828125 209.1328125 337.8828125 209.1328125 333.8828125 209.1328125 C333.8828125 209.7928125 333.8828125 210.4528125 333.8828125 211.1328125 C328.80804456 212.39586585 324.15484896 213.40317334 318.8828125 213.1328125 C318.8828125 213.7928125 318.8828125 214.4528125 318.8828125 215.1328125 C315.21833818 216.78082106 312.07077784 217.46862223 308.0703125 217.7578125 C306.60658203 217.86996094 306.60658203 217.86996094 305.11328125 217.984375 C304.37722656 218.03335938 303.64117188 218.08234375 302.8828125 218.1328125 C302.8828125 218.7928125 302.8828125 219.4528125 302.8828125 220.1328125 C298.9228125 220.4628125 294.9628125 220.7928125 290.8828125 221.1328125 C290.8828125 221.7928125 290.8828125 222.4528125 290.8828125 223.1328125 C290.31361084 223.20798096 289.74440918 223.28314941 289.15795898 223.3605957 C286.54389936 223.71180936 283.93221874 224.07844097 281.3203125 224.4453125 C280.42505859 224.56326172 279.52980469 224.68121094 278.60742188 224.80273438 C274.48778299 225.39125422 271.10627963 226.03649046 267.2578125 227.6953125 C263.20455951 229.42169803 259.79815195 229.68092606 255.4453125 229.8203125 C254.71376953 229.85447266 253.98222656 229.88863281 253.22851562 229.92382812 C251.44711688 230.00533003 249.66499501 230.07076773 247.8828125 230.1328125 C247.8828125 230.7928125 247.8828125 231.4528125 247.8828125 232.1328125 C242.16241239 232.9648707 236.66041134 233.25317914 230.8828125 233.1328125 C230.8828125 233.7928125 230.8828125 234.4528125 230.8828125 235.1328125 C224.18668054 235.9306495 217.62514669 236.26192103 210.8828125 236.1328125 C210.8828125 236.7928125 210.8828125 237.4528125 210.8828125 238.1328125 C210.19131104 238.18816162 209.49980957 238.24351074 208.78735352 238.30053711 C205.67294036 238.55244781 202.55914155 238.81128601 199.4453125 239.0703125 C198.35669922 239.15732422 197.26808594 239.24433594 196.14648438 239.33398438 C194.59477539 239.46450195 194.59477539 239.46450195 193.01171875 239.59765625 C191.57421265 239.71548462 191.57421265 239.71548462 190.10766602 239.83569336 C187.91371361 239.89948321 187.91371361 239.89948321 186.8828125 241.1328125 C184.97112415 241.34923005 183.05241003 241.50422702 181.1328125 241.6328125 C179.9675 241.7153125 178.8021875 241.7978125 177.6015625 241.8828125 C175.12239583 242.04947917 172.64322917 242.21614583 170.1640625 242.3828125 C168.99875 242.4653125 167.8334375 242.5478125 166.6328125 242.6328125 C165.55515625 242.705 164.4775 242.7771875 163.3671875 242.8515625 C160.94326285 242.86466982 160.94326285 242.86466982 159.8828125 244.1328125 C157.47957368 244.38269998 155.10608938 244.56320399 152.6953125 244.6953125 C151.95804932 244.737771 151.22078613 244.78022949 150.46118164 244.82397461 C140.60895263 245.32893056 130.74438091 245.22225047 120.8828125 245.1328125 C120.8828125 245.7928125 120.8828125 246.4528125 120.8828125 247.1328125 C95.64813237 248.38831804 70.40444759 248.28729631 45.14550781 248.26318359 C39.09822598 248.25748686 33.0509882 248.26086303 27.00370789 248.26663589 C-21.54290769 248.30570785 -21.54290769 248.30570785 -45.1171875 247.1328125 C-45.1171875 246.4728125 -45.1171875 245.8128125 -45.1171875 245.1328125 C-45.6747876 245.13804932 -46.2323877 245.14328613 -46.80688477 245.14868164 C-78.56993186 245.40644032 -78.56993186 245.40644032 -83.1171875 243.1328125 C-84.88084439 242.92322588 -86.65071109 242.76468576 -88.421875 242.6328125 C-89.48019531 242.5503125 -90.53851563 242.4678125 -91.62890625 242.3828125 C-92.73878906 242.3003125 -93.84867187 242.2178125 -94.9921875 242.1328125 C-97.1773177 241.9692472 -99.36222725 241.80270005 -101.546875 241.6328125 C-102.51866699 241.560625 -103.49045898 241.4884375 -104.49169922 241.4140625 C-106.8077351 241.16596195 -108.867093 240.70044119 -111.1171875 240.1328125 C-112.92120269 239.92387774 -114.72926173 239.74847298 -116.5390625 239.59765625 C-118.07626953 239.46713867 -118.07626953 239.46713867 -119.64453125 239.33398438 C-121.23974609 239.2034668 -121.23974609 239.2034668 -122.8671875 239.0703125 C-123.94613281 238.97943359 -125.02507812 238.88855469 -126.13671875 238.79492188 C-128.79664498 238.57129976 -131.45678693 238.35070654 -134.1171875 238.1328125 C-134.1171875 237.4728125 -134.1171875 236.8128125 -134.1171875 236.1328125 C-134.80683594 236.14441406 -135.49648438 236.15601563 -136.20703125 236.16796875 C-142.27491402 236.22623374 -148.10076146 235.92185198 -154.1171875 235.1328125 C-154.1171875 234.4728125 -154.1171875 233.8128125 -154.1171875 233.1328125 C-154.6740625 233.14441406 -155.2309375 233.15601563 -155.8046875 233.16796875 C-161.01497093 233.22957683 -165.9609826 232.88280594 -171.1171875 232.1328125 C-171.1171875 231.4728125 -171.1171875 230.8128125 -171.1171875 230.1328125 C-176.3971875 229.8028125 -181.6771875 229.4728125 -187.1171875 229.1328125 C-187.1171875 228.4728125 -187.1171875 227.8128125 -187.1171875 227.1328125 C-192.0671875 226.8028125 -197.0171875 226.4728125 -202.1171875 226.1328125 C-202.1171875 225.4728125 -202.1171875 224.8128125 -202.1171875 224.1328125 C-206.0771875 223.8028125 -210.0371875 223.4728125 -214.1171875 223.1328125 C-214.1171875 222.4728125 -214.1171875 221.8128125 -214.1171875 221.1328125 C-215.3546875 221.1534375 -216.5921875 221.1740625 -217.8671875 221.1953125 C-220.78127 221.20047931 -223.32672077 221.06296808 -226.1171875 220.1328125 C-226.1171875 219.4728125 -226.1171875 218.8128125 -226.1171875 218.1328125 C-226.9834375 218.1740625 -227.8496875 218.2153125 -228.7421875 218.2578125 C-232.27585121 218.12693607 -234.80984959 217.32908366 -238.1171875 216.1328125 C-239.77806795 215.77175153 -241.44337731 215.42819077 -243.1171875 215.1328125 C-243.1171875 214.4728125 -243.1171875 213.8128125 -243.1171875 213.1328125 C-246.4171875 212.8028125 -249.7171875 212.4728125 -253.1171875 212.1328125 C-253.1171875 211.4728125 -253.1171875 210.8128125 -253.1171875 210.1328125 C-253.79265625 210.07222656 -254.468125 210.01164063 -255.1640625 209.94921875 C-256.05609375 209.86542969 -256.948125 209.78164063 -257.8671875 209.6953125 C-259.18976563 209.57349609 -259.18976563 209.57349609 -260.5390625 209.44921875 C-262.81069202 209.17042785 -264.91570573 208.74490673 -267.1171875 208.1328125 C-267.1171875 207.4728125 -267.1171875 206.8128125 -267.1171875 206.1328125 C-267.80554688 206.00777344 -268.49390625 205.88273438 -269.203125 205.75390625 C-272.44539085 205.06286031 -275.57104512 204.16123518 -278.7421875 203.1953125 C-279.86882812 202.85628906 -280.99546875 202.51726562 -282.15625 202.16796875 C-285.1171875 201.1328125 -285.1171875 201.1328125 -288.1171875 199.1328125 C-290.43827419 198.42468436 -292.77095897 197.75257098 -295.1171875 197.1328125 C-295.1171875 196.4728125 -295.1171875 195.8128125 -295.1171875 195.1328125 C-297.0353125 194.7925 -297.0353125 194.7925 -298.9921875 194.4453125 C-304.50387578 193.24483349 -309.19543909 190.82487531 -314.1171875 188.1328125 C-314.1171875 187.4728125 -314.1171875 186.8128125 -314.1171875 186.1328125 C-314.84035156 186.02710938 -315.56351563 185.92140625 -316.30859375 185.8125 C-319.36905928 185.07185883 -321.40449239 183.9408748 -324.0546875 182.2578125 C-327.6761517 180.00590053 -331.26529699 177.95739222 -335.1171875 176.1328125 C-335.1171875 175.4728125 -335.1171875 174.8128125 -335.1171875 174.1328125 C-335.9834375 173.978125 -335.9834375 173.978125 -336.8671875 173.8203125 C-339.47379908 173.02384785 -341.0907186 171.94215973 -343.1171875 170.1328125 C-343.1171875 169.4728125 -343.1171875 168.8128125 -343.1171875 168.1328125 C-343.6534375 167.9265625 -344.1896875 167.7203125 -344.7421875 167.5078125 C-347.56404237 165.87410705 -349.45459481 163.85695152 -351.65234375 161.47265625 C-353.19220418 159.88172551 -353.19220418 159.88172551 -356.1171875 159.1328125 C-356.1171875 158.4728125 -356.1171875 157.8128125 -356.1171875 157.1328125 C-356.7771875 157.1328125 -357.4371875 157.1328125 -358.1171875 157.1328125 C-358.7153125 156.0396875 -359.3134375 154.9465625 -359.9296875 153.8203125 C-361.13464967 151.68911607 -362.1266888 150.1233112 -363.8671875 148.3828125 C-364.4859375 147.7640625 -364.4859375 147.7640625 -365.1171875 147.1328125 C-365.1171875 146.1428125 -365.1171875 145.1528125 -365.1171875 144.1328125 C-365.7771875 144.1328125 -366.4371875 144.1328125 -367.1171875 144.1328125 C-368.2749381 140.65956069 -368.18585402 137.77213802 -368.1171875 134.1328125 C-368.7771875 134.1328125 -369.4371875 134.1328125 -370.1171875 134.1328125 C-371.13306728 131.08517316 -371.31523156 128.78562283 -371.43359375 125.58984375 C-371.47548828 124.51669922 -371.51738281 123.44355469 -371.56054688 122.33789062 C-371.59986328 121.21833984 -371.63917969 120.09878906 -371.6796875 118.9453125 C-371.72287109 117.81416016 -371.76605469 116.68300781 -371.81054688 115.51757812 C-371.91667849 112.72277896 -372.01873135 109.92789088 -372.1171875 107.1328125 C-371.4571875 107.1328125 -370.7971875 107.1328125 -370.1171875 107.1328125 C-369.7871875 105.4828125 -369.4571875 103.8328125 -369.1171875 102.1328125 C-368.4571875 102.1328125 -367.7971875 102.1328125 -367.1171875 102.1328125 C-366.7871875 101.1428125 -366.4571875 100.1528125 -366.1171875 99.1328125 C-366.1171875 99.7928125 -366.1171875 100.4528125 -366.1171875 101.1328125 C-365.4571875 101.1328125 -364.7971875 101.1328125 -364.1171875 101.1328125 C-364.1996875 100.3903125 -364.2821875 99.6478125 -364.3671875 98.8828125 C-364.1171875 96.1328125 -364.1171875 96.1328125 -362.2421875 93.8203125 C-360.1171875 92.1328125 -360.1171875 92.1328125 -358.1171875 92.1328125 C-357.7871875 90.4828125 -357.4571875 88.8328125 -357.1171875 87.1328125 C-354.6421875 86.6378125 -354.6421875 86.6378125 -352.1171875 86.1328125 C-351.6221875 84.6478125 -351.6221875 84.6478125 -351.1171875 83.1328125 C-350.4571875 83.1328125 -349.7971875 83.1328125 -349.1171875 83.1328125 C-348.6221875 81.6478125 -348.6221875 81.6478125 -348.1171875 80.1328125 C-347.4571875 80.1328125 -346.7971875 80.1328125 -346.1171875 80.1328125 C-346.1171875 79.4728125 -346.1171875 78.8128125 -346.1171875 78.1328125 C-344.6321875 77.6378125 -344.6321875 77.6378125 -343.1171875 77.1328125 C-341.9725 75.9571875 -341.9725 75.9571875 -340.8046875 74.7578125 C-337.11294789 71.1519273 -333.18806045 69.10798037 -328.1171875 68.1328125 C-328.1171875 67.4728125 -328.1171875 66.8128125 -328.1171875 66.1328125 C-311.74825546 57.1328125 -311.74825546 57.1328125 -308.1171875 57.1328125 C-308.1171875 56.4728125 -308.1171875 55.8128125 -308.1171875 55.1328125 C-306.1371875 54.8028125 -304.1571875 54.4728125 -302.1171875 54.1328125 C-302.1171875 53.4728125 -302.1171875 52.8128125 -302.1171875 52.1328125 C-298.6521875 51.6378125 -298.6521875 51.6378125 -295.1171875 51.1328125 C-295.1171875 50.4728125 -295.1171875 49.8128125 -295.1171875 49.1328125 C-292.4771875 48.8028125 -289.8371875 48.4728125 -287.1171875 48.1328125 C-287.1171875 47.4728125 -287.1171875 46.8128125 -287.1171875 46.1328125 C-283.6521875 45.6378125 -283.6521875 45.6378125 -280.1171875 45.1328125 C-280.1171875 44.4728125 -280.1171875 43.8128125 -280.1171875 43.1328125 C-277.4771875 42.8028125 -274.8371875 42.4728125 -272.1171875 42.1328125 C-272.1171875 41.4728125 -272.1171875 40.8128125 -272.1171875 40.1328125 C-267.6621875 39.6378125 -267.6621875 39.6378125 -263.1171875 39.1328125 C-263.1171875 38.4728125 -263.1171875 37.8128125 -263.1171875 37.1328125 C-259.4871875 36.8028125 -255.8571875 36.4728125 -252.1171875 36.1328125 C-252.1171875 35.4728125 -252.1171875 34.8128125 -252.1171875 34.1328125 C-247.6621875 33.6378125 -247.6621875 33.6378125 -243.1171875 33.1328125 C-243.1171875 32.4728125 -243.1171875 31.8128125 -243.1171875 31.1328125 C-239.8171875 30.8028125 -236.5171875 30.4728125 -233.1171875 30.1328125 C-233.1171875 29.4728125 -233.1171875 28.8128125 -233.1171875 28.1328125 C-228.4971875 27.8028125 -223.8771875 27.4728125 -219.1171875 27.1328125 C-219.1171875 26.4728125 -219.1171875 25.8128125 -219.1171875 25.1328125 C-215.1571875 24.8028125 -211.1971875 24.4728125 -207.1171875 24.1328125 C-207.1171875 23.4728125 -207.1171875 22.8128125 -207.1171875 22.1328125 C-202.8271875 21.8028125 -198.5371875 21.4728125 -194.1171875 21.1328125 C-194.1171875 20.4728125 -194.1171875 19.8128125 -194.1171875 19.1328125 C-188.39678739 18.3007543 -182.89478634 18.01244586 -177.1171875 18.1328125 C-177.1171875 17.4728125 -177.1171875 16.8128125 -177.1171875 16.1328125 C-171.39678739 15.3007543 -165.89478634 15.01244586 -160.1171875 15.1328125 C-160.1171875 14.4728125 -160.1171875 13.8128125 -160.1171875 13.1328125 C-153.73491805 12.30929386 -147.54974151 12.01195032 -141.1171875 12.1328125 C-141.1171875 11.4728125 -141.1171875 10.8128125 -141.1171875 10.1328125 C-133.43114276 9.16121317 -125.85855351 9.02360828 -118.1171875 9.1328125 C-118.1171875 8.4728125 -118.1171875 7.8128125 -118.1171875 7.1328125 C-109.07997439 6.19038432 -100.19167003 6.02124099 -91.1171875 6.1328125 C-91.1171875 5.4728125 -91.1171875 4.8128125 -91.1171875 4.1328125 C-79.09900173 3.27107319 -67.16472671 3.01379181 -55.1171875 3.1328125 C-55.1171875 2.4728125 -55.1171875 1.8128125 -55.1171875 1.1328125 C-36.73694668 0.27628967 -18.39852254 -0.01647544 0 0 Z " fill="#2E2C3B" transform="translate(477.1171875,482.8671875)"/>
<path d="M0 0 C0 0.66 0 1.32 0 2 C-28.13036833 3.18505073 -56.2530763 3.12126269 -84.40350342 3.06866455 C-90.57954559 3.05825937 -96.75559213 3.05383088 -102.93164062 3.04882812 C-114.9544382 3.03824432 -126.97721691 3.02127841 -139 3 C-139 2.34 -139 1.68 -139 1 C-137.93624146 1.00222061 -136.87248291 1.00444122 -135.77648926 1.00672913 C-125.54651532 1.02736857 -115.31654582 1.04216232 -105.08655548 1.05181217 C-99.83243414 1.05694059 -94.57833012 1.06384489 -89.32421875 1.07543945 C-63.7535292 1.13039687 -38.21309442 0.96017148 -12.65365601 0.15085411 C-8.43413048 0.02136507 -4.22139679 -0.01893779 0 0 Z " fill="#000000" transform="translate(601,1021)"/>
<path d="M0 0 C0 0.66 0 1.32 0 2 C-2.31 2 -4.62 2 -7 2 C-7 2.66 -7 3.32 -7 4 C-12.72040011 4.8320582 -18.22240116 5.12036664 -24 5 C-24 5.66 -24 6.32 -24 7 C-30.69613196 7.797837 -37.25766581 8.12910853 -44 8 C-44 8.66 -44 9.32 -44 10 C-51.35575165 10.70776992 -58.6094524 11.14715692 -66 11 C-66 10.34 -66 9.68 -66 9 C-65.15236084 8.91697632 -65.15236084 8.91697632 -64.28759766 8.83227539 C-61.73297668 8.57975628 -59.17900185 8.32120277 -56.625 8.0625 C-55.29082031 7.93198242 -55.29082031 7.93198242 -53.9296875 7.79882812 C-53.07890625 7.71181641 -52.228125 7.62480469 -51.3515625 7.53515625 C-50.56604004 7.456604 -49.78051758 7.37805176 -48.97119141 7.29711914 C-46.92865197 7.09303702 -46.92865197 7.09303702 -45 6 C-43.57809042 5.79380163 -42.14930503 5.63362983 -40.71875 5.5 C-39.45611328 5.37625 -39.45611328 5.37625 -38.16796875 5.25 C-36.38932292 5.08333333 -34.61067708 4.91666667 -32.83203125 4.75 C-31.56939453 4.62625 -31.56939453 4.62625 -30.28125 4.5 C-29.50845703 4.4278125 -28.73566406 4.355625 -27.93945312 4.28125 C-25.92332061 4.09258589 -25.92332061 4.09258589 -24 3 C-20.80722358 2.53133557 -17.61385494 2.1332462 -14.41015625 1.75 C-0.33333333 -0.00617284 -0.33333333 -0.00617284 0 0 Z " fill="#393134" transform="translate(732,711)"/>
<path d="M0 0 C2.54194161 0.14188985 5.08347993 0.28839155 7.625 0.4375 C8.69427734 0.49647461 8.69427734 0.49647461 9.78515625 0.55664062 C13.92575189 0.80355688 17.90527355 1.31754559 22 2 C24.78853588 2.24735333 27.57994317 2.40834225 30.375 2.5625 C31.11105469 2.60568359 31.84710938 2.64886719 32.60546875 2.69335938 C34.40348068 2.79843799 36.20171958 2.89962093 38 3 C38 3.66 38 4.32 38 5 C53.84 5.495 53.84 5.495 70 6 C70 6.33 70 6.66 70 7 C65.4793335 7.02468857 60.9587061 7.04285449 56.43798828 7.05493164 C54.89956987 7.05996552 53.36115625 7.06679308 51.82275391 7.07543945 C49.61359474 7.08754639 47.40449874 7.09323769 45.1953125 7.09765625 C44.50567413 7.10281754 43.81603577 7.10797882 43.10549927 7.11329651 C38.22774341 7.11387171 38.22774341 7.11387171 36 6 C34.40737934 5.84824451 32.80935144 5.75099675 31.2109375 5.68359375 C30.26992188 5.64169922 29.32890625 5.59980469 28.359375 5.55664062 C27.37453125 5.51732422 26.3896875 5.47800781 25.375 5.4375 C24.38242187 5.39431641 23.38984375 5.35113281 22.3671875 5.30664062 C19.91160162 5.20038931 17.45591297 5.09835036 15 5 C15 4.34 15 3.68 15 3 C13.62714844 3.01740234 13.62714844 3.01740234 12.2265625 3.03515625 C10.44378906 3.04869141 10.44378906 3.04869141 8.625 3.0625 C7.44164062 3.07410156 6.25828125 3.08570313 5.0390625 3.09765625 C2 3 2 3 0 2 C0 1.34 0 0.68 0 0 Z " fill="#000000" transform="translate(391,1016)"/>
<path d="M0 0 C1.37432457 3.81756824 0.67975039 7.07255329 0 11 C-0.66 11 -1.32 11 -2 11 C-2.103125 11.86625 -2.20625 12.7325 -2.3125 13.625 C-3.34923453 18.71442404 -5.54934568 23.09926034 -9 27 C-9.66 27 -10.32 27 -11 27 C-11.33 28.32 -11.66 29.64 -12 31 C-12.66 31 -13.32 31 -14 31 C-14.2475 31.5775 -14.495 32.155 -14.75 32.75 C-16.18299988 35.32939979 -17.78424676 37.06121592 -20 39 C-20.66 39 -21.32 39 -22 39 C-22 39.66 -22 40.32 -22 41 C-23.98 41.66 -25.96 42.32 -28 43 C-27.34 42.34 -26.68 41.68 -26 41 C-25.54367187 40.54109375 -25.08734375 40.0821875 -24.6171875 39.609375 C-23.46589866 38.46364795 -22.30314801 37.3293893 -21.1328125 36.203125 C-12.03802633 27.84516963 -12.03802633 27.84516963 -7 17 C-6.34 17 -5.68 17 -5 17 C-4.896875 16.175 -4.79375 15.35 -4.6875 14.5 C-4.01263987 11.06434841 -2.99788716 8.07464394 -1.71875 4.83203125 C-1.09438898 3.2405893 -0.54060283 1.62180848 0 0 Z " fill="#3A3133" transform="translate(920,609)"/>
<path d="M0 0 C0.495 0.99 0.495 0.99 1 2 C-2.28519475 3.09506492 -4.73663415 3.09960608 -8.1875 3.0625 C-9.81751953 3.04896484 -9.81751953 3.04896484 -11.48046875 3.03515625 C-12.31191406 3.02355469 -13.14335938 3.01195312 -14 3 C-14 3.66 -14 4.32 -14 5 C-21.59 5 -29.18 5 -37 5 C-37 4.34 -37 3.68 -37 3 C-36.08863281 2.95101562 -35.17726563 2.90203125 -34.23828125 2.8515625 C-22.79505846 2.1911576 -11.4043317 1.14276194 0 0 Z " fill="#000000" transform="translate(638,1016)"/>
<path d="M0 0 C1.40885258 0.00502467 2.81770689 0.00958587 4.2265625 0.01367188 C7.65108638 0.0253997 11.07552047 0.04181309 14.5 0.0625 C14.5 0.7225 14.5 1.3825 14.5 2.0625 C-4.31 2.5575 -4.31 2.5575 -23.5 3.0625 C-23.5 2.4025 -23.5 1.7425 -23.5 1.0625 C-15.69196105 -0.21536205 -7.88637319 -0.04908147 0 0 Z " fill="#373033" transform="translate(583.5,727.9375)"/>
<path d="M0 0 C4.18090413 -0.02480683 8.36176872 -0.04291049 12.54272461 -0.05493164 C13.96363064 -0.05994565 15.38453156 -0.06675852 16.80541992 -0.07543945 C18.85336576 -0.08763388 20.9012431 -0.09325772 22.94921875 -0.09765625 C24.17987061 -0.10289307 25.41052246 -0.10812988 26.6784668 -0.11352539 C29.59219619 -0.01393817 32.17307326 0.32200678 35 1 C35 1.66 35 2.32 35 3 C23.45 2.67 11.9 2.34 0 2 C0 1.34 0 0.68 0 0 Z " fill="#373033" transform="translate(432,728)"/>
<path d="M0 0 C2 0 2 0 4.4375 2.375 C5.283125 3.24125 6.12875 4.1075 7 5 C7.99 5.66 8.98 6.32 10 7 C10 7.66 10 8.32 10 9 C10.59167969 9.27070312 11.18335938 9.54140625 11.79296875 9.8203125 C13.967961 10.98287473 15.50597952 12.21075917 17.3125 13.875 C20.65500175 16.82681972 24.06615279 18.9126525 28 21 C28 21.66 28 22.32 28 23 C26.35 22.67 24.7 22.34 23 22 C23 21.34 23 20.68 23 20 C22.4225 19.896875 21.845 19.79375 21.25 19.6875 C18.64338842 18.89103535 17.0264689 17.80934723 15 16 C15 15.34 15 14.68 15 14 C14.195625 13.690625 14.195625 13.690625 13.375 13.375 C10.55314513 11.74129455 8.66259269 9.72413902 6.46484375 7.33984375 C4.92498332 5.74891301 4.92498332 5.74891301 2 5 C2 4.34 2 3.68 2 3 C1.34 3 0.68 3 0 3 C0 2.01 0 1.02 0 0 Z " fill="#383032" transform="translate(119,637)"/>
<path d="M0 0 C1.79244141 0.01740234 1.79244141 0.01740234 3.62109375 0.03515625 C5.41740234 0.04869141 5.41740234 0.04869141 7.25 0.0625 C8.17683594 0.07410156 9.10367188 0.08570313 10.05859375 0.09765625 C10.05859375 0.75765625 10.05859375 1.41765625 10.05859375 2.09765625 C9.20394531 2.15824219 8.34929688 2.21882812 7.46875 2.28125 C5.81166016 2.40693359 5.81166016 2.40693359 4.12109375 2.53515625 C3.01894531 2.61636719 1.91679688 2.69757812 0.78125 2.78125 C-1.85250528 2.80183709 -1.85250528 2.80183709 -2.94140625 4.09765625 C-4.42779617 4.25420652 -5.92089752 4.34832568 -7.4140625 4.4140625 C-8.31318359 4.45595703 -9.21230469 4.49785156 -10.13867188 4.54101562 C-11.55696289 4.59999023 -11.55696289 4.59999023 -13.00390625 4.66015625 C-13.95330078 4.70333984 -14.90269531 4.74652344 -15.88085938 4.79101562 C-18.23421978 4.89744901 -20.58768979 4.99946633 -22.94140625 5.09765625 C-22.94140625 4.43765625 -22.94140625 3.77765625 -22.94140625 3.09765625 C-18.58090761 1.6441567 -14.12932128 1.70626269 -9.5703125 1.4921875 C-5.99705173 1.30274589 -3.33016293 0.11056318 0 0 Z " fill="#383034" transform="translate(639.94140625,722.90234375)"/>
<path d="M0 0 C0.66 0.33 1.32 0.66 2 1 C-1.06117568 3.62386487 -1.73173127 4 -6 4 C-6 4.66 -6 5.32 -6 6 C-6.94875 6.2475 -7.8975 6.495 -8.875 6.75 C-11.99697369 7.62490795 -14.8974624 8.78308931 -17.875 10.0625 C-22.6434372 12.02984602 -26.86582134 12.66876267 -32 13 C-28.87748721 10.35443427 -26.11557747 9.26957417 -22.1875 8.1875 C-16.21586199 6.45423545 -10.55299387 4.2982813 -4.8503418 1.8425293 C-3.25557208 1.17327469 -1.62946275 0.57969244 0 0 Z " fill="#3A3234" transform="translate(838,680)"/>
<path d="M0 0 C0.66 0 1.32 0 2 0 C1 3 1 3 -2 4.5625 C-2.99 5.036875 -3.98 5.51125 -5 6 C-5.33 6.66 -5.66 7.32 -6 8 C-7.63671875 8.96484375 -7.63671875 8.96484375 -9.6875 9.9375 C-10.7703125 10.45957031 -10.7703125 10.45957031 -11.875 10.9921875 C-12.57625 11.32476563 -13.2775 11.65734375 -14 12 C-17.01491761 13.47790079 -19.87326035 14.91747186 -22.6875 16.75 C-23.450625 17.1625 -24.21375 17.575 -25 18 C-25.99 17.67 -26.98 17.34 -28 17 C-26.3001768 15.84157956 -24.58970423 14.69877734 -22.875 13.5625 C-21.92367187 12.92441406 -20.97234375 12.28632812 -19.9921875 11.62890625 C-16.90166498 9.94646775 -14.47624481 9.36619196 -11 9 C-10.67 8.01 -10.34 7.02 -10 6 C-7.96875 4.6484375 -7.96875 4.6484375 -5.5 3.375 C-2.55480881 1.95980348 -2.55480881 1.95980348 0 0 Z " fill="#3B3233" transform="translate(888,654)"/>
<path d="M0 0 C0 0.66 0 1.32 0 2 C-4.14470514 3.32630565 -9.03230578 3.98384711 -13 2 C-13 2.66 -13 3.32 -13 4 C-15.88211302 4.96070434 -17.69850044 5.10581883 -20.6875 5.0625 C-21.89986328 5.04896484 -21.89986328 5.04896484 -23.13671875 5.03515625 C-24.05904297 5.01775391 -24.05904297 5.01775391 -25 5 C-25 4.34 -25 3.68 -25 3 C-23.989375 2.87625 -22.97875 2.7525 -21.9375 2.625 C-18.06873954 2.11713691 -18.06873954 2.11713691 -14.75 0.9375 C-9.7881523 -0.30296192 -5.08616012 -0.16555313 0 0 Z " fill="#000000" transform="translate(667,1012)"/>
<path d="M0 0 C1.93742341 -0.02703381 3.87495479 -0.04641125 5.8125 -0.0625 C6.89144531 -0.07410156 7.97039062 -0.08570313 9.08203125 -0.09765625 C12 0 12 0 15 1 C15 1.66 15 2.32 15 3 C15.680625 2.814375 16.36125 2.62875 17.0625 2.4375 C20.57232191 1.91476057 23.52188063 2.38621423 27 3 C27 3.66 27 4.32 27 5 C23.04 5 19.08 5 15 5 C14.67 4.01 14.34 3.02 14 2 C13.01 2.495 13.01 2.495 12 3 C9.95501575 2.91219597 7.91255052 2.75758462 5.875 2.5625 C4.77929688 2.46066406 3.68359375 2.35882812 2.5546875 2.25390625 C1.29011719 2.12822266 1.29011719 2.12822266 0 2 C0 1.34 0 0.68 0 0 Z " fill="#000000" transform="translate(361,1012)"/>
<path d="M0 0 C0.66 1.32 1.32 2.64 2 4 C0.68 4.33 -0.64 4.66 -2 5 C-2.12375 5.78375 -2.2475 6.5675 -2.375 7.375 C-3 10 -3 10 -5 12 C-5.165 12.680625 -5.33 13.36125 -5.5 14.0625 C-5.7475 15.0215625 -5.7475 15.0215625 -6 16 C-6.66 16.33 -7.32 16.66 -8 17 C-9.13350534 19.01669827 -9.13350534 19.01669827 -10 21 C-10.66 19.68 -11.32 18.36 -12 17 C-11.01 16.67 -10.02 16.34 -9 16 C-8.39184816 14.15302626 -8.39184816 14.15302626 -8 12 C-7.34859204 10.56637928 -6.6603073 9.14898188 -5.9375 7.75 C-5.57527344 7.04359375 -5.21304687 6.3371875 -4.83984375 5.609375 C-4.56269531 5.07828125 -4.28554688 4.5471875 -4 4 C-3.34 4 -2.68 4 -2 4 C-2 3.01 -2 2.02 -2 1 C-1.34 0.67 -0.68 0.34 0 0 Z " fill="#000000" transform="translate(363,173)"/>
<path d="M0 0 C3.96 0.33 7.92 0.66 12 1 C12 1.66 12 2.32 12 3 C15.465 4.485 15.465 4.485 19 6 C18.67 6.66 18.34 7.32 18 8 C15.03 7.505 15.03 7.505 12 7 C12 6.34 12 5.68 12 5 C10.7625 5.061875 10.7625 5.061875 9.5 5.125 C5.38008185 4.97786007 1.96852693 4.09476605 -2 3 C-1.34 2.67 -0.68 2.34 0 2 C0 1.34 0 0.68 0 0 Z " fill="#010102" transform="translate(254,985)"/>
<path d="M0 0 C0 0.33 0 0.66 0 1 C-1.65 1 -3.3 1 -5 1 C-5 1.66 -5 2.32 -5 3 C-6.30324219 3.18175781 -6.30324219 3.18175781 -7.6328125 3.3671875 C-8.78523437 3.53476562 -9.93765625 3.70234375 -11.125 3.875 C-12.26195312 4.03742187 -13.39890625 4.19984375 -14.5703125 4.3671875 C-17.99925657 4.91779662 -17.99925657 4.91779662 -21.1875 6.0625 C-24.56354374 7.18784791 -27.46539041 7.14138438 -31 7 C-30.67 6.34 -30.34 5.68 -30 5 C-27.28222263 4.40530036 -24.62065323 3.9178168 -21.875 3.5 C-14.55941816 2.35221044 -7.39496161 -0.36072983 0 0 Z " fill="#3C3335" transform="translate(766,704)"/>
<path d="M0 0 C1.258125 -0.04125 2.51625 -0.0825 3.8125 -0.125 C4.52019531 -0.14820313 5.22789062 -0.17140625 5.95703125 -0.1953125 C8 0 8 0 11 2 C13.27912938 2.45394552 13.27912938 2.45394552 15.6875 2.625 C16.49574219 2.69976563 17.30398438 2.77453125 18.13671875 2.8515625 C18.75160156 2.90054688 19.36648438 2.94953125 20 3 C18 5 18 5 16.08984375 5.23046875 C10.11111111 5.11111111 10.11111111 5.11111111 9 4 C7.31816052 3.76712992 5.6287584 3.58735834 3.9375 3.4375 C2.55884766 3.31181641 2.55884766 3.31181641 1.15234375 3.18359375 C0.08693359 3.09271484 0.08693359 3.09271484 -1 3 C-0.67 2.01 -0.34 1.02 0 0 Z " fill="#000000" transform="translate(328,1005)"/>
<path d="M0 0 C0 0.99 0 1.98 0 3 C-1.89492006 3.33848652 -3.79098466 3.67056911 -5.6875 4 C-6.74324219 4.185625 -7.79898438 4.37125 -8.88671875 4.5625 C-11.64904062 4.95068074 -14.21742043 5.08259976 -17 5 C-16 3 -16 3 -13.671875 2.1484375 C-12.70765625 1.89320313 -11.7434375 1.63796875 -10.75 1.375 C-9.31914063 0.98441406 -9.31914063 0.98441406 -7.859375 0.5859375 C-5.14423365 0.02955608 -2.76079823 -0.11083497 0 0 Z " fill="#393134" transform="translate(791,697)"/>
<path d="M0 0 C0.66 0.33 1.32 0.66 2 1 C1.67 1.66 1.34 2.32 1 3 C1.99 3.33 2.98 3.66 4 4 C4 4.99 4 5.98 4 7 C4.66 7 5.32 7 6 7 C5.67 8.65 5.34 10.3 5 12 C4.34 12 3.68 12 3 12 C3 10.68 3 9.36 3 8 C2.34 8 1.68 8 1 8 C0.87625 7.360625 0.7525 6.72125 0.625 6.0625 C0.315625 5.0415625 0.315625 5.0415625 0 4 C-0.66 3.67 -1.32 3.34 -2 3 C-2 2.34 -2 1.68 -2 1 C-1.34 0.67 -0.68 0.34 0 0 Z " fill="#000000" transform="translate(743,298)"/>
<path d="M0 0 C0 3.96 0 7.92 0 12 C-0.99 12 -1.98 12 -3 12 C-3 8.37 -3 4.74 -3 1 C-1 0 -1 0 0 0 Z " fill="#000000" transform="translate(24,752)"/>
<path d="M0 0 C1.32 0.33 2.64 0.66 4 1 C4 1.66 4 2.32 4 3 C4.9075 3.103125 5.815 3.20625 6.75 3.3125 C10.03071844 4.00649813 11.60889095 4.70085668 14 7 C14 7.66 14 8.32 14 9 C10.85439959 7.82039985 7.79000444 6.48955244 4.75 5.0625 C4.06421875 4.74410156 3.3784375 4.42570313 2.671875 4.09765625 C1 3 1 3 0 0 Z " fill="#393133" transform="translate(148,660)"/>
<path d="M0 0 C7.51748252 2.30769231 7.51748252 2.30769231 9.4375 5.0625 C9.7159375 6.0215625 9.7159375 6.0215625 10 7 C10.33 7.66 10.66 8.32 11 9 C9.68 9 8.36 9 7 9 C7 8.34 7 7.68 7 7 C5.8553125 6.5978125 5.8553125 6.5978125 4.6875 6.1875 C2.12619116 5.05575888 0.80307062 4.08776599 -1 2 C-0.67 1.34 -0.34 0.68 0 0 Z " fill="#010102" transform="translate(108,912)"/>
<path d="M0 0 C5.63281599 -0.2396943 10.54538831 0.61470179 16 2 C15.01 3.485 15.01 3.485 14 5 C12.03964825 4.55037804 10.08175691 4.09001752 8.125 3.625 C7.03445313 3.36976563 5.94390625 3.11453125 4.8203125 2.8515625 C2 2 2 2 0 0 Z " fill="#000000" transform="translate(290,997)"/>
<path d="M0 0 C4.29 0 8.58 0 13 0 C13.33 0.66 13.66 1.32 14 2 C9.38 2 4.76 2 0 2 C0 1.34 0 0.68 0 0 Z " fill="#000000" transform="translate(347,1010)"/>
<path d="M0 0 C0.680625 0.45375 1.36125 0.9075 2.0625 1.375 C5.30435186 3.16836486 8.4203441 4.08753869 12 5 C12 5.66 12 6.32 12 7 C7.29761275 6.53898164 3.76737643 5.96823597 0 3 C0 2.01 0 1.02 0 0 Z " fill="#352E32" transform="translate(163,668)"/>
<path d="M0 0 C0.33 0 0.66 0 1 0 C0.67 2.31 0.34 4.62 0 7 C-0.66 7 -1.32 7 -2 7 C-1.67 8.32 -1.34 9.64 -1 11 C-2.32 11 -3.64 11 -5 11 C-4.67 9.35 -4.34 7.7 -4 6 C-3.34 6 -2.68 6 -2 6 C-1.34 4.02 -0.68 2.04 0 0 Z " fill="#000000" transform="translate(455,21)"/>
<path d="M0 0 C4.29 0 8.58 0 13 0 C13 0.66 13 1.32 13 2 C8.71 2 4.42 2 0 2 C0 1.34 0 0.68 0 0 Z " fill="#000000" transform="translate(668,1010)"/>
<path d="M0 0 C7.42857143 -0.28571429 7.42857143 -0.28571429 11 2 C11 2.33 11 2.66 11 3 C7.37 2.67 3.74 2.34 0 2 C0 1.34 0 0.68 0 0 Z " fill="#3B3336" transform="translate(245,699)"/>
<path d="M0 0 C0.66 0 1.32 0 2 0 C2 1.65 2 3.3 2 5 C1.01 5.33 0.02 5.66 -1 6 C-1.33 6.66 -1.66 7.32 -2 8 C-2.33 6.68 -2.66 5.36 -3 4 C-2.34 3.67 -1.68 3.34 -1 3 C-0.67 2.01 -0.34 1.02 0 0 Z " fill="#000000" transform="translate(128,553)"/>
<path d="M0 0 C0.66 0 1.32 0 2 0 C1.67 2.31 1.34 4.62 1 7 C-0.32 6.34 -1.64 5.68 -3 5 C-1.125 1.125 -1.125 1.125 0 0 Z " fill="#000000" transform="translate(285,299)"/>
<path d="M0 0 C0.99 0.33 1.98 0.66 3 1 C4.1875 4.0625 4.1875 4.0625 5 7 C4.01 7 3.02 7 2 7 C1.01 5.02 0.02 3.04 -1 1 C-0.67 0.67 -0.34 0.34 0 0 Z " fill="#000000" transform="translate(574,25)"/>
<path d="M0 0 C0.66 0.33 1.32 0.66 2 1 C1.67 2.65 1.34 4.3 1 6 C0.01 6 -0.98 6 -2 6 C-2.33 4.35 -2.66 2.7 -3 1 C-2.01 0.67 -1.02 0.34 0 0 Z " fill="#000000" transform="translate(468,2)"/>
<path d="M0 0 C1.98 0 3.96 0 6 0 C6.33 0.66 6.66 1.32 7 2 C4.69 2.33 2.38 2.66 0 3 C0 2.01 0 1.02 0 0 Z " fill="#000000" transform="translate(756,990)"/>
<path d="M0 0 C3.375 0.25 3.375 0.25 7 1 C8.4375 3.0625 8.4375 3.0625 9 5 C2.25 2.25 2.25 2.25 0 0 Z " fill="#000000" transform="translate(187,960)"/>
<path d="M0 0 C0.99 0.495 0.99 0.495 2 1 C2.73075648 3.3140622 3.40138258 5.64828869 4 8 C3.01 8 2.02 8 1 8 C0.67 5.36 0.34 2.72 0 0 Z " fill="#3C3231" transform="translate(109,619)"/>
<path d="M0 0 C0.66 0 1.32 0 2 0 C2.68707555 2.49064888 3 4.37886292 3 7 C1.35 5.35 -0.3 3.7 -2 2 C-1.34 1.34 -0.68 0.68 0 0 Z " fill="#000000" transform="translate(702,231)"/>
<path d="M0 0 C2.64 0 5.28 0 8 0 C7.67 0.99 7.34 1.98 7 3 C5.35 3 3.7 3 2 3 C2 2.34 2 1.68 2 1 C1.34 0.67 0.68 0.34 0 0 Z " fill="#000000" transform="translate(317,1003)"/>
<path d="M0 0 C5.75 -0.125 5.75 -0.125 8 1 C8 1.66 8 2.32 8 3 C5.36 2.67 2.72 2.34 0 2 C0 1.34 0 0.68 0 0 Z " fill="#383133" transform="translate(234,696)"/>
<path d="M0 0 C0 0.99 0 1.98 0 3 C-1.98 3 -3.96 3 -6 3 C-6 2.34 -6 1.68 -6 1 C-4 0 -4 0 0 0 Z " fill="#000000" transform="translate(776,985)"/>
<path d="M0 0 C1.98 0.66 3.96 1.32 6 2 C5.67 2.66 5.34 3.32 5 4 C3.35 3.67 1.7 3.34 0 3 C0 2.01 0 1.02 0 0 Z " fill="#000000" transform="translate(240,980)"/>
<path d="M0 0 C1.98 0.99 1.98 0.99 4 2 C4 2.99 4 3.98 4 5 C3.01 5 2.02 5 1 5 C0.67 3.35 0.34 1.7 0 0 Z " fill="#000000" transform="translate(145,524)"/>
<path d="M0 0 C1.98 0 3.96 0 6 0 C5.67 0.99 5.34 1.98 5 3 C3.68 3 2.36 3 1 3 C0.67 2.01 0.34 1.02 0 0 Z " fill="#000000" transform="translate(283,994)"/>
<path d="M0 0 C2.64 0 5.28 0 8 0 C7.67 0.66 7.34 1.32 7 2 C5.02 2 3.04 2 1 2 C0.67 1.34 0.34 0.68 0 0 Z " fill="#000000" transform="translate(762,988)"/>
<path d="M0 0 C0.99 0.33 1.98 0.66 3 1 C3 3 3 3 1.625 4.625 C0 6 0 6 -2 6 C-2 5.01 -2 4.02 -2 3 C-1.34 3 -0.68 3 0 3 C0 2.01 0 1.02 0 0 Z " fill="#000000" transform="translate(399,112)"/>
<path d="M0 0 C1.98 0 3.96 0 6 0 C5.01 1.485 5.01 1.485 4 3 C3.01 3 2.02 3 1 3 C0.67 2.01 0.34 1.02 0 0 Z " fill="#000000" transform="translate(210,970)"/>
<path d="M0 0 C1.65 0 3.3 0 5 0 C4.67 0.99 4.34 1.98 4 3 C2.68 2.67 1.36 2.34 0 2 C0 1.34 0 0.68 0 0 Z " fill="#000000" transform="translate(741,994)"/>
<path d="M0 0 C0.99 0 1.98 0 3 0 C2.67 1.32 2.34 2.64 2 4 C1.01 3.67 0.02 3.34 -1 3 C-0.67 2.01 -0.34 1.02 0 0 Z " fill="#000000" transform="translate(663,169)"/>
<path d="M0 0 C1.98 0 3.96 0 6 0 C5.67 0.66 5.34 1.32 5 2 C2.9375 2.625 2.9375 2.625 1 3 C0.67 2.01 0.34 1.02 0 0 Z " fill="#000000" transform="translate(790,979)"/>
<path d="M0 0 C1.98 0 3.96 0 6 0 C5.67 0.66 5.34 1.32 5 2 C2.9375 2.625 2.9375 2.625 1 3 C0.67 2.01 0.34 1.02 0 0 Z " fill="#000000" transform="translate(233,979)"/>
<path d="M0 0 C1.65 0 3.3 0 5 0 C5 0.66 5 1.32 5 2 C3.02 2 1.04 2 -1 2 C-0.67 1.34 -0.34 0.68 0 0 Z " fill="#000000" transform="translate(797,977)"/>
<path d="M0 0 C1.65 0 3.3 0 5 0 C5.33 0.66 5.66 1.32 6 2 C4.02 2 2.04 2 0 2 C0 1.34 0 0.68 0 0 Z " fill="#000000" transform="translate(227,977)"/>
<path d="M0 0 C2.475 0.495 2.475 0.495 5 1 C4.67 1.66 4.34 2.32 4 3 C2.68 3 1.36 3 0 3 C0 2.01 0 1.02 0 0 Z " fill="#000000" transform="translate(216,972)"/>
<path d="M0 0 C0.99 0.33 1.98 0.66 3 1 C3 2.32 3 3.64 3 5 C2.34 5 1.68 5 1 5 C0.67 3.35 0.34 1.7 0 0 Z " fill="#000000" transform="translate(242,367)"/>
<path d="M0 0 C1.32 0.33 2.64 0.66 4 1 C3.67 1.99 3.34 2.98 3 4 C2.01 3.34 1.02 2.68 0 2 C0 1.34 0 0.68 0 0 Z " fill="#000000" transform="translate(305,264)"/>
<path d="M0 0 C1.32 0.33 2.64 0.66 4 1 C4 1.66 4 2.32 4 3 C2.68 3 1.36 3 0 3 C0 2.01 0 1.02 0 0 Z " fill="#000000" transform="translate(130,550)"/>
<path d="M0 0 C1.32 0.33 2.64 0.66 4 1 C4 1.66 4 2.32 4 3 C2.68 3 1.36 3 0 3 C0 2.01 0 1.02 0 0 Z " fill="#000000" transform="translate(308,260)"/>
<path d="M0 0 C0.99 0 1.98 0 3 0 C2.67 1.32 2.34 2.64 2 4 C1.34 3.67 0.68 3.34 0 3 C0 2.01 0 1.02 0 0 Z " fill="#000000" transform="translate(328,228)"/>
<path d="M0 0 C0.99 0.33 1.98 0.66 3 1 C3 1.99 3 2.98 3 4 C2.01 4 1.02 4 0 4 C0 2.68 0 1.36 0 0 Z " fill="#000000" transform="translate(364,169)"/>
<path d="M0 0 C2.97 0 5.94 0 9 0 C9 0.33 9 0.66 9 1 C6.03 1 3.06 1 0 1 C0 0.67 0 0.34 0 0 Z " fill="#000000" transform="translate(307,1002)"/>
<path d="M0 0 C0.33 0.66 0.66 1.32 1 2 C-1.64 2 -4.28 2 -7 2 C-7 1.67 -7 1.34 -7 1 C-3.535 0.505 -3.535 0.505 0 0 Z " fill="#000000" transform="translate(754,992)"/>
<path d="M0 0 C0.33 0.66 0.66 1.32 1 2 C-0.65 2.33 -2.3 2.66 -4 3 C-4.33 2.34 -4.66 1.68 -5 1 C-3.35 0.67 -1.7 0.34 0 0 Z " fill="#000000" transform="translate(807,974)"/>
<path d="M0 0 C0.66 0.33 1.32 0.66 2 1 C1.67 1.99 1.34 2.98 1 4 C0.34 4 -0.32 4 -1 4 C-0.67 2.68 -0.34 1.36 0 0 Z " fill="#000000" transform="translate(724,268)"/>
<path d="M0 0 C2.475 0.99 2.475 0.99 5 2 C4.01 2.33 3.02 2.66 2 3 C1.34 2.67 0.68 2.34 0 2 C0 1.34 0 0.68 0 0 Z " fill="#000000" transform="translate(246,983)"/>
<path d="M0 0 C1.65 0 3.3 0 5 0 C4.67 0.66 4.34 1.32 4 2 C2.68 1.67 1.36 1.34 0 1 C0 0.67 0 0.34 0 0 Z " fill="#000000" transform="translate(221,975)"/>
<path d="M0 0 C2.31 0 4.62 0 7 0 C7 0.33 7 0.66 7 1 C4.69 1 2.38 1 0 1 C0 0.67 0 0.34 0 0 Z " fill="#000000" transform="translate(274,993)"/>
<path d="M0 0 C1.98 0 3.96 0 6 0 C6 0.33 6 0.66 6 1 C4.02 1 2.04 1 0 1 C0 0.67 0 0.34 0 0 Z " fill="#000000" transform="translate(681,1008)"/>
<path d="M0 0 C1.65 0 3.3 0 5 0 C4.01 0.66 3.02 1.32 2 2 C1.34 1.34 0.68 0.68 0 0 Z " fill="#000000" transform="translate(776,984)"/>
<path d="M0 0 C0.99 0 1.98 0 3 0 C3 0.66 3 1.32 3 2 C2.01 2 1.02 2 0 2 C0 1.34 0 0.68 0 0 Z " fill="#201F2B" transform="translate(848,955)"/>
<path d="M0 0 C0.66 0.33 1.32 0.66 2 1 C2 1.66 2 2.32 2 3 C1.01 2.67 0.02 2.34 -1 2 C-0.67 1.34 -0.34 0.68 0 0 Z " fill="#000000" transform="translate(173,952)"/>
<path d="M0 0 C0.66 0.33 1.32 0.66 2 1 C1.67 1.66 1.34 2.32 1 3 C0.01 2.34 -0.98 1.68 -2 1 C-1.34 0.67 -0.68 0.34 0 0 Z " fill="#000000" transform="translate(142,935)"/>
<path d="M0 0 C0.99 0.33 1.98 0.66 3 1 C2.01 1.33 1.02 1.66 0 2 C0 1.34 0 0.68 0 0 Z " fill="#201F2B" transform="translate(732,997)"/>
<path d="M0 0 C0.99 0.33 1.98 0.66 3 1 C2.01 1.33 1.02 1.66 0 2 C0 1.34 0 0.68 0 0 Z " fill="#000000" transform="translate(814,970)"/>
<path d="M0 0 C0.66 0 1.32 0 2 0 C2 0.66 2 1.32 2 2 C1.01 1.67 0.02 1.34 -1 1 C-0.67 0.67 -0.34 0.34 0 0 Z " fill="#000000" transform="translate(152,942)"/>
<path d="M0 0 C0.99 0.33 1.98 0.66 3 1 C2.01 1.33 1.02 1.66 0 2 C0 1.34 0 0.68 0 0 Z " fill="#201F2B" transform="translate(75,884)"/>
<path d="M0 0 C0.66 0 1.32 0 2 0 C2 0.66 2 1.32 2 2 C1.34 2 0.68 2 0 2 C0 1.34 0 0.68 0 0 Z " fill="#201F2B" transform="translate(890,932)"/>
<path d="M0 0 C0.99 0.33 1.98 0.66 3 1 C2.01 1 1.02 1 0 1 C0 0.67 0 0.34 0 0 Z " fill="#000000" transform="translate(102,908)"/>
<path d="M0 0 C0.66 0 1.32 0 2 0 C2 0.66 2 1.32 2 2 C1.34 2 0.68 2 0 2 C0 1.34 0 0.68 0 0 Z " fill="#000000" transform="translate(326,231)"/>
<path d="M0 0 C0.33 0.66 0.66 1.32 1 2 C0.34 1.67 -0.32 1.34 -1 1 C-0.67 0.67 -0.34 0.34 0 0 Z " fill="#000000" transform="translate(789,980)"/>
<path d="M0 0 C0.66 0 1.32 0 2 0 C1.67 0.66 1.34 1.32 1 2 C0.67 1.34 0.34 0.68 0 0 Z " fill="#000000" transform="translate(176,955)"/>
<path d="M0 0 C0.66 0 1.32 0 2 0 C1.67 0.66 1.34 1.32 1 2 C0.67 1.34 0.34 0.68 0 0 Z " fill="#000000" transform="translate(126,926)"/>
<path d="M0 0 C0.99 0.495 0.99 0.495 2 1 C1.01 1.495 1.01 1.495 0 2 C0 1.34 0 0.68 0 0 Z " fill="#201F2B" transform="translate(952,884)"/>
<path d="M0 0 C0.66 0 1.32 0 2 0 C1.67 0.66 1.34 1.32 1 2 C0.67 1.34 0.34 0.68 0 0 Z " fill="#201F2B" transform="translate(67,875)"/>
<path d="" fill="#000000" transform="translate(0,0)"/>
<path d="M0 0 C2 1 2 1 2 1 Z " fill="#000000" transform="translate(808,973)"/>
<path d="M0 0 C2 1 2 1 2 1 Z " fill="#201F2B" transform="translate(829,964)"/>
<path d="" fill="#000000" transform="translate(0,0)"/>
<path d="" fill="#201F2B" transform="translate(0,0)"/>
<path d="M0 0 C2 1 2 1 2 1 Z " fill="#201F2B" transform="translate(78,637)"/>
<path d="" fill="#201F2B" transform="translate(0,0)"/>
<path d="" fill="#000000" transform="translate(0,0)"/>
<path d="" fill="#000000" transform="translate(0,0)"/>
<path d="" fill="#000000" transform="translate(0,0)"/>
<path d="" fill="#000000" transform="translate(0,0)"/>
<path d="" fill="#201F2B" transform="translate(0,0)"/>
<path d="" fill="#201F2B" transform="translate(0,0)"/>
<path d="" fill="#201F2B" transform="translate(0,0)"/>
<path d="" fill="#201F2B" transform="translate(0,0)"/>
<path d="" fill="#201F2B" transform="translate(0,0)"/>
<path d="" fill="#201F2B" transform="translate(0,0)"/>
<path d="" fill="#201F2B" transform="translate(0,0)"/>
<path d="" fill="#201F2B" transform="translate(0,0)"/>
<path d="" fill="#201F2B" transform="translate(0,0)"/>
<path d="" fill="#201F2B" transform="translate(0,0)"/>
</svg>
