<?xml version="1.0" encoding="UTF-8"?>
<svg version="1.1" xmlns="http://www.w3.org/2000/svg" width="1024" height="1024">
<path d="M0 0 C1.22254486 -0.00860046 2.44508972 -0.01720093 3.7046814 -0.02606201 C5.06689411 -0.03049738 6.42910727 -0.03479573 7.7913208 -0.03897095 C9.22028809 -0.04687119 10.64925337 -0.05514009 12.07821655 -0.06375122 C16.77846366 -0.08998233 21.47871972 -0.1052808 26.17901611 -0.11953735 C27.79662329 -0.12489675 29.41423041 -0.13027426 31.03183746 -0.13566971 C37.76076358 -0.15730081 44.48968728 -0.17603739 51.21863937 -0.1872921 C60.86377925 -0.20353 70.50851617 -0.23670092 80.15350413 -0.29369295 C86.93404928 -0.33239338 93.71448666 -0.35192494 100.49513936 -0.35721266 C104.54537149 -0.36086628 108.59517396 -0.37288773 112.64528656 -0.4053154 C116.45721344 -0.43539798 120.26845077 -0.44170768 124.08047104 -0.42993164 C125.47767838 -0.42971091 126.87491773 -0.43801588 128.27201462 -0.45558548 C140.11348584 -0.59636539 140.11348584 -0.59636539 144.09280396 2.12705994 C147.04646862 6.25778003 147.06547636 9.20082808 146.93829346 14.1668396 C146.93916962 15.06489822 146.94004578 15.96295685 146.94094849 16.88822937 C146.9367771 19.8487731 146.8901467 22.80703486 146.84307861 25.7671814 C146.83188487 27.82268537 146.82334553 29.87820537 146.81735229 31.93373108 C146.79446817 37.33791476 146.73554774 42.74112738 146.66912842 48.14492798 C146.60769736 53.66145695 146.58033547 59.17814318 146.55010986 64.69491577 C146.48580475 75.51500335 146.38342965 86.33437093 146.25714111 97.15390015 C147.52192291 97.30650803 148.78670471 97.45911591 150.08981323 97.61634827 C153.24309382 97.99682138 156.22002935 98.55112709 159.28057861 99.4234314 C160.15714111 99.67286499 161.03370361 99.92229858 161.93682861 100.17929077 C162.82628174 100.43903687 163.71573486 100.69878296 164.63214111 100.96640015 C165.51385986 101.21454468 166.39557861 101.46268921 167.30401611 101.71835327 C172.60967725 103.24703716 177.71092543 105.04925909 182.81524658 107.15219116 C185.20647385 108.13311553 187.6117566 109.05981728 190.03057861 109.9703064 C190.79241455 110.25970093 191.55425049 110.54909546 192.33917236 110.84725952 C193.88961208 111.43494749 195.44175272 112.01816447 196.99542236 112.59725952 C200.86922721 114.07725163 204.02165824 115.50260168 207.25714111 118.15390015 C209.58839041 119.15874898 211.92157649 120.15912262 214.25714111 121.15390015 C214.91714111 121.81390015 215.57714111 122.47390015 216.25714111 123.15390015 C217.80014893 123.79005249 217.80014893 123.79005249 219.37432861 124.4390564 C223.78110543 126.25676626 227.50204652 128.85186266 231.38214111 131.59140015 C232.07178955 132.0689978 232.76143799 132.54659546 233.47198486 133.03866577 C237.17704349 135.62087203 240.75895362 138.29402236 244.25714111 141.15390015 C245.18526611 141.85515015 246.11339111 142.55640015 247.06964111 143.27890015 C247.79151611 143.89765015 248.51339111 144.51640015 249.25714111 145.15390015 C249.25714111 145.81390015 249.25714111 146.47390015 249.25714111 147.15390015 C249.91714111 147.15390015 250.57714111 147.15390015 251.25714111 147.15390015 C253.88214111 149.52890015 253.88214111 149.52890015 256.25714111 152.15390015 C256.25714111 152.81390015 256.25714111 153.47390015 256.25714111 154.15390015 C256.91714111 154.15390015 257.57714111 154.15390015 258.25714111 154.15390015 C258.25714111 154.81390015 258.25714111 155.47390015 258.25714111 156.15390015 C258.91714111 156.15390015 259.57714111 156.15390015 260.25714111 156.15390015 C260.25714111 156.81390015 260.25714111 157.47390015 260.25714111 158.15390015 C261.24714111 158.48390015 262.23714111 158.81390015 263.25714111 159.15390015 C263.95865264 160.46923425 264.62240037 161.80507606 265.25714111 163.15390015 C266.23467755 164.17587006 267.23772922 165.1736964 268.25714111 166.15390015 C268.80112549 166.99743042 269.34510986 167.84096069 269.90557861 168.71005249 C272.09408235 171.45321697 272.09408235 171.45321697 275.58526611 171.8008728 C277.52659424 171.80933228 277.52659424 171.80933228 279.50714111 171.81796265 C280.54983154 171.82513809 280.54983154 171.82513809 281.61358643 171.8324585 C283.07942983 171.83585241 284.54534945 171.82668496 286.01104736 171.80575562 C288.25104997 171.77897298 290.48604377 171.80551014 292.72589111 171.8374939 C294.15298547 171.8341897 295.58007672 171.82778322 297.00714111 171.81796265 C298.30135986 171.812323 299.59557861 171.80668335 300.92901611 171.8008728 C304.40596621 171.45264044 304.40596621 171.45264044 306.57745361 168.77645874 C307.13175049 167.9110144 307.68604736 167.04557007 308.25714111 166.15390015 C308.95839111 165.28765015 309.65964111 164.42140015 310.38214111 163.52890015 C312.3497537 161.10186524 312.3497537 161.10186524 314.25714111 158.15390015 C314.91714111 158.15390015 315.57714111 158.15390015 316.25714111 158.15390015 C316.25714111 157.49390015 316.25714111 156.83390015 316.25714111 156.15390015 C316.91714111 156.15390015 317.57714111 156.15390015 318.25714111 156.15390015 C318.25714111 155.49390015 318.25714111 154.83390015 318.25714111 154.15390015 C318.91714111 154.15390015 319.57714111 154.15390015 320.25714111 154.15390015 C320.52526611 153.55577515 320.79339111 152.95765015 321.06964111 152.34140015 C322.25631518 150.15542161 323.35313224 148.74057421 325.25714111 147.15390015 C325.91714111 147.15390015 326.57714111 147.15390015 327.25714111 147.15390015 C327.25714111 146.49390015 327.25714111 145.83390015 327.25714111 145.15390015 C328.89681321 143.78750673 330.56824239 142.45895825 332.25714111 141.15390015 C333.21620361 140.10202515 333.21620361 140.10202515 334.19464111 139.02890015 C336.70418595 136.74749575 339.01511824 136.0380882 342.25714111 135.15390015 C342.25714111 134.49390015 342.25714111 133.83390015 342.25714111 133.15390015 C344.4574067 131.55803769 346.64468527 130.09223417 348.94464111 128.65390015 C349.57048096 128.25042358 350.1963208 127.84694702 350.84112549 127.4312439 C354.22898032 125.28146376 357.48520279 123.56581919 361.25714111 122.15390015 C362.18526611 121.44233765 362.18526611 121.44233765 363.13214111 120.71640015 C365.3218262 119.10633758 367.50733498 118.12163226 370.01495361 117.09921265 C372.90357064 115.88136366 375.73065392 114.54571415 378.56964111 113.21640015 C388.23740865 108.76110659 397.79725811 105.30011602 408.01885986 102.38046265 C411.66532989 101.33721467 415.27286363 100.19490594 418.88214111 99.02890015 C431.39951702 95.17620966 444.45163336 93.32038423 457.40386963 91.55062866 C459.45436667 91.26552062 461.5014921 90.95576097 463.54595947 90.63021851 C475.19567378 88.92506649 486.76735811 88.81546004 498.52740479 88.83822632 C501.92137042 88.84137853 505.31445483 88.81787183 508.70831299 88.79257202 C521.75037415 88.75581361 534.25619451 89.61280509 547.11256409 91.80732727 C550.29680286 92.32191396 553.48877023 92.67473751 556.69464111 93.02890015 C574.74348747 95.42091593 593.65493756 99.85519587 610.44854736 106.9859314 C612.85980244 107.98866473 615.27950203 108.93031346 617.72198486 109.8531189 C618.52837402 110.15943237 619.33476318 110.46574585 620.16558838 110.78134155 C621.78030664 111.39347369 623.39663101 112.00138982 625.01470947 112.60458374 C628.8814427 114.08194998 632.02750735 115.50739471 635.25714111 118.15390015 C637.58839041 119.15874898 639.92157649 120.15912262 642.25714111 121.15390015 C642.91714111 121.81390015 643.57714111 122.47390015 644.25714111 123.15390015 C645.80014893 123.79005249 645.80014893 123.79005249 647.37432861 124.4390564 C651.78110543 126.25676626 655.50204652 128.85186266 659.38214111 131.59140015 C660.07178955 132.0689978 660.76143799 132.54659546 661.47198486 133.03866577 C665.17704349 135.62087203 668.75895362 138.29402236 672.25714111 141.15390015 C673.18526611 141.85515015 674.11339111 142.55640015 675.06964111 143.27890015 C675.79151611 143.89765015 676.51339111 144.51640015 677.25714111 145.15390015 C677.25714111 145.81390015 677.25714111 146.47390015 677.25714111 147.15390015 C677.91714111 147.15390015 678.57714111 147.15390015 679.25714111 147.15390015 C681.88214111 149.52890015 681.88214111 149.52890015 684.25714111 152.15390015 C684.25714111 152.81390015 684.25714111 153.47390015 684.25714111 154.15390015 C684.91714111 154.15390015 685.57714111 154.15390015 686.25714111 154.15390015 C686.25714111 154.81390015 686.25714111 155.47390015 686.25714111 156.15390015 C686.91714111 156.15390015 687.57714111 156.15390015 688.25714111 156.15390015 C688.25714111 156.81390015 688.25714111 157.47390015 688.25714111 158.15390015 C689.24714111 158.48390015 690.23714111 158.81390015 691.25714111 159.15390015 C691.95865264 160.46923425 692.62240037 161.80507606 693.25714111 163.15390015 C694.23467755 164.17587006 695.23772922 165.1736964 696.25714111 166.15390015 C696.77155762 166.99871948 697.28597412 167.84353882 697.815979 168.71395874 C700.7015484 171.5980852 702.47512005 171.74337319 706.47550964 171.79589844 C707.28903397 171.78255463 708.10255829 171.76921082 708.94073486 171.75546265 C709.79208511 171.76346893 710.64343536 171.77147522 711.52058411 171.77972412 C714.24575197 171.80278672 716.96943363 171.79336387 719.69464111 171.77890015 C723.25612335 171.77376971 726.81689644 171.78510492 730.37823486 171.81796265 C731.66194473 171.82971527 731.66194473 171.82971527 732.97158813 171.84170532 C740.0439536 171.98569248 746.46621021 173.09481047 753.25714111 175.15390015 C753.25714111 175.81390015 753.25714111 176.47390015 753.25714111 177.15390015 C754.57714111 177.48390015 755.89714111 177.81390015 757.25714111 178.15390015 C757.25714111 178.81390015 757.25714111 179.47390015 757.25714111 180.15390015 C758.14401611 180.19515015 759.03089111 180.23640015 759.94464111 180.27890015 C763.6702947 181.26303506 764.78265288 182.57045444 767.03839111 185.60702515 C768.79703156 187.83914572 771.03962574 189.39125972 773.25714111 191.15390015 C775.86666204 194.05336784 777.67830841 196.24677943 778.25714111 200.15390015 C778.91714111 200.15390015 779.57714111 200.15390015 780.25714111 200.15390015 C780.25714111 201.14390015 780.25714111 202.13390015 780.25714111 203.15390015 C780.91714111 203.15390015 781.57714111 203.15390015 782.25714111 203.15390015 C782.91714111 206.45390015 783.57714111 209.75390015 784.25714111 213.15390015 C784.91714111 213.15390015 785.57714111 213.15390015 786.25714111 213.15390015 C787.2386595 218.05825794 787.39760637 222.82727124 787.38298225 227.80905151 C787.38443569 228.67187083 787.38588914 229.53469015 787.38738662 230.42365551 C787.39104389 233.32268702 787.38756143 236.22166587 787.38412476 239.12069702 C787.38527668 241.21699806 787.38686468 243.31329889 787.388852 245.4095993 C787.39303551 251.17646447 787.39095901 256.94331314 787.38786578 262.71017838 C787.38560795 268.92701582 787.38909322 275.14385038 787.3918457 281.36068726 C787.39604079 292.83762813 787.39566962 304.31456164 787.39293423 315.79150248 C787.39041972 326.3936662 787.38976149 336.99582799 787.39095688 347.59799194 C787.39107146 348.65246341 787.39107146 348.65246341 787.39118835 349.72823733 C787.39149968 352.58179123 787.39181808 355.43534513 787.39214811 358.28889903 C787.39520783 385.06313185 787.39243251 411.83736131 787.38705122 438.6115936 C787.38230553 462.40434342 787.38273016 486.19708788 787.38751221 509.98983765 C787.39286562 536.71477592 787.39499085 563.43971123 787.39189994 590.16464996 C787.39157922 593.01303609 787.39126638 595.86142222 787.39095688 598.70980835 C787.3908778 599.41116525 787.39079872 600.11252216 787.39071725 600.8351323 C787.38957928 611.43121654 787.39091099 622.02729863 787.39343643 632.62338257 C787.39629334 644.6703327 787.39548944 656.71727512 787.39015569 668.76422501 C787.38752298 674.91372283 787.38650637 681.06320977 787.38980484 687.21270752 C787.3927766 692.83807533 787.3911602 698.46342214 787.38582729 704.08878803 C787.38470688 706.1277327 787.385286 708.16667913 787.38770308 710.20562267 C787.39072969 712.97002351 787.38763895 715.73435177 787.38298225 718.49874878 C787.38532342 719.2962791 787.38766459 720.09380941 787.3900767 720.91550732 C787.37591973 725.10077351 787.07881326 729.04824686 786.25714111 733.15390015 C785.59714111 733.15390015 784.93714111 733.15390015 784.25714111 733.15390015 C784.11276611 734.24702515 783.96839111 735.34015015 783.81964111 736.46640015 C783.25714111 740.15390015 783.25714111 740.15390015 782.25714111 743.15390015 C781.59714111 743.15390015 780.93714111 743.15390015 780.25714111 743.15390015 C780.19526611 744.06140015 780.13339111 744.96890015 780.06964111 745.90390015 C779.06250719 749.93243583 777.54127637 750.77290208 774.25714111 753.15390015 C773.92714111 754.14390015 773.59714111 755.13390015 773.25714111 756.15390015 C772.59714111 756.15390015 771.93714111 756.15390015 771.25714111 756.15390015 C770.92714111 757.14390015 770.59714111 758.13390015 770.25714111 759.15390015 C768.60642715 760.18001963 766.93744105 761.17698158 765.25714111 762.15390015 C764.20526611 763.23671265 764.20526611 763.23671265 763.13214111 764.34140015 C761.25714111 766.15390015 761.25714111 766.15390015 758.25714111 766.15390015 C758.25714111 766.81390015 758.25714111 767.47390015 758.25714111 768.15390015 C756.60714111 768.48390015 754.95714111 768.81390015 753.25714111 769.15390015 C753.25714111 769.81390015 753.25714111 770.47390015 753.25714111 771.15390015 C744.4346501 773.53516887 736.3129574 774.58452176 727.19078064 774.5146637 C725.94235675 774.51722697 724.69393286 774.51979025 723.40767795 774.52243119 C719.98217576 774.52648465 716.55720008 774.51723861 713.13176215 774.50209701 C709.42302705 774.48904187 705.71430584 774.49353275 702.0055542 774.49580383 C695.59309294 774.49737063 689.18072384 774.4880239 682.76828575 774.47109032 C673.49719435 774.44662381 664.22614714 774.43888725 654.95502696 774.43512634 C639.91028004 774.42857381 624.86558215 774.4086453 609.82086182 774.38021851 C595.21344242 774.35264683 580.60603638 774.33142849 565.99859619 774.31869507 C565.09695194 774.3179069 564.19530768 774.31711873 563.26634087 774.31630667 C558.74268562 774.31239133 554.21903026 774.30860026 549.69537485 774.30487096 C512.215929 774.2738124 474.73653889 774.2210094 437.25714111 774.15390015 C436.81362305 775.53799072 436.81362305 775.53799072 436.36114502 776.95004272 C424.43288014 811.56627891 389.43819767 838.3909943 357.91583252 853.80404663 C338.6533963 863.01148129 316.68086337 868.74527329 295.25714111 869.15390015 C293.6831958 869.21190796 293.6831958 869.21190796 292.07745361 869.27108765 C251.92492864 870.10566669 208.76089411 856.21805685 179.34698486 828.16171265 C178.65733643 827.49913452 177.96768799 826.8365564 177.25714111 826.15390015 C175.90813415 825.00199667 174.55412067 823.85592492 173.19464111 822.71640015 C158.91532097 810.21482669 147.23267108 793.35897423 139.25714111 776.15390015 C139.25714111 775.49390015 139.25714111 774.83390015 139.25714111 774.15390015 C138.62093867 774.15503931 137.98473623 774.15617847 137.32925493 774.15735215 C99.59277036 774.22453857 61.85629467 774.27598618 24.1197625 774.30709613 C19.58507024 774.31084809 15.05037811 774.31473108 10.51568604 774.31869507 C9.61293979 774.319482 8.71019355 774.32026893 7.78009137 774.32107971 C-6.82226169 774.33412089 -21.42457918 774.35776763 -36.02691116 774.38535853 C-51.01884624 774.41344858 -66.01076273 774.43008401 -81.00272304 774.43616563 C-90.24781365 774.44027461 -99.49280374 774.45323574 -108.7378634 774.47764955 C-115.08418259 774.4935512 -121.43045007 774.49829051 -127.77678772 774.49440428 C-131.43407333 774.4924896 -135.09118371 774.49535026 -138.74843788 774.51151657 C-142.72452161 774.52896268 -146.70038074 774.52282749 -150.67649841 774.5146637 C-151.81758881 774.52340222 -152.9586792 774.53214074 -154.13434809 774.54114407 C-162.00758153 774.49765412 -169.14821277 773.20376262 -176.74285889 771.15390015 C-176.74285889 770.49390015 -176.74285889 769.83390015 -176.74285889 769.15390015 C-178.39285889 768.82390015 -180.04285889 768.49390015 -181.74285889 768.15390015 C-181.74285889 767.49390015 -181.74285889 766.83390015 -181.74285889 766.15390015 C-182.48535889 766.09202515 -183.22785889 766.03015015 -183.99285889 765.96640015 C-187.58449031 764.90523632 -188.52118973 763.09223677 -190.74285889 760.15390015 C-192.85946316 758.84224758 -192.85946316 758.84224758 -194.74285889 758.15390015 C-194.74285889 757.49390015 -194.74285889 756.83390015 -194.74285889 756.15390015 C-195.40285889 756.15390015 -196.06285889 756.15390015 -196.74285889 756.15390015 C-197.23785889 754.66890015 -197.23785889 754.66890015 -197.74285889 753.15390015 C-198.98035889 752.25671265 -198.98035889 752.25671265 -200.24285889 751.34140015 C-203.28679279 748.67795798 -203.47373084 747.10111146 -203.74285889 743.15390015 C-204.40285889 743.15390015 -205.06285889 743.15390015 -205.74285889 743.15390015 C-207.0591258 739.53416613 -207.74285889 737.05822884 -207.74285889 733.15390015 C-208.40285889 733.15390015 -209.06285889 733.15390015 -209.74285889 733.15390015 C-210.72437727 728.24954236 -210.88332414 723.48052905 -210.86870003 718.49874878 C-210.87015347 717.63592946 -210.87160691 716.77311014 -210.87310439 715.88414478 C-210.87676166 712.98511327 -210.8732792 710.08613442 -210.86984253 707.18710327 C-210.87099445 705.09080223 -210.87258246 702.9945014 -210.87456977 700.89820099 C-210.87875329 695.13133582 -210.87667678 689.36448715 -210.87358356 683.59762192 C-210.87132572 677.38078447 -210.87481099 671.16394991 -210.87756348 664.94711304 C-210.88175856 653.47017216 -210.88138739 641.99323866 -210.87865201 630.51629782 C-210.87613749 619.9141341 -210.87547927 609.31197231 -210.87667465 598.70980835 C-210.87675104 598.00682737 -210.87682742 597.30384639 -210.87690612 596.57956296 C-210.87721746 593.72600906 -210.87753585 590.87245516 -210.87786589 588.01890126 C-210.88092561 561.24466844 -210.87815028 534.47043899 -210.87276899 507.69620669 C-210.86802331 483.90345688 -210.86844793 460.11071241 -210.87322998 436.31796265 C-210.8785834 409.59302437 -210.88070862 382.86808907 -210.87761772 356.14315033 C-210.87729699 353.2947642 -210.87698415 350.44637807 -210.87667465 347.59799194 C-210.87659557 346.89663504 -210.8765165 346.19527814 -210.87643502 345.47266799 C-210.87529705 334.87658376 -210.87662876 324.28050166 -210.87915421 313.68441772 C-210.88201111 301.6374676 -210.88120721 289.59052517 -210.87587346 277.54357529 C-210.87324075 271.39407747 -210.87222415 265.24459052 -210.87552261 259.09509277 C-210.87849437 253.46972496 -210.87687797 247.84437815 -210.87154506 242.21901226 C-210.87042466 240.18006759 -210.87100377 238.14112116 -210.87342085 236.10217762 C-210.87644746 233.33777678 -210.87335672 230.57344852 -210.86870003 227.80905151 C-210.87221178 226.61275604 -210.87221178 226.61275604 -210.87579447 225.39229298 C-210.8616375 221.20702678 -210.56453103 217.25955343 -209.74285889 213.15390015 C-209.08285889 213.15390015 -208.42285889 213.15390015 -207.74285889 213.15390015 C-207.59848389 212.06077515 -207.45410889 210.96765015 -207.30535889 209.84140015 C-206.74285889 206.15390015 -206.74285889 206.15390015 -205.74285889 203.15390015 C-205.08285889 203.15390015 -204.42285889 203.15390015 -203.74285889 203.15390015 C-203.74285889 202.16390015 -203.74285889 201.17390015 -203.74285889 200.15390015 C-203.08285889 200.15390015 -202.42285889 200.15390015 -201.74285889 200.15390015 C-201.51598389 199.24640015 -201.28910889 198.33890015 -201.05535889 197.40390015 C-199.52009479 193.6022938 -198.02631183 192.52104064 -194.74285889 190.15390015 C-192.30875344 187.83570448 -190.10890944 185.70297597 -188.24285889 182.90390015 C-186.27153707 180.60402469 -184.68821009 180.47231649 -181.74285889 180.15390015 C-181.74285889 179.49390015 -181.74285889 178.83390015 -181.74285889 178.15390015 C-180.09285889 177.82390015 -178.44285889 177.49390015 -176.74285889 177.15390015 C-176.74285889 176.49390015 -176.74285889 175.83390015 -176.74285889 175.15390015 C-169.03784181 172.81764885 -161.87418883 171.89129799 -153.86395264 171.81796265 C-152.99726959 171.80996643 -152.13058655 171.80197021 -151.23764038 171.79373169 C-147.63170001 171.77363183 -144.02629337 171.77441045 -140.42034912 171.79354858 C-137.75516259 171.80209161 -135.09150389 171.78052538 -132.42645264 171.75546265 C-131.20616615 171.77547836 -131.20616615 171.77547836 -129.96122742 171.79589844 C-126.01762163 171.74411877 -124.19691052 171.601098 -121.33294678 168.78036499 C-120.80821777 167.91363159 -120.28348877 167.04689819 -119.74285889 166.15390015 C-119.04160889 165.28765015 -118.34035889 164.42140015 -117.61785889 163.52890015 C-115.6502463 161.10186524 -115.6502463 161.10186524 -113.74285889 158.15390015 C-113.08285889 158.15390015 -112.42285889 158.15390015 -111.74285889 158.15390015 C-111.74285889 157.49390015 -111.74285889 156.83390015 -111.74285889 156.15390015 C-111.08285889 156.15390015 -110.42285889 156.15390015 -109.74285889 156.15390015 C-109.74285889 155.49390015 -109.74285889 154.83390015 -109.74285889 154.15390015 C-109.08285889 154.15390015 -108.42285889 154.15390015 -107.74285889 154.15390015 C-107.47473389 153.55577515 -107.20660889 152.95765015 -106.93035889 152.34140015 C-105.74368482 150.15542161 -104.64686776 148.74057421 -102.74285889 147.15390015 C-102.08285889 147.15390015 -101.42285889 147.15390015 -100.74285889 147.15390015 C-100.74285889 146.49390015 -100.74285889 145.83390015 -100.74285889 145.15390015 C-99.10318679 143.78750673 -97.43175761 142.45895825 -95.74285889 141.15390015 C-95.10348389 140.45265015 -94.46410889 139.75140015 -93.80535889 139.02890015 C-91.29581405 136.74749575 -88.98488176 136.0380882 -85.74285889 135.15390015 C-85.74285889 134.49390015 -85.74285889 133.83390015 -85.74285889 133.15390015 C-83.5425933 131.55803769 -81.35531473 130.09223417 -79.05535889 128.65390015 C-78.42951904 128.25042358 -77.8036792 127.84694702 -77.15887451 127.4312439 C-73.77101968 125.28146376 -70.51479721 123.56581919 -66.74285889 122.15390015 C-66.12410889 121.67952515 -65.50535889 121.20515015 -64.86785889 120.71640015 C-62.6781738 119.10633758 -60.49266502 118.12163226 -57.98504639 117.09921265 C-55.09642936 115.88136366 -52.26934608 114.54571415 -49.43035889 113.21640015 C-41.00923815 109.33561125 -32.69036855 106.04984485 -23.80535889 103.40390015 C-23.05866943 103.18081177 -22.31197998 102.95772339 -21.54266357 102.72787476 C-18.5174626 101.85006941 -15.90941021 101.15390015 -12.74285889 101.15390015 C-12.75396194 99.97483597 -12.765065 98.79577179 -12.77650452 97.58097839 C-12.87784252 86.47193189 -12.95280622 75.36297909 -13.00191975 64.25357533 C-13.02801845 58.5420131 -13.06342228 52.83082387 -13.12005615 47.11947632 C-13.17436499 41.60813924 -13.20427736 36.09716102 -13.2172451 30.58557701 C-13.22648692 28.48238156 -13.24453409 26.37920586 -13.27150917 24.2761631 C-13.30778393 21.33108639 -13.31280482 18.38749423 -13.31048584 15.44223022 C-13.33745041 14.13671455 -13.33745041 14.13671455 -13.36495972 12.80482483 C-13.32733551 8.39162959 -13.17968242 6.70082203 -10.3323822 3.13587952 C-6.55268835 0.24296282 -4.71569829 0.02462685 0 0 Z " fill="#F8F7FE" transform="translate(223.74285888671875,38.846099853515625)"/>
<path d="M0 0 C1.86782768 0.01508275 3.73566722 0.02876476 5.60351562 0.04101562 C10.1318089 0.0737169 14.65951982 0.12529809 19.1875 0.1875 C18.5275 1.8375 17.8675 3.4875 17.1875 5.1875 C16.5275 5.1875 15.8675 5.1875 15.1875 5.1875 C15.043125 5.950625 14.89875 6.71375 14.75 7.5 C14.1875 10.1875 14.1875 10.1875 13.1875 13.1875 C12.5275 13.1875 11.8675 13.1875 11.1875 13.1875 C10.1975 17.4775 9.2075 21.7675 8.1875 26.1875 C7.5275 26.1875 6.8675 26.1875 6.1875 26.1875 C4.50082817 38.21747816 3.89641233 49.9755289 3.92007446 62.11419678 C3.91632854 63.96339135 3.91172331 65.81258434 3.90634382 67.66177487 C3.89421604 72.69478995 3.89436205 77.72773805 3.89673257 82.76076436 C3.89714331 88.20726477 3.88607762 93.65374443 3.87661743 99.10023499 C3.86006585 109.7496868 3.85451066 120.39911647 3.85339268 131.04858008 C3.85244001 139.70557971 3.84831889 148.36257207 3.84199142 157.0195694 C3.82439983 181.58915614 3.81515002 206.15872546 3.81665237 230.72831854 C3.81669226 231.38915723 3.81673215 232.04999592 3.81677325 232.73086002 C3.81685413 234.06723055 3.81693772 235.40360108 3.81702404 236.73997161 C3.81825045 257.54721602 3.80321245 278.35439531 3.77587891 299.16162109 C3.74513557 322.57375813 3.72797286 345.98585548 3.72980535 369.39801431 C3.73046883 381.7820534 3.72499379 394.16601898 3.70344925 406.5500412 C3.68523393 417.08726117 3.68089357 427.62437422 3.6944681 438.16160312 C3.7009941 443.53441363 3.70112765 448.90701901 3.6837616 454.27980995 C3.66801149 459.20329591 3.67091437 464.1264144 3.68832986 469.0498915 C3.6913953 470.82551304 3.68778468 472.60116214 3.67660971 474.37675115 C3.58027767 490.7761189 6.44843318 504.35604983 17.6875 517 C18.5125 517.721875 19.3375 518.44375 20.1875 519.1875 C20.6515625 519.65414062 21.115625 520.12078125 21.59375 520.6015625 C28.34067732 527.05083126 38.61013005 532.29732863 48.02321148 532.3261652 C49.5265479 532.33437687 49.5265479 532.33437687 51.06025475 532.34275442 C52.16432744 532.34373253 53.26840013 532.34471064 54.40592957 532.34571838 C56.16161844 532.35312535 56.16161844 532.35312535 57.95277578 532.36068195 C61.20684973 532.37341063 64.46090051 532.38168541 67.71499193 532.38810861 C71.22214192 532.39610647 74.7292701 532.40980636 78.23640442 532.42282104 C84.31450404 532.44459251 90.39260586 532.46273455 96.47072411 532.47842598 C105.25871068 532.5011185 114.04667312 532.52926218 122.83463923 532.55874526 C137.09181589 532.60642875 151.34900241 532.64969088 165.60620117 532.69018555 C179.45744596 532.72953662 193.30868198 532.77096191 207.15991211 532.81518555 C208.44015096 532.81927196 208.44015096 532.81927196 209.74625321 532.82344092 C214.0278858 532.83712033 218.30951825 532.85084062 222.59115064 532.86458123 C258.12324893 532.9785579 293.65536578 533.08536462 329.1875 533.1875 C329.38375977 534.26563965 329.58001953 535.3437793 329.78222656 536.45458984 C330.04739261 537.89423031 330.31269961 539.33384482 330.578125 540.7734375 C330.70654785 541.48105225 330.8349707 542.18866699 330.96728516 542.91772461 C333.62234722 557.25670885 338.5628494 571.3814493 348.12109375 582.63671875 C349.1875 584.1875 349.1875 584.1875 349.1875 587.1875 C350.1775 587.5175 351.1675 587.8475 352.1875 588.1875 C356.1875 592.64464286 356.1875 592.64464286 356.1875 595.1875 C356.77789062 595.45433594 357.36828125 595.72117187 357.9765625 595.99609375 C360.2260904 597.20829518 361.72266017 598.48924831 363.5625 600.25 C387.47303042 621.54323674 416.39277293 625.67673696 447.1875 624.1875 C453.10972373 623.55537992 458.57756469 622.15194348 464.1875 620.1875 C465.23808594 619.82527344 466.28867187 619.46304688 467.37109375 619.08984375 C480.38758313 614.09652208 493.20019386 606.58441159 502.86328125 596.42578125 C504.1875 595.1875 504.1875 595.1875 506.1875 595.1875 C506.455625 594.61 506.72375 594.0325 507 593.4375 C508.21679189 591.13199957 509.49083879 589.16693808 511.1875 587.1875 C511.8475 587.1875 512.5075 587.1875 513.1875 587.1875 C513.28417969 586.63578125 513.38085938 586.0840625 513.48046875 585.515625 C514.36650478 582.59806989 515.80869424 580.47264783 517.5 577.9375 C526.45304788 564.12422613 530.91319981 549.46239696 533.1875 533.1875 C533.7865918 533.18804207 534.38568359 533.18858415 535.00292969 533.18914264 C570.56021753 533.2204262 606.11731862 533.21513867 641.67458403 533.16277504 C645.95004785 533.15651018 650.22551205 533.15054891 654.50097656 533.14477539 C655.35209542 533.14362095 656.20321428 533.14246651 657.08012462 533.14127708 C670.83659008 533.12334099 684.59293859 533.12996364 698.34940195 533.14576416 C712.47923211 533.16144303 726.60886341 533.15049367 740.73865891 533.11515242 C749.44798811 533.09419818 758.15681536 533.09367523 766.86613262 533.11981983 C772.84958106 533.1357859 778.83264489 533.12573864 784.81603825 533.09583985 C788.2613046 533.0793734 791.70561172 533.07379542 795.15084457 533.09931374 C812.84861023 533.20192412 828.13669901 532.30537786 842.1640625 520.3203125 C849.38245817 512.71173328 854.19958776 504.23493547 857.1875 494.1875 C857.52785837 493.30261503 857.86821674 492.41773005 858.218889 491.50603038 C859.30503937 487.78480172 859.46512847 484.39259766 859.43918228 480.55585766 C859.44208916 479.80368142 859.44499604 479.05150518 859.44799101 478.27653572 C859.45529514 475.75378956 859.44834572 473.2312863 859.44146729 470.70854187 C859.44377156 468.88248995 859.44694786 467.05643895 859.45092177 465.23038989 C859.45928317 460.21039915 859.45513835 455.19048429 859.44894934 450.17049325 C859.44443127 444.75728279 859.45140547 439.34408554 859.45690918 433.93087769 C859.46581225 423.3247027 859.46387694 412.71855598 859.4580839 402.11237987 C859.4535703 393.49226896 859.4529532 384.87216597 859.45513153 376.25205421 C859.455438 375.02598063 859.45574446 373.79990705 859.45606022 372.53667972 C859.45669966 370.0460295 859.45734808 367.55537929 859.4580054 365.06472907 C859.46371155 341.69714347 859.45714669 318.32957354 859.44640467 294.96199051 C859.43736463 274.91028055 859.4390181 254.85859443 859.44824219 234.80688477 C859.45894554 211.52854382 859.46315867 188.25021664 859.45701766 164.97187358 C859.45638056 162.48938008 859.45575182 160.00688658 859.45513153 157.52439308 C859.45482298 156.30292857 859.45451443 155.08146406 859.45419653 153.82298547 C859.45246954 145.21447787 859.45538486 136.605979 859.46009064 127.99747276 C859.46570034 117.50454263 859.46418126 107.01164241 859.45352915 96.5187157 C859.44827315 91.16476281 859.44621448 85.8108598 859.45282745 80.45690727 C859.45879063 75.55487051 859.4555056 70.65292985 859.44487235 65.7509018 C859.44263986 63.97838996 859.44377122 62.20587 859.44862393 60.4333634 C859.46964443 52.11680322 859.46764888 44.25919319 857.1875 36.1875 C856.93781899 34.33844722 856.7196161 32.48420718 856.5625 30.625 C856.48773437 29.77808594 856.41296875 28.93117187 856.3359375 28.05859375 C856.28695312 27.44113281 856.23796875 26.82367188 856.1875 26.1875 C855.5275 26.1875 854.8675 26.1875 854.1875 26.1875 C853.68237756 24.58493892 853.18358373 22.98038208 852.6875 21.375 C852.26984375 20.03501953 852.26984375 20.03501953 851.84375 18.66796875 C851.1875 16.1875 851.1875 16.1875 851.1875 13.1875 C850.5275 13.1875 849.8675 13.1875 849.1875 13.1875 C847.93085022 10.28149739 847.1875 8.39145416 847.1875 5.1875 C846.5275 5.1875 845.8675 5.1875 845.1875 5.1875 C844.5275 3.5375 843.8675 1.8875 843.1875 0.1875 C848.64604803 0.11251466 854.10428652 0.05850927 859.56323242 0.02270508 C861.41452263 0.00775587 863.26577829 -0.01261097 865.11694336 -0.03881836 C875.9240039 -0.18782082 885.76600724 -0.01809383 896.1875 3.1875 C896.1875 3.8475 896.1875 4.5075 896.1875 5.1875 C897.5075 5.5175 898.8275 5.8475 900.1875 6.1875 C900.1875 6.8475 900.1875 7.5075 900.1875 8.1875 C901.074375 8.22875 901.96125 8.27 902.875 8.3125 C906.60065359 9.29663491 907.71301176 10.60405429 909.96875 13.640625 C911.72739045 15.87274557 913.96998462 17.42485957 916.1875 19.1875 C918.79702093 22.0869677 920.6086673 24.28037928 921.1875 28.1875 C921.8475 28.1875 922.5075 28.1875 923.1875 28.1875 C923.1875 29.1775 923.1875 30.1675 923.1875 31.1875 C923.8475 31.1875 924.5075 31.1875 925.1875 31.1875 C925.8475 34.4875 926.5075 37.7875 927.1875 41.1875 C927.8475 41.1875 928.5075 41.1875 929.1875 41.1875 C930.16901839 46.09185779 930.32796526 50.86087109 930.31334114 55.84265137 C930.31479458 56.70547069 930.31624802 57.56829 930.31774551 58.45725536 C930.32140278 61.35628688 930.31792031 64.25526572 930.31448364 67.15429688 C930.31563557 69.25059791 930.31722357 71.34689875 930.31921089 73.44319916 C930.3233944 79.21006433 930.3213179 84.97691299 930.31822467 90.74377823 C930.31596684 96.96061567 930.3194521 103.17745023 930.32220459 109.39428711 C930.32639968 120.87122799 930.32602851 132.34816149 930.32329312 143.82510233 C930.3207786 154.42726605 930.32012038 165.02942784 930.32131577 175.6315918 C930.32143034 176.68606326 930.32143034 176.68606326 930.32154724 177.76183718 C930.32185857 180.61539109 930.32217697 183.46894499 930.322507 186.32249889 C930.32556672 213.0967317 930.32279139 239.87096116 930.3174101 266.64519346 C930.31266442 290.43794327 930.31308904 314.23068773 930.31787109 338.0234375 C930.32322451 364.74837577 930.32534973 391.47331108 930.32225883 418.19824982 C930.32193811 421.04663594 930.32162527 423.89502207 930.32131577 426.7434082 C930.32123669 427.44476511 930.32115761 428.14612201 930.32107614 428.86873215 C930.31993816 439.46481639 930.32126988 450.06089848 930.32379532 460.65698242 C930.32665222 472.70393255 930.32584833 484.75087497 930.32051457 496.79782486 C930.31788187 502.94732268 930.31686526 509.09680963 930.32016373 515.24630737 C930.32313548 520.87167518 930.32151908 526.49702199 930.31618617 532.12238789 C930.31506577 534.16133255 930.31564489 536.20027898 930.31806196 538.23922253 C930.32108857 541.00362337 930.31799784 543.76795162 930.31334114 546.53234863 C930.31568231 547.32987895 930.31802347 548.12740927 930.32043558 548.94910717 C930.30627861 553.13437336 930.00917215 557.08184671 929.1875 561.1875 C928.5275 561.1875 927.8675 561.1875 927.1875 561.1875 C927.043125 562.280625 926.89875 563.37375 926.75 564.5 C926.1875 568.1875 926.1875 568.1875 925.1875 571.1875 C924.5275 571.1875 923.8675 571.1875 923.1875 571.1875 C923.125625 572.095 923.06375 573.0025 923 573.9375 C921.99286608 577.96603569 920.47163526 578.80650194 917.1875 581.1875 C916.8575 582.1775 916.5275 583.1675 916.1875 584.1875 C915.5275 584.1875 914.8675 584.1875 914.1875 584.1875 C913.8575 585.1775 913.5275 586.1675 913.1875 587.1875 C911.53678604 588.21361949 909.86779994 589.21058143 908.1875 590.1875 C907.135625 591.2703125 907.135625 591.2703125 906.0625 592.375 C904.1875 594.1875 904.1875 594.1875 901.1875 594.1875 C901.1875 594.8475 901.1875 595.5075 901.1875 596.1875 C899.5375 596.5175 897.8875 596.8475 896.1875 597.1875 C896.1875 597.8475 896.1875 598.5075 896.1875 599.1875 C887.36500898 601.56876873 879.24331629 602.61812161 870.12113953 602.54826355 C868.87271564 602.55082682 867.62429175 602.5533901 866.33803684 602.55603105 C862.91253465 602.5600845 859.48755897 602.55083847 856.06212103 602.53569686 C852.35338594 602.52264172 848.64466473 602.5271326 844.93591309 602.52940369 C838.52345183 602.53097048 832.11108272 602.52162376 825.69864464 602.50469017 C816.42755324 602.48022367 807.15650603 602.47248711 797.88538585 602.4687262 C782.84063893 602.46217367 767.79594103 602.44224515 752.7512207 602.41381836 C738.14380131 602.38624668 723.53639527 602.36502835 708.92895508 602.35229492 C708.02731082 602.35150675 707.12566657 602.35071858 706.19669976 602.34990653 C701.6730445 602.34599118 697.14938915 602.34220011 692.62573373 602.33847082 C655.14628789 602.30741225 617.66689777 602.25460925 580.1875 602.1875 C579.74398193 603.57159058 579.74398193 603.57159058 579.29150391 604.98364258 C567.36323903 639.59987876 532.36855656 666.42459416 500.84619141 681.83764648 C481.58375519 691.04508114 459.61122226 696.77887314 438.1875 697.1875 C436.61355469 697.24550781 436.61355469 697.24550781 435.0078125 697.3046875 C394.85528753 698.13926654 351.69125299 684.2516567 322.27734375 656.1953125 C321.58769531 655.53273438 320.89804687 654.87015625 320.1875 654.1875 C318.83849304 653.03559653 317.48447956 651.88952478 316.125 650.75 C301.84567986 638.24842654 290.16302997 621.39257409 282.1875 604.1875 C282.1875 603.5275 282.1875 602.8675 282.1875 602.1875 C281.55129756 602.18863916 280.91509512 602.18977832 280.25961381 602.190952 C242.52312925 602.25813842 204.78665355 602.30958604 167.05012139 602.34069599 C162.51542913 602.34444795 157.980737 602.34833093 153.44604492 602.35229492 C152.54329868 602.35308185 151.64055244 602.35386878 150.71045025 602.35467956 C136.1080972 602.36772075 121.50577971 602.39136748 106.90344772 602.41895839 C91.91151265 602.44704844 76.91959616 602.46368386 61.92763585 602.46976548 C52.68254523 602.47387446 43.43755515 602.48683559 34.19249549 602.5112494 C27.8461763 602.52715105 21.49990881 602.53189036 15.15357117 602.52800413 C11.49628555 602.52608945 7.83917518 602.52895011 4.18192101 602.54511642 C0.20583727 602.56256254 -3.77002185 602.55642735 -7.74613953 602.54826355 C-8.88722992 602.55700207 -10.02832032 602.5657406 -11.20398921 602.57474393 C-19.07722264 602.53125397 -26.21785389 601.23736248 -33.8125 599.1875 C-33.8125 598.5275 -33.8125 597.8675 -33.8125 597.1875 C-35.4625 596.8575 -37.1125 596.5275 -38.8125 596.1875 C-38.8125 595.5275 -38.8125 594.8675 -38.8125 594.1875 C-39.555 594.125625 -40.2975 594.06375 -41.0625 594 C-44.65413143 592.93883617 -45.59083085 591.12583662 -47.8125 588.1875 C-49.92910427 586.87584743 -49.92910427 586.87584743 -51.8125 586.1875 C-51.8125 585.5275 -51.8125 584.8675 -51.8125 584.1875 C-52.4725 584.1875 -53.1325 584.1875 -53.8125 584.1875 C-54.3075 582.7025 -54.3075 582.7025 -54.8125 581.1875 C-56.05 580.2903125 -56.05 580.2903125 -57.3125 579.375 C-60.35643391 576.71155783 -60.54337196 575.13471131 -60.8125 571.1875 C-61.4725 571.1875 -62.1325 571.1875 -62.8125 571.1875 C-64.12876692 567.56776598 -64.8125 565.09182869 -64.8125 561.1875 C-65.4725 561.1875 -66.1325 561.1875 -66.8125 561.1875 C-67.79401839 556.28314221 -67.95296526 551.51412891 -67.93834114 546.53234863 C-67.93979458 545.66952931 -67.94124802 544.80671 -67.94274551 543.91774464 C-67.94640278 541.01871312 -67.94292031 538.11973428 -67.93948364 535.22070312 C-67.94063557 533.12440209 -67.94222357 531.02810125 -67.94421089 528.93180084 C-67.9483944 523.16493567 -67.9463179 517.39808701 -67.94322467 511.63122177 C-67.94096684 505.41438433 -67.9444521 499.19754977 -67.94720459 492.98071289 C-67.95139968 481.50377201 -67.95102851 470.02683851 -67.94829312 458.54989767 C-67.9457786 447.94773395 -67.94512038 437.34557216 -67.94631577 426.7434082 C-67.94639215 426.04042723 -67.94646854 425.33744625 -67.94654724 424.61316282 C-67.94685857 421.75960891 -67.94717697 418.90605501 -67.947507 416.05250111 C-67.95056672 389.2782683 -67.94779139 362.50403884 -67.9424101 335.72980654 C-67.93766442 311.93705673 -67.93808904 288.14431227 -67.94287109 264.3515625 C-67.94822451 237.62662423 -67.95034973 210.90168892 -67.94725883 184.17675018 C-67.94693811 181.32836406 -67.94662527 178.47997793 -67.94631577 175.6315918 C-67.94623669 174.93023489 -67.94615761 174.22887799 -67.94607614 173.50626785 C-67.94493816 162.91018361 -67.94626988 152.31410152 -67.94879532 141.71801758 C-67.95165222 129.67106745 -67.95084833 117.62412503 -67.94551457 105.57717514 C-67.94288187 99.42767732 -67.94186526 93.27819037 -67.94516373 87.12869263 C-67.94813548 81.50332482 -67.94651908 75.87797801 -67.94118617 70.25261211 C-67.94006577 68.21366745 -67.94064489 66.17472102 -67.94306196 64.13577747 C-67.94608857 61.37137663 -67.94299784 58.60704838 -67.93834114 55.84265137 C-67.94185289 54.64635589 -67.94185289 54.64635589 -67.94543558 53.42589283 C-67.93127861 49.24062664 -67.63417215 45.29315329 -66.8125 41.1875 C-66.1525 41.1875 -65.4925 41.1875 -64.8125 41.1875 C-64.668125 40.094375 -64.52375 39.00125 -64.375 37.875 C-63.8125 34.1875 -63.8125 34.1875 -62.8125 31.1875 C-62.1525 31.1875 -61.4925 31.1875 -60.8125 31.1875 C-60.8125 30.1975 -60.8125 29.2075 -60.8125 28.1875 C-60.1525 28.1875 -59.4925 28.1875 -58.8125 28.1875 C-58.4721875 26.82625 -58.4721875 26.82625 -58.125 25.4375 C-56.5897359 21.63589366 -55.09595294 20.55464049 -51.8125 18.1875 C-49.37839455 15.86930433 -47.17855055 13.73657583 -45.3125 10.9375 C-43.34117818 8.63762455 -41.7578512 8.50591635 -38.8125 8.1875 C-38.8125 7.5275 -38.8125 6.8675 -38.8125 6.1875 C-37.1625 5.8575 -35.5125 5.5275 -33.8125 5.1875 C-33.8125 4.5275 -33.8125 3.8675 -33.8125 3.1875 C-22.51520087 -0.28748705 -11.70151312 -0.16566117 0 0 Z " fill="#4DB2FE" transform="translate(80.8125,210.8125)"/>
<path d="M0 0 C19.69923773 15.90483713 32.37432295 39.09264031 37.08056641 63.85424805 C38.63652907 78.76429805 38.47115135 94.21723471 34.48291016 108.7097168 C34.30115234 109.54245117 34.11939453 110.37518555 33.93212891 111.2331543 C28.03898312 135.36698943 8.50020582 156.879231 -11.82958984 169.8972168 C-35.54322446 183.97981209 -63.75206123 188.76275111 -90.79052734 182.74487305 C-120.86254721 174.3915342 -143.94872581 156.05012535 -159.66552734 129.12768555 C-171.83679484 106.29991528 -174.35249891 77.54824552 -167.51708984 52.7097168 C-167.33533203 51.87698242 -167.15357422 51.04424805 -166.96630859 50.1862793 C-161.07316281 26.05244416 -141.5343855 4.5402026 -121.20458984 -8.4777832 C-82.37350268 -31.53803922 -35.19508517 -27.65477626 0 0 Z " fill="#17133D" transform="translate(356.51708984375,277.290283203125)"/>
<path d="M0 0 C19.69923773 15.90483713 32.37432295 39.09264031 37.08056641 63.85424805 C38.63652907 78.76429805 38.47115135 94.21723471 34.48291016 108.7097168 C34.30115234 109.54245117 34.11939453 110.37518555 33.93212891 111.2331543 C28.09961798 135.11867523 8.88263955 157.04078668 -11.51708984 169.7097168 C-35.85308519 183.66807702 -63.12426621 188.90247775 -90.79052734 182.74487305 C-119.55569981 174.75454736 -142.74273208 157.60666969 -157.76708984 131.6472168 C-171.14144281 107.90678224 -174.76748399 79.05621946 -167.51708984 52.7097168 C-167.33533203 51.87698242 -167.15357422 51.04424805 -166.96630859 50.1862793 C-161.07316281 26.05244416 -141.5343855 4.5402026 -121.20458984 -8.4777832 C-82.37350268 -31.53803922 -35.19508517 -27.65477626 0 0 Z " fill="#17133D" transform="translate(798.51708984375,276.290283203125)"/>
<path d="M0 0 C1.83381729 -0.0129007 1.83381729 -0.0129007 3.7046814 -0.02606201 C5.06689411 -0.03049738 6.42910727 -0.03479573 7.7913208 -0.03897095 C9.22028809 -0.04687119 10.64925337 -0.05514009 12.07821655 -0.06375122 C16.77846366 -0.08998233 21.47871972 -0.1052808 26.17901611 -0.11953735 C27.79662329 -0.12489675 29.41423041 -0.13027426 31.03183746 -0.13566971 C37.76076358 -0.15730081 44.48968728 -0.17603739 51.21863937 -0.1872921 C60.86377925 -0.20353 70.50851617 -0.23670092 80.15350413 -0.29369295 C86.93404928 -0.33239338 93.71448666 -0.35192494 100.49513936 -0.35721266 C104.54537149 -0.36086628 108.59517396 -0.37288773 112.64528656 -0.4053154 C116.45721344 -0.43539798 120.26845077 -0.44170768 124.08047104 -0.42993164 C125.47767838 -0.42971091 126.87491773 -0.43801588 128.27201462 -0.45558548 C140.10790204 -0.596299 140.10790204 -0.596299 144.08706665 2.04342651 C147.21399253 6.52540198 147.09665574 10.15050848 147.03009033 15.50497437 C147.04071157 16.55460578 147.0513328 17.60423719 147.06227589 18.68567562 C147.09052481 22.1937868 147.07612984 25.70041144 147.06182861 29.20858765 C147.07325439 31.70230896 147.08729315 34.1960195 147.10377502 36.68971252 C147.13684051 42.71480983 147.14252397 48.73936013 147.13538951 54.76449662 C147.12840639 61.71993695 147.15332435 68.6751488 147.18011796 75.63052762 C147.22550732 87.64435554 147.24481944 99.65805891 147.24688721 111.67196655 C147.24936406 125.75963063 147.29532562 139.84683816 147.35629272 153.93437958 C147.39204421 162.66370587 147.41427907 171.39307396 147.43613434 180.12244415 C147.44465256 183.22056358 147.4555539 186.31866794 147.46679688 189.41677856 C147.48323661 194.22873116 147.48923763 199.04058494 147.48671532 203.85256386 C147.48730521 205.59938323 147.49129826 207.34620523 147.49892616 209.09300804 C147.50861035 211.44813367 147.50604249 213.80292044 147.50006104 216.15805054 C147.50148605 217.47028091 147.50291107 218.78251129 147.50437927 220.13450623 C147.25714111 223.15390015 147.25714111 223.15390015 145.25714111 225.15390015 C140.89884154 224.89579442 138.48407707 223.08174942 135.19464111 220.34140015 C133.93973877 219.31079468 133.93973877 219.31079468 132.65948486 218.2593689 C129.60308729 215.58067249 126.80061705 212.72756919 124.00714111 209.77890015 C121.80859523 207.68028816 119.6946497 205.94079554 117.25714111 204.15390015 C113.94336228 201.72420783 111.13146483 199.10008196 108.25714111 196.15390015 C106.16274541 194.35128095 104.05447402 192.56822561 101.92901611 190.80233765 C100.25714111 189.15390015 100.25714111 189.15390015 99.25714111 186.15390015 C98.16272705 185.72077515 98.16272705 185.72077515 97.04620361 185.27890015 C93.50523523 183.85061038 91.39628501 181.77336434 88.63214111 179.15390015 C85.89238614 176.57177491 83.39128351 174.24332841 80.25714111 172.15390015 C80.25714111 171.49390015 80.25714111 170.83390015 80.25714111 170.15390015 C79.67448486 169.88577515 79.09182861 169.61765015 78.49151611 169.34140015 C76.22927511 168.13909024 74.45137794 166.81564102 72.50714111 165.15390015 C71.89354736 164.63827515 71.27995361 164.12265015 70.64776611 163.59140015 C69.25714111 162.15390015 69.25714111 162.15390015 69.25714111 160.15390015 C63.82324241 160.53300936 61.85903483 162.18258143 58.25714111 166.15390015 C53.60849246 170.15390015 53.60849246 170.15390015 51.25714111 170.15390015 C50.98901611 170.75202515 50.72089111 171.35015015 50.44464111 171.96640015 C48.54551763 175.46478552 47.0567775 176.88735468 43.25714111 178.15390015 C41.99201907 179.68809837 41.99201907 179.68809837 40.88214111 181.52890015 C38.71093273 184.73339444 36.71638267 186.3332467 33.25714111 188.15390015 C32.70026611 188.71077515 32.14339111 189.26765015 31.56964111 189.84140015 C31.13651611 190.27452515 30.70339111 190.70765015 30.25714111 191.15390015 C29.59714111 191.15390015 28.93714111 191.15390015 28.25714111 191.15390015 C27.88589111 192.08202515 27.88589111 192.08202515 27.50714111 193.02890015 C26.03468049 195.53208321 24.84685274 195.98435296 22.25714111 197.15390015 C21.92714111 197.81390015 21.59714111 198.47390015 21.25714111 199.15390015 C20.59714111 199.15390015 19.93714111 199.15390015 19.25714111 199.15390015 C18.98901611 199.79327515 18.72089111 200.43265015 18.44464111 201.09140015 C17.25714111 203.15390015 17.25714111 203.15390015 14.25714111 204.15390015 C12.91030225 205.55433188 12.91030225 205.55433188 11.63214111 207.27890015 C8.60179612 210.96670153 5.17966628 213.66825107 1.37042236 216.5171814 C-0.43661193 217.91671443 -2.02946964 219.33002331 -3.61785889 220.96640015 C-5.74285889 223.15390015 -5.74285889 223.15390015 -8.74285889 225.15390015 C-12.26010027 224.63665877 -12.26010027 224.63665877 -13.74285889 223.15390015 C-13.8432622 220.85629059 -13.87086461 218.55550864 -13.87225342 216.25570679 C-13.87396892 215.52242975 -13.87568441 214.78915272 -13.8774519 214.03365517 C-13.88183292 211.54376775 -13.8787879 209.053945 -13.87567139 206.5640564 C-13.87690285 204.76838658 -13.87847339 202.97271698 -13.88035583 201.17704773 C-13.88431966 195.19015035 -13.87664792 189.20329038 -13.86785889 183.21640015 C-13.86658871 182.19314888 -13.86531853 181.16989761 -13.86400986 180.11563873 C-13.84721407 166.59478085 -13.81410296 153.07400474 -13.77330494 139.55319977 C-13.74835881 130.98825058 -13.73383495 122.42331789 -13.72345304 113.85834229 C-13.70712597 100.54750589 -13.67074235 87.23690247 -13.60755539 73.92620182 C-13.57526963 67.03780238 -13.5511524 60.14958834 -13.54785156 53.2611084 C-13.54460305 46.72557576 -13.51563865 40.19050601 -13.46955299 33.65511131 C-13.45655038 31.23134605 -13.45211327 28.80751816 -13.45667076 26.38372231 C-13.46153472 23.0596082 -13.43577523 19.73709431 -13.40228271 16.41317749 C-13.41090899 15.43941194 -13.41953526 14.46564638 -13.42842293 13.46237278 C-13.34942508 8.83296551 -13.26443799 6.81848868 -10.3266449 3.07519531 C-6.53999488 0.25945424 -4.68234409 0.02445266 0 0 Z " fill="#FE6DAA" transform="translate(223.74285888671875,38.846099853515625)"/>
<path d="M0 0 C9.443491 6.60476625 9.443491 6.60476625 10.63671875 13.11328125 C10.79140625 14.72203125 10.79140625 14.72203125 10.94921875 16.36328125 C11.60921875 16.36328125 12.26921875 16.36328125 12.94921875 16.36328125 C12.98885742 17.0682373 13.02849609 17.77319336 13.06933594 18.49951172 C13.26190171 21.74706436 13.48039505 24.9923963 13.69921875 28.23828125 C13.76109375 29.346875 13.82296875 30.45546875 13.88671875 31.59765625 C14.48183944 40.0285327 15.77051603 47.70777312 21.44921875 54.23828125 C22.27421875 54.93953125 23.09921875 55.64078125 23.94921875 56.36328125 C24.56796875 57.04390625 25.18671875 57.72453125 25.82421875 58.42578125 C28.59049742 60.9479765 31.66098855 62.63156986 34.94921875 64.36328125 C35.55765625 64.70488281 36.16609375 65.04648437 36.79296875 65.3984375 C52.52105596 73.87484516 72.63786216 74.5808719 89.73046875 70.34765625 C101.21364627 66.8358107 112.31944685 62.37407869 119.13671875 52.05078125 C119.73484375 51.16390625 120.33296875 50.27703125 120.94921875 49.36328125 C121.60921875 49.36328125 122.26921875 49.36328125 122.94921875 49.36328125 C125.17995986 41.6713897 125.60761822 34.08662084 126.07226562 26.11914062 C126.7903271 15.83986422 129.56270047 9.65469414 136.94921875 2.36328125 C141.44022894 -1.36330167 145.23487211 -2.3974245 150.94921875 -2.63671875 C152.36654297 -2.73146484 152.36654297 -2.73146484 153.8125 -2.828125 C163.07381392 -3.19292898 169.14640476 -1.17149151 176.26171875 4.73828125 C181.51865486 9.62869791 184.70557433 14.12689284 185.1262207 21.44091797 C185.18122833 24.67431446 185.22587361 27.90683973 185.24438477 31.140625 C185.25579368 32.52126403 185.27606518 33.90186296 185.3059082 35.28222656 C185.56310103 47.20792737 183.5220027 57.27392664 178.94921875 68.36328125 C178.28921875 68.36328125 177.62921875 68.36328125 176.94921875 68.36328125 C176.60890625 69.60078125 176.60890625 69.60078125 176.26171875 70.86328125 C174.69980818 75.02837611 172.72071768 78.86337555 169.94921875 82.36328125 C169.28921875 82.36328125 168.62921875 82.36328125 167.94921875 82.36328125 C167.67335938 82.95496094 167.3975 83.54664063 167.11328125 84.15625 C157.48430276 102.41253472 134.03718893 112.83529463 115.51171875 119.17578125 C114.71531982 119.45357422 113.9189209 119.73136719 113.09838867 120.01757812 C99.14908127 124.57358515 85.03408716 125.94940034 70.44921875 125.86328125 C69.67528778 125.86218353 68.90135681 125.86108582 68.10397339 125.85995483 C49.51961882 125.78487857 30.90146179 123.41722047 13.94921875 115.36328125 C13.29066895 115.05455078 12.63211914 114.74582031 11.95361328 114.42773438 C5.14432688 111.21502148 -1.22382648 108.18994212 -7.05078125 103.36328125 C-7.83839844 102.91082031 -8.62601562 102.45835937 -9.4375 101.9921875 C-12.95097037 99.80217682 -15.84038386 97.11473813 -18.86328125 94.30078125 C-19.46076172 93.75873047 -20.05824219 93.21667969 -20.67382812 92.65820312 C-22.17470083 91.27053911 -23.61804515 89.82118987 -25.05078125 88.36328125 C-25.05078125 87.70328125 -25.05078125 87.04328125 -25.05078125 86.36328125 C-25.64761719 86.13511719 -26.24445313 85.90695312 -26.859375 85.671875 C-29.65547913 84.00218715 -30.55109385 82.26271356 -32.11328125 79.42578125 C-34.0037417 75.91924134 -34.0037417 75.91924134 -36.5703125 72.9296875 C-42.06234176 67.11885971 -43.65867356 57.07473242 -44.05078125 49.36328125 C-44.71078125 49.36328125 -45.37078125 49.36328125 -46.05078125 49.36328125 C-46.15059203 45.11326159 -46.22268637 40.8638853 -46.27050781 36.61303711 C-46.29046876 35.17085873 -46.31764788 33.72875965 -46.35253906 32.28686523 C-46.63394116 20.34796726 -45.21536339 12.08048196 -36.8515625 3.08984375 C-27.38056266 -5.99081119 -11.10587572 -6.6936942 0 0 Z " fill="#18143E" transform="translate(442.05078125,421.63671875)"/>
<path d="M0 0 C3 1 3 1 4.18359375 2.94140625 C4.59738281 3.80636719 5.01117188 4.67132813 5.4375 5.5625 C8.18727708 10.82144867 11.38855811 15.51385189 14.9375 20.25 C15.42726318 20.9107251 15.91702637 21.5714502 16.42163086 22.25219727 C21.61281186 29.09188851 27.42223871 34.97546071 34.4375 39.9375 C35.32659058 40.56809326 35.32659058 40.56809326 36.23364258 41.21142578 C54.66609036 53.91237314 74.99177356 60.22296226 97.3125 60.3125 C98.30209717 60.31797852 99.29169434 60.32345703 100.3112793 60.32910156 C106.21592374 60.27197096 111.73968651 59.65805236 117.51635742 58.42651367 C120.05967394 57.98975225 122.42479159 57.9276902 125 58 C132.36273385 76.47831747 133.75613304 96.09541655 127 115 C125.32663981 118.62891425 123.35927994 121.78130718 121 125 C120.12021484 126.26070312 120.12021484 126.26070312 119.22265625 127.546875 C109.87683492 140.16086698 96.41131405 147.54277342 81 150 C67.90709941 151.09936682 55.40129168 150.51359662 43 146 C41.98164063 145.63777344 40.96328125 145.27554688 39.9140625 144.90234375 C27.28012161 140.01125115 16.74665476 133.37852571 7 124 C5.77866536 122.9698092 4.55022303 121.94794203 3.3125 120.9375 C-12.14646543 107.64062764 -24.53764066 85.31446453 -27 65 C-27.29618845 60.89387811 -27.4048851 56.80362728 -27.4375 52.6875 C-27.44773193 51.69758057 -27.45796387 50.70766113 -27.46850586 49.68774414 C-27.27925552 33.82644822 -20.90099613 19.47574109 -10 8 C-6.84673054 5.08100019 -3.70731247 2.19277984 0 0 Z " fill="#FF99C4" transform="translate(193,401)"/>
<path d="M0 0 C13.5616854 6.56924827 21.86696472 18.14239391 27 32 C33.4689725 53.68744169 28.44056222 76.54854186 18.10742188 96.01757812 C3.62332075 121.9459073 -19.87628138 139.86959836 -48.125 148.23828125 C-65.3691721 152.80704967 -84.40976443 151.08510589 -100.1171875 142.71875 C-113.21068079 134.91233123 -123.32808539 122.62837448 -127.25 107.75 C-131.3529146 91.08203268 -129.62925007 73.78392874 -123 58 C-121.64567321 58.14433868 -120.29154775 58.29056661 -118.9375 58.4375 C-118.18339844 58.51871094 -117.42929687 58.59992188 -116.65234375 58.68359375 C-114.73044351 58.91286315 -112.81504986 59.19898784 -110.90625 59.51953125 C-79.34819633 63.40117185 -51.82493447 54.81391693 -27.03515625 35.58984375 C-20.70289872 30.18664331 -15.60066356 24.47163067 -10.875 17.625 C-10.37613281 16.92117188 -9.87726563 16.21734375 -9.36328125 15.4921875 C-5.8815583 10.51050557 -2.85657957 5.36257178 0 0 Z " fill="#FF99C4" transform="translate(827,400)"/>
<path d="M0 0 C11.31247224 8.57530438 21.66607031 22.13847553 24.08984375 36.51953125 C25.61534503 55.78604739 22.65923389 72.80122346 9.73828125 87.99609375 C-1.31726506 99.3876749 -15.94178585 107.14931445 -31.97998047 107.42529297 C-49.33524263 107.48674672 -63.86508385 102.30110183 -76.69921875 90.18359375 C-88.84085474 77.53513811 -94.09613076 63.12893057 -93.99804688 45.90820312 C-93.63234617 30.68748754 -87.15396371 16.63202396 -76.56640625 5.72265625 C-54.32669916 -13.97190725 -24.82985647 -16.70894827 0 0 Z " fill="#FFFFFF" transform="translate(350.69921875,283.81640625)"/>
<path d="M0 0 C11.31247224 8.57530438 21.66607031 22.13847553 24.08984375 36.51953125 C25.6351753 56.03649633 22.53188756 72.48417593 9.48046875 87.875 C-1.71290218 99.73034448 -15.92165775 106.98500156 -32.18212891 107.46264648 C-49.36657977 107.70292713 -64.06539235 102.11197807 -76.69921875 90.18359375 C-88.84085474 77.53513811 -94.09613076 63.12893057 -93.99804688 45.90820312 C-93.63234617 30.68748754 -87.15396371 16.63202396 -76.56640625 5.72265625 C-54.32669916 -13.97190725 -24.82985647 -16.70894827 0 0 Z " fill="#FFFFFF" transform="translate(740.69921875,282.81640625)"/>
<path d="M0 0 C4.34048798 3.02068221 7.47521474 7.11878867 8.82421875 12.26953125 C9.4477767 18.60903708 8.48838252 23.00440977 4.82421875 28.26953125 C0.54307414 32.90255076 -3.7597084 35.03188474 -9.98828125 35.64453125 C-15.34239213 35.48289771 -19.79139298 33.47282674 -23.71875 29.84375 C-27.91818404 25.07782339 -29.68100344 20.7706412 -29.48828125 14.38671875 C-28.71488708 9.14697322 -26.18739864 4.8742445 -22.23828125 1.39453125 C-14.86154362 -3.72402139 -7.86778296 -4.3744255 0 0 Z " fill="#FFFFFF" transform="translate(267.17578125,373.73046875)"/>
<path d="M0 0 C4.34048798 3.02068221 7.47521474 7.11878867 8.82421875 12.26953125 C9.4477767 18.60903708 8.48838252 23.00440977 4.82421875 28.26953125 C0.54307414 32.90255076 -3.7597084 35.03188474 -9.98828125 35.64453125 C-15.34239213 35.48289771 -19.79139298 33.47282674 -23.71875 29.84375 C-27.91818404 25.07782339 -29.68100344 20.7706412 -29.48828125 14.38671875 C-28.71488708 9.14697322 -26.18739864 4.8742445 -22.23828125 1.39453125 C-14.86154362 -3.72402139 -7.86778296 -4.3744255 0 0 Z " fill="#FFFFFF" transform="translate(775.17578125,372.73046875)"/>
<path d="M0 0 C0.66 0.33 1.32 0.66 2 1 C1.07038578 2.15224028 0.1309875 3.29659176 -0.8125 4.4375 C-1.59560547 5.39462891 -1.59560547 5.39462891 -2.39453125 6.37109375 C-4 8 -4 8 -7 9 C-5.44499019 5.18315774 -2.96404505 2.80804268 0 0 Z " fill="#4F4C6D" transform="translate(580,423)"/>
<path d="M0 0 C0.66 0.33 1.32 0.66 2 1 C-3.14285714 7.57142857 -3.14285714 7.57142857 -7 9 C-5.44499019 5.18315774 -2.96404505 2.80804268 0 0 Z " fill="#545071" transform="translate(408,422)"/>
</svg>
