<?xml version="1.0" encoding="UTF-8"?>
<svg version="1.1" xmlns="http://www.w3.org/2000/svg" width="1024" height="1024">
<path d="M0 0 C0.99 0.33 1.98 0.66 3 1 C3 1.66 3 2.32 3 3 C3.81339844 3.07347656 4.62679687 3.14695312 5.46484375 3.22265625 C9.9935271 4.21846618 13.53790291 6.19145848 17.5625 8.4375 C24.11541096 12.06797746 24.11541096 12.06797746 31 15 C31.73863281 15.28101563 32.47726562 15.56203125 33.23828125 15.8515625 C35.15885417 16.56770833 37.07942708 17.28385417 39 18 C39 18.66 39 19.32 39 20 C39.87011719 20.18175781 39.87011719 20.18175781 40.7578125 20.3671875 C45.28028442 21.33735474 49.63750966 22.43397783 54 24 C54 24.66 54 25.32 54 26 C55.39412109 26.18175781 55.39412109 26.18175781 56.81640625 26.3671875 C58.05261719 26.53476563 59.28882813 26.70234375 60.5625 26.875 C61.78066406 27.03742188 62.99882813 27.19984375 64.25390625 27.3671875 C68 28 68 28 71.3125 29.0625 C76.09114483 30.2774097 80.53247744 30.21681468 85.4375 30.125 C86.82098633 30.11146484 86.82098633 30.11146484 88.23242188 30.09765625 C90.48855809 30.0742766 92.74413684 30.04150916 95 30 C95 33.79557881 94.49821059 35.62902617 93 39 C92.34 39 91.68 39 91 39 C90.9175 39.54527344 90.835 40.09054688 90.75 40.65234375 C89.74430154 43.80038943 87.99858249 45.93936048 86 48.5625 C82.97792356 52.50293421 82.97792356 52.50293421 81 57 C80.34 57 79.68 57 79 57 C79 57.99 79 58.98 79 60 C78.34 60 77.68 60 77 60 C76.8875293 60.58031982 76.77505859 61.16063965 76.65917969 61.75854492 C75.9350144 64.22097511 74.94936886 65.78536611 73.453125 67.86328125 C72.9375 68.58580078 72.421875 69.30832031 71.890625 70.05273438 C71.34921875 70.79845703 70.8078125 71.54417969 70.25 72.3125 C69.7240625 73.04662109 69.198125 73.78074219 68.65625 74.53710938 C67.61303131 75.99219287 66.56556962 77.4442447 65.51367188 78.89306641 C64.51396879 80.2845886 63.53043906 81.6878908 62.56445312 83.10302734 C61.42277373 84.76818602 60.21715397 86.38918609 59 88 C58.34 88 57.68 88 57 88 C56.896875 88.5775 56.79375 89.155 56.6875 89.75 C55.89103535 92.35661158 54.80934723 93.9735311 53 96 C52.34 96 51.68 96 51 96 C50.75507812 96.56074219 50.51015625 97.12148437 50.2578125 97.69921875 C46.46672216 104.63385295 39.94639915 110.25531509 33.953125 115.29296875 C31.91021584 117.07847136 30.06127493 118.9761299 28.1875 120.9375 C23.57037835 125.60862307 18.3969929 129.2836814 13 133 C12.04996094 133.67160156 11.09992187 134.34320313 10.12109375 135.03515625 C2.71893371 140.15063037 -4.87511874 144.1771016 -13 148 C-13.81339844 148.39058594 -14.62679687 148.78117188 -15.46484375 149.18359375 C-43.18352508 162.06551256 -79.77512976 166.07007455 -109.6484375 159.5 C-112.11653285 158.94289366 -112.11653285 158.94289366 -115.125 158.58984375 C-120.0298879 157.84323279 -124.80326946 156.72066077 -129.625 155.5625 C-130.553125 155.34529297 -131.48125 155.12808594 -132.4375 154.90429688 C-136.78500893 153.86724783 -140.87622743 152.75219585 -145 151 C-145.66 151 -146.32 151 -147 151 C-147 150.34 -147 149.68 -147 149 C-147.99 149.33 -148.98 149.66 -150 150 C-150 149.34 -150 148.68 -150 148 C-150.61488281 147.86722656 -151.22976563 147.73445312 -151.86328125 147.59765625 C-152.67152344 147.42105469 -153.47976563 147.24445313 -154.3125 147.0625 C-155.11300781 146.88847656 -155.91351562 146.71445313 -156.73828125 146.53515625 C-159 146 -159 146 -162 145 C-162 144.34 -162 143.68 -162 143 C-163.28777344 142.86271484 -163.28777344 142.86271484 -164.6015625 142.72265625 C-168.44229628 141.90594849 -171.03354063 140.47950295 -174.375 138.4375 C-175.43460938 137.79683594 -176.49421875 137.15617188 -177.5859375 136.49609375 C-178.38257813 136.00238281 -179.17921875 135.50867188 -180 135 C-186.59807938 140.36093949 -192.16575993 146.34532201 -197.375 153.0625 C-197.91125 153.701875 -198.4475 154.34125 -199 155 C-199.66 155 -200.32 155 -201 155 C-201.27005859 155.57927246 -201.54011719 156.15854492 -201.81835938 156.75537109 C-203.00912931 159.01734193 -204.34077234 160.89617164 -205.90625 162.9140625 C-213.07377533 172.30422436 -219.40500289 181.69038869 -224.9140625 192.14453125 C-226.73525056 195.58899743 -228.82342323 198.76553396 -231 202 C-237.07981383 211.95405492 -242.96383704 221.8491397 -246.82421875 232.8828125 C-248.16920423 236.44858797 -249.82339176 239.803336 -251.5625 243.1875 C-255.34116694 250.55733923 -258.84876401 258.03985379 -262.3125 265.5625 C-262.82820557 266.68100342 -263.34391113 267.79950684 -263.87524414 268.9519043 C-266.85112288 275.42693646 -266.85112288 275.42693646 -269.703125 281.95703125 C-270.88007965 284.71862062 -272.14303637 287.41723673 -273.4375 290.125 C-275.68097598 295.04466989 -277.30187439 299.98129441 -278.8203125 305.1640625 C-280.2992978 310.10209537 -282.036821 314.95192237 -283.75 319.8125 C-284.0682373 320.71540771 -284.38647461 321.61831543 -284.71435547 322.54858398 C-285.47431972 324.69974302 -286.23607238 326.85024584 -287 329 C-285.78054688 328.97679687 -284.56109375 328.95359375 -283.3046875 328.9296875 C-265.71750521 328.71069002 -248.22129747 329.68918191 -230.67333984 330.7265625 C-227.72350372 330.9007181 -224.77349676 331.06851691 -221.82275391 331.2265625 C-201.87422054 332.29775783 -182.13073417 334.26883683 -162.31439209 336.71679688 C-159.97536794 337.00301413 -157.63558803 337.28197727 -155.29541016 337.55859375 C-104.5017782 343.56854719 -51.61117333 350.44197076 -5.19042969 372.98193359 C-2.82611857 374.08081649 -0.42808036 375.05148113 2 376 C2 376.66 2 377.32 2 378 C2.66 378 3.32 378 4 378 C4 378.66 4 379.32 4 380 C4.66 380 5.32 380 6 380 C6 380.66 6 381.32 6 382 C6.66 382 7.32 382 8 382 C8 382.66 8 383.32 8 384 C8.99 384 9.98 384 11 384 C12.03643049 387.10929146 12.12575143 389.25014924 12.12698364 392.51039124 C12.12980347 393.65594986 12.13262329 394.80150848 12.13552856 395.98178101 C12.13350433 397.23955353 12.1314801 398.49732605 12.12939453 399.79321289 C12.13074945 401.13029528 12.13252989 402.46737731 12.13470459 403.80445862 C12.13926772 407.43654012 12.13749407 411.06859325 12.1343255 414.70067525 C12.13179666 418.4980777 12.13414086 422.2954777 12.13571167 426.09288025 C12.1375316 432.46923255 12.13513143 438.84557328 12.13037109 445.22192383 C12.12492648 452.60019166 12.12669328 459.97843188 12.1321975 467.35669905 C12.13673085 473.68625248 12.13737816 480.01579758 12.13475883 486.34535211 C12.13319758 490.12810274 12.13299819 493.91084037 12.13629532 497.69359016 C12.13917733 501.24842947 12.13719225 504.80323304 12.13140106 508.35806847 C12.12944142 510.28996099 12.13242442 512.22185653 12.13552856 514.15374756 C12.13270874 515.29648636 12.12988892 516.43922516 12.12698364 517.61659241 C12.12660662 518.61376313 12.12622959 519.61093386 12.12584114 520.63832188 C12 523 12 523 11 525 C10.01 525 9.02 525 8 525 C7.7525 525.804375 7.505 526.60875 7.25 527.4375 C6 530 6 530 3.875 530.8125 C2.946875 530.9053125 2.946875 530.9053125 2 531 C2 531.66 2 532.32 2 533 C-12.20942632 540.38764421 -27.02080636 546.06931262 -42.4375 550.375 C-43.49356445 550.67027588 -44.54962891 550.96555176 -45.63769531 551.26977539 C-54.11929213 553.58840064 -62.65570037 555.58342115 -71.25 557.4375 C-72.4455249 557.69644043 -73.6410498 557.95538086 -74.87280273 558.22216797 C-79.6876453 559.23177085 -84.07408803 560.05813152 -89 560 C-88.99723462 561.85836062 -88.99723462 561.85836062 -88.99441338 563.75426388 C-88.9510756 593.17901082 -88.91810791 622.60375049 -88.89786934 652.02852144 C-88.895368 655.65207099 -88.89277935 659.27562047 -88.89013672 662.89916992 C-88.88934979 663.98122189 -88.88934979 663.98122189 -88.88854696 665.0851335 C-88.87984996 676.75761068 -88.86408387 688.4300681 -88.84569441 700.10253357 C-88.82697574 712.08409728 -88.81587912 724.06565066 -88.81182301 736.0472284 C-88.80932767 742.7751763 -88.80333771 749.50308307 -88.78853989 756.23101616 C-88.77495419 762.56498794 -88.7707794 768.89889658 -88.77378464 775.23288155 C-88.77323492 777.55602486 -88.76926341 779.87917032 -88.76158905 782.20230103 C-88.75161247 785.37842903 -88.75404114 788.55431979 -88.75949097 791.73045349 C-88.75075244 793.10354436 -88.75075244 793.10354436 -88.74183738 794.50437444 C-88.76857634 800.28514743 -89.56902928 805.39483979 -91 811 C-91.66 811 -92.32 811 -93 811 C-93.33 813.64 -93.66 816.28 -94 819 C-94.66 819 -95.32 819 -96 819 C-96.33 820.65 -96.66 822.3 -97 824 C-97.66 824 -98.32 824 -99 824 C-99.33 825.65 -99.66 827.3 -100 829 C-100.66 829 -101.32 829 -102 829 C-102.1546875 830.1446875 -102.1546875 830.1446875 -102.3125 831.3125 C-103.04711194 834.18416484 -103.6716065 835.23042094 -106 837 C-106.66 837 -107.32 837 -108 837 C-108 837.66 -108 838.32 -108 839 C-108.66 839 -109.32 839 -110 839 C-110.061875 839.5775 -110.12375 840.155 -110.1875 840.75 C-111.32969203 843.91299331 -113.33142373 845.01408277 -116 847 C-117.0828125 848.11375 -117.0828125 848.11375 -118.1875 849.25 C-120 851 -120 851 -122 851 C-122.33 851.99 -122.66 852.98 -123 854 C-124.375 855.6875 -124.375 855.6875 -126 857 C-126.99 857 -127.98 857 -129 857 C-129 857.66 -129 858.32 -129 859 C-130.94921875 860.4453125 -130.94921875 860.4453125 -133.6875 862.125 C-134.70457031 862.75148438 -135.72164062 863.37796875 -136.76953125 864.0234375 C-137.83558594 864.67570313 -138.90164063 865.32796875 -140 866 C-140.95261719 866.61101563 -141.90523437 867.22203125 -142.88671875 867.8515625 C-157.4027852 877.07353413 -172.76334817 885.26964804 -189 891 C-190.12680176 891.400979 -190.12680176 891.400979 -191.27636719 891.81005859 C-201.80440421 895.51999864 -212.44446522 898.78439575 -223.1875 901.8125 C-224.21407715 902.1024585 -225.2406543 902.39241699 -226.29833984 902.69116211 C-232.49168761 904.4043554 -238.68002508 905.84145937 -245 907 C-245.71389893 907.13253174 -246.42779785 907.26506348 -247.16333008 907.40161133 C-249.21161927 907.77637185 -251.26156106 908.14004736 -253.3125 908.5 C-254.29766602 908.67595703 -254.29766602 908.67595703 -255.30273438 908.85546875 C-281.60486625 913.49262186 -307.34958991 915.50581871 -334.00512695 915.39111328 C-338.00129569 915.37406642 -341.99686256 915.38416439 -345.99301052 915.40144539 C-370.13959281 915.48967634 -394.48267149 914.98023111 -418.140625 909.62109375 C-420.79430629 909.04467937 -423.3613605 908.68907672 -426.0625 908.4375 C-429.73105603 908.02988266 -432.52425992 907.16502404 -436 906 C-438.16162022 905.50892774 -440.33026637 905.04807268 -442.50390625 904.61328125 C-449.74116124 903.09779987 -456.83243002 901.2288802 -463.9375 899.1875 C-465.16025635 898.8371167 -466.3830127 898.4867334 -467.64282227 898.12573242 C-475.2454809 895.906794 -482.59538007 893.46037169 -489.87109375 890.33984375 C-492.88112656 889.05090336 -495.91265201 887.96254323 -499 886.875 C-512.86378898 881.56656036 -526.47298049 874.22784976 -538.60546875 865.68359375 C-540.93128823 864.04831121 -543.30845186 862.57980848 -545.75 861.125 C-546.8225 860.42375 -547.895 859.7225 -549 859 C-549 858.34 -549 857.68 -549 857 C-549.99 857 -550.98 857 -552 857 C-554.1875 855.125 -554.1875 855.125 -556 853 C-556 852.34 -556 851.68 -556 851 C-556.7425 850.773125 -557.485 850.54625 -558.25 850.3125 C-561.54966517 848.7376598 -562.85978051 846.92496664 -565 844 C-565.5775 843.443125 -566.155 842.88625 -566.75 842.3125 C-568 841 -568 841 -568 839 C-568.66 839 -569.32 839 -570 839 C-570 838.34 -570 837.68 -570 837 C-570.66 837 -571.32 837 -572 837 C-576 832.64705882 -576 832.64705882 -576 829 C-576.66 829 -577.32 829 -578 829 C-578.33 827.35 -578.66 825.7 -579 824 C-579.66 824 -580.32 824 -581 824 C-581.33 822.35 -581.66 820.7 -582 819 C-582.66 819 -583.32 819 -584 819 C-584.33 816.36 -584.66 813.72 -585 811 C-585.66 811 -586.32 811 -587 811 C-588.67675172 804.43210739 -589.28354374 798.49252902 -589.24050903 791.73045349 C-589.24221788 790.734544 -589.24392673 789.7386345 -589.24568737 788.71254593 C-589.24896535 785.39609855 -589.23800646 782.07985629 -589.22705078 778.76342773 C-589.2264863 776.37789413 -589.22680394 773.99236018 -589.22793579 771.60682678 C-589.22844945 765.81475328 -589.21979987 760.02274629 -589.20706047 754.23068797 C-589.19272681 747.48730954 -589.18976696 740.74394038 -589.18748413 734.00054885 C-589.18311381 721.97618197 -589.16982275 709.95184233 -589.15087891 697.92749023 C-589.13250291 686.25138484 -589.11835483 674.57528687 -589.10986328 662.89916992 C-589.10933783 662.1786815 -589.10881239 661.45819309 -589.10827102 660.71587168 C-589.10566082 657.1011622 -589.10313343 653.48645266 -589.10064721 649.87174308 C-589.07993537 619.91447631 -589.04457861 589.95724135 -589 560 C-589.68547283 559.93386253 -590.37094566 559.86772507 -591.0771904 559.79958344 C-591.9770026 559.71147652 -592.8768148 559.6233696 -593.80389404 559.53259277 C-594.69561687 559.44583031 -595.58733971 559.35906784 -596.50608444 559.26967621 C-601.49760232 558.72992513 -606.35583896 557.59380108 -611.25 556.5 C-612.40226074 556.24299316 -613.55452148 555.98598633 -614.74169922 555.72119141 C-623.97061204 553.59620236 -633.05555056 551.08844479 -642.125 548.375 C-643.37442383 548.00310547 -644.62384766 547.63121094 -645.91113281 547.24804688 C-652.50608498 545.23177858 -658.77215895 542.95471193 -665 540 C-666.7634375 539.2575 -666.7634375 539.2575 -668.5625 538.5 C-672.45490444 536.80149624 -676.21522348 534.92558806 -680 533 C-680 532.34 -680 531.68 -680 531 C-680.804375 530.7525 -681.60875 530.505 -682.4375 530.25 C-685 529 -685 529 -685.8125 526.875 C-685.874375 526.25625 -685.93625 525.6375 -686 525 C-686.99 525 -687.98 525 -689 525 C-689 478.47 -689 431.94 -689 384 C-688.01 384 -687.02 384 -686 384 C-686 383.34 -686 382.68 -686 382 C-685.34 382 -684.68 382 -684 382 C-684 381.34 -684 380.68 -684 380 C-642.12780394 345.33058996 -565.12739512 342.61077263 -513.44476318 336.29882812 C-511.27488749 336.03360003 -509.10541466 335.76534225 -506.93603516 335.49609375 C-460.51392251 329.81253715 -413.70287095 328.90512824 -367 328 C-368.00015137 327.12335693 -368.00015137 327.12335693 -369.02050781 326.22900391 C-373.61465795 322.15748643 -377.97472657 318.21847096 -381.75 313.375 C-382.85794922 311.97507812 -382.85794922 311.97507812 -383.98828125 310.546875 C-384.98408203 309.28617187 -384.98408203 309.28617187 -386 308 C-386.97162857 306.86848319 -387.94990804 305.74261106 -388.9375 304.625 C-396.34044738 296.04569386 -402.95399425 286.74669189 -409.73754883 277.67773438 C-414.02723167 271.9479487 -418.40385003 266.29213911 -422.8359375 260.671875 C-423.44695312 259.89328125 -424.05796875 259.1146875 -424.6875 258.3125 C-425.22761719 257.62800781 -425.76773437 256.94351562 -426.32421875 256.23828125 C-427.55456997 254.594945 -428.72504505 252.9063396 -429.859375 251.1953125 C-432.30269283 247.54817019 -434.91172282 244.05997547 -437.5625 240.5625 C-441.21267862 235.72431013 -444.84351405 230.87450962 -448.41357422 225.97680664 C-449.33985279 224.70927605 -450.27111363 223.44537011 -451.20751953 222.18530273 C-453.1782269 219.53138348 -455.0622974 216.90067174 -456.8203125 214.09765625 C-459.1160973 210.58743456 -460.57326285 208.40146284 -464.70703125 207.23828125 C-467.84404494 206.92820416 -470.85026218 206.901324 -474 207 C-475.87499826 207.00255449 -477.75000188 207.0026558 -479.625 207 C-480.95337891 207.01546875 -480.95337891 207.01546875 -482.30859375 207.03125 C-486.56912166 206.98178088 -490.77354027 206.51340943 -495 206 C-495 205.34 -495 204.68 -495 204 C-496.14726562 204.03609375 -497.29453125 204.0721875 -498.4765625 204.109375 C-502.96608941 204.10542469 -507.03275068 203.33146961 -511.375 202.25 C-512.12467041 202.06663086 -512.87434082 201.88326172 -513.64672852 201.69433594 C-519.34465409 200.2561324 -524.64033865 198.41710218 -530 196 C-531.42896623 195.3915325 -532.85873368 194.78494502 -534.2890625 194.1796875 C-542.36184621 190.72648309 -549.91560354 187.25465168 -557 182 C-558.18442188 181.24514832 -559.37162934 180.49463637 -560.5625 179.75 C-561.366875 179.1725 -562.17125 178.595 -563 178 C-563 177.34 -563 176.68 -563 176 C-563.53625 175.7525 -564.0725 175.505 -564.625 175.25 C-569.96588884 172.43900587 -573.8362983 169.34573571 -577.60546875 164.68359375 C-578.94956766 162.99801263 -578.94956766 162.99801263 -580.4296875 161.6171875 C-584.09720156 157.84019541 -586.95799226 153.28339272 -590 149 C-590.44214844 148.37996094 -590.88429688 147.75992188 -591.33984375 147.12109375 C-593.3670108 144.19126364 -594.72526866 141.31430148 -596 138 C-596.67869141 136.95779297 -596.67869141 136.95779297 -597.37109375 135.89453125 C-599.4741961 132.15736377 -600.70067102 128.32393775 -602 124.25 C-602.2475 123.48945313 -602.495 122.72890625 -602.75 121.9453125 C-603.25287053 120.40003328 -603.75152462 118.85337599 -604.24609375 117.30541992 C-604.73802056 115.80112432 -605.25021818 114.30326376 -605.78515625 112.8137207 C-607.90530672 106.85479277 -609.04737569 100.93198231 -610 94.6875 C-610.16661133 93.61733643 -610.33322266 92.54717285 -610.50488281 91.44458008 C-611.77308434 83.04668538 -612.81840617 74.62893847 -613.75 66.1875 C-613.87761719 65.05078857 -614.00523437 63.91407715 -614.13671875 62.74291992 C-614.8972297 55.46946579 -615.14864945 48.31107559 -615 41 C-611.73735029 41.75738547 -609.09759187 42.87712078 -606.125 44.4375 C-602.46856251 46.30324816 -598.94692325 47.83386359 -595 49 C-594.09064697 49.32484375 -593.18129395 49.6496875 -592.24438477 49.984375 C-580.29894679 53.72378519 -566.97119681 53.4859237 -554.5625 54 C-521.59145584 55.36886283 -521.59145584 55.36886283 -506.0625 61.25 C-505.01771484 61.61996094 -503.97292969 61.98992187 -502.89648438 62.37109375 C-497.05768744 64.51895 -492.00405554 66.99728862 -486.94140625 70.62255859 C-484.08389685 72.64998164 -481.06378456 74.30514046 -478 76 C-478 76.66 -478 77.32 -478 78 C-477.484375 78.226875 -476.96875 78.45375 -476.4375 78.6875 C-469.53257651 82.40553573 -464.94857979 87.03458875 -460 93 C-458.35698081 94.85292032 -456.71354069 96.70542429 -455.06640625 98.5546875 C-454 100 -454 100 -454 102 C-453.34 102 -452.68 102 -452 102 C-449 107.75 -449 107.75 -449 110 C-448.01 110.33 -447.02 110.66 -446 111 C-443.13299292 115.22672735 -441.43030492 120.29337926 -439.71484375 125.078125 C-439.05436803 126.85383021 -438.28152026 128.58664275 -437.5 130.3125 C-433.03325451 141.29324932 -430.7852803 153.56672802 -429.5234375 165.3203125 C-428.78629356 170.5023244 -426.40449989 172.59550011 -422.8125 176.1875 C-419.47509974 179.52490026 -416.36608695 183.03581632 -413.2265625 186.55859375 C-411.35255425 188.61342736 -409.43813111 190.57048137 -407.4375 192.5 C-405 195 -405 195 -405 197 C-404.41605469 197.23847656 -403.83210938 197.47695313 -403.23046875 197.72265625 C-400.54108344 199.26281211 -399.17808973 200.97297908 -397.3125 203.4375 C-396.71050781 204.21996094 -396.10851562 205.00242187 -395.48828125 205.80859375 C-394 208 -394 208 -393 211 C-392.42765625 211.2784375 -391.8553125 211.556875 -391.265625 211.84375 C-388.06518468 213.47707817 -386.14445724 215.83949195 -383.75 218.5 C-383.29109375 218.99886719 -382.8321875 219.49773437 -382.359375 220.01171875 C-379 223.74102493 -379 223.74102493 -379 226 C-378.401875 226.268125 -377.80375 226.53625 -377.1875 226.8125 C-375.00152146 227.99917406 -373.58667406 229.09599113 -372 231 C-372 231.66 -372 232.32 -372 233 C-371.401875 233.268125 -370.80375 233.53625 -370.1875 233.8125 C-368.00152146 234.99917406 -366.58667406 236.09599113 -365 238 C-365 238.66 -365 239.32 -365 240 C-364.401875 240.268125 -363.80375 240.53625 -363.1875 240.8125 C-361.00152146 241.99917406 -359.58667406 243.09599113 -358 245 C-358 245.66 -358 246.32 -358 247 C-357.401875 247.268125 -356.80375 247.53625 -356.1875 247.8125 C-354.00152146 248.99917406 -352.58667406 250.09599113 -351 252 C-351 252.66 -351 253.32 -351 254 C-350.13375 254.3403125 -350.13375 254.3403125 -349.25 254.6875 C-346.41565264 256.3408693 -345.03237811 258.42963944 -343 261 C-341.06055298 262.75792242 -339.05042917 264.36897679 -337 266 C-336.75765625 265.39414062 -336.5153125 264.78828125 -336.265625 264.1640625 C-335.55603428 262.3900857 -334.84497843 260.61669455 -334.1328125 258.84375 C-333.42912468 257.07725092 -332.73464887 255.30701689 -332.0546875 253.53125 C-328.58208803 244.54334549 -324.21483241 236.02464912 -319.4609375 227.65234375 C-318.28275251 225.51333946 -317.1517656 223.3645059 -316.0390625 221.19140625 C-311.30055944 211.97582012 -306.10503078 203.35619352 -300.23632812 194.82177734 C-298.18168938 191.79418763 -296.2169338 188.71000232 -294.25 185.625 C-291.40417323 181.17350594 -288.52291863 176.75127101 -285.5625 172.375 C-284.38394865 170.58360195 -283.24466277 168.76628253 -282.125 166.9375 C-274.08999032 153.86165878 -264.17941729 142.22633034 -253.76953125 130.98046875 C-251.97123659 129.05195327 -251.97123659 129.05195327 -250.57421875 126.92578125 C-248.65925787 124.58316161 -246.61321135 123.50505255 -244 122 C-242.44754976 120.72505352 -240.92617305 119.41136724 -239.4375 118.0625 C-238.69371094 117.39347656 -237.94992187 116.72445312 -237.18359375 116.03515625 C-235.69641335 114.64907219 -234.25167021 113.21635882 -232.84765625 111.74609375 C-231 110 -231 110 -229 110 C-228.6596875 108.8553125 -228.6596875 108.8553125 -228.3125 107.6875 C-226.83695402 103.54191843 -225.02158113 99.62778456 -223.17578125 95.63671875 C-221.91525227 92.8099511 -220.88201223 89.96676839 -220 87 C-219.34 87 -218.68 87 -218 87 C-217.67 85.02 -217.34 83.04 -217 81 C-216.34 81 -215.68 81 -215 81 C-214.83757812 79.68128906 -214.83757812 79.68128906 -214.671875 78.3359375 C-213.59119878 72.9702544 -210.74661442 68.68112891 -208 64 C-207.2884375 62.76830078 -207.2884375 62.76830078 -206.5625 61.51171875 C-204.11307838 57.40747954 -204.11307838 57.40747954 -203 56 C-202.34 56 -201.68 56 -201 56 C-201 55.01 -201 54.02 -201 53 C-200.34 53 -199.68 53 -199 53 C-199 52.01 -199 51.02 -199 50 C-198.34 50 -197.68 50 -197 50 C-197 49.34 -197 48.68 -197 48 C-196.34 48 -195.68 48 -195 48 C-194.896875 47.4225 -194.79375 46.845 -194.6875 46.25 C-193.89103535 43.64338842 -192.80934723 42.0264689 -191 40 C-190.34 40 -189.68 40 -189 40 C-188.62875 39.071875 -188.62875 39.071875 -188.25 38.125 C-186.79371361 35.64931313 -185.62187494 35.04874998 -183 34 C-183 33.34 -183 32.68 -183 32 C-182.34 32 -181.68 32 -181 32 C-181 31.01 -181 30.02 -181 29 C-180.01 29 -179.02 29 -178 29 C-178 28.34 -178 27.68 -178 27 C-177.34 27 -176.68 27 -176 27 C-176 26.34 -176 25.68 -176 25 C-173.98828125 23.125 -173.98828125 23.125 -171.3125 21 C-170.44238281 20.29875 -169.57226562 19.5975 -168.67578125 18.875 C-166.15665913 17.10977574 -163.8944112 16.00130982 -161 15 C-161 14.34 -161 13.68 -161 13 C-158.76953125 11.37890625 -158.76953125 11.37890625 -155.8125 9.5625 C-154.84957031 8.96566406 -153.88664063 8.36882812 -152.89453125 7.75390625 C-151.93933594 7.17511719 -150.98414063 6.59632812 -150 6 C-148.75283203 5.23623047 -148.75283203 5.23623047 -147.48046875 4.45703125 C-138.72509062 -0.68589165 -129.51186713 -4.50844877 -120 -8 C-119.38979004 -8.24371338 -118.77958008 -8.48742676 -118.15087891 -8.73852539 C-113.13652398 -10.71532645 -108.15465385 -12.00299421 -102.875 -13.0625 C-102.03880127 -13.23168945 -101.20260254 -13.40087891 -100.34106445 -13.57519531 C-97.89609417 -14.06151881 -95.44874427 -14.53310263 -93 -15 C-91.82050781 -15.23074219 -90.64101563 -15.46148437 -89.42578125 -15.69921875 C-58.61064517 -20.94039389 -27.65013182 -13.82506591 0 0 Z " fill="#A04938" transform="translate(851,109)"/>
<path d="M0 0 C0.99 0.33 1.98 0.66 3 1 C3 1.66 3 2.32 3 3 C3.81339844 3.07347656 4.62679687 3.14695312 5.46484375 3.22265625 C9.9935271 4.21846618 13.53790291 6.19145848 17.5625 8.4375 C24.11541096 12.06797746 24.11541096 12.06797746 31 15 C31.73863281 15.28101563 32.47726562 15.56203125 33.23828125 15.8515625 C35.15885417 16.56770833 37.07942708 17.28385417 39 18 C39 18.66 39 19.32 39 20 C39.87011719 20.18175781 39.87011719 20.18175781 40.7578125 20.3671875 C45.28028442 21.33735474 49.63750966 22.43397783 54 24 C54 24.66 54 25.32 54 26 C55.39412109 26.18175781 55.39412109 26.18175781 56.81640625 26.3671875 C58.05261719 26.53476563 59.28882813 26.70234375 60.5625 26.875 C61.78066406 27.03742188 62.99882813 27.19984375 64.25390625 27.3671875 C68 28 68 28 71.3125 29.0625 C76.09114483 30.2774097 80.53247744 30.21681468 85.4375 30.125 C86.82098633 30.11146484 86.82098633 30.11146484 88.23242188 30.09765625 C90.48855809 30.0742766 92.74413684 30.04150916 95 30 C95 33.79557881 94.49821059 35.62902617 93 39 C92.34 39 91.68 39 91 39 C90.9175 39.54527344 90.835 40.09054688 90.75 40.65234375 C89.74430154 43.80038943 87.99858249 45.93936048 86 48.5625 C82.97792356 52.50293421 82.97792356 52.50293421 81 57 C80.34 57 79.68 57 79 57 C79 57.99 79 58.98 79 60 C78.34 60 77.68 60 77 60 C76.8875293 60.58031982 76.77505859 61.16063965 76.65917969 61.75854492 C75.9350144 64.22097511 74.94936886 65.78536611 73.453125 67.86328125 C72.9375 68.58580078 72.421875 69.30832031 71.890625 70.05273438 C71.34921875 70.79845703 70.8078125 71.54417969 70.25 72.3125 C69.7240625 73.04662109 69.198125 73.78074219 68.65625 74.53710938 C67.61303131 75.99219287 66.56556962 77.4442447 65.51367188 78.89306641 C64.51396879 80.2845886 63.53043906 81.6878908 62.56445312 83.10302734 C61.42277373 84.76818602 60.21715397 86.38918609 59 88 C58.34 88 57.68 88 57 88 C56.896875 88.5775 56.79375 89.155 56.6875 89.75 C55.89103535 92.35661158 54.80934723 93.9735311 53 96 C52.34 96 51.68 96 51 96 C50.75507812 96.56074219 50.51015625 97.12148437 50.2578125 97.69921875 C46.46672216 104.63385295 39.94639915 110.25531509 33.953125 115.29296875 C31.91021584 117.07847136 30.06127493 118.9761299 28.1875 120.9375 C23.57037835 125.60862307 18.3969929 129.2836814 13 133 C12.04996094 133.67160156 11.09992187 134.34320313 10.12109375 135.03515625 C2.71893371 140.15063037 -4.87511874 144.1771016 -13 148 C-13.81339844 148.39058594 -14.62679687 148.78117188 -15.46484375 149.18359375 C-43.18352508 162.06551256 -79.77512976 166.07007455 -109.6484375 159.5 C-112.11653285 158.94289366 -112.11653285 158.94289366 -115.125 158.58984375 C-120.0298879 157.84323279 -124.80326946 156.72066077 -129.625 155.5625 C-130.553125 155.34529297 -131.48125 155.12808594 -132.4375 154.90429688 C-136.78500893 153.86724783 -140.87622743 152.75219585 -145 151 C-145.66 151 -146.32 151 -147 151 C-147 150.34 -147 149.68 -147 149 C-147.99 149.33 -148.98 149.66 -150 150 C-150 149.34 -150 148.68 -150 148 C-150.61488281 147.86722656 -151.22976563 147.73445312 -151.86328125 147.59765625 C-152.67152344 147.42105469 -153.47976563 147.24445313 -154.3125 147.0625 C-155.11300781 146.88847656 -155.91351562 146.71445313 -156.73828125 146.53515625 C-159 146 -159 146 -162 145 C-162 144.34 -162 143.68 -162 143 C-163.28777344 142.86271484 -163.28777344 142.86271484 -164.6015625 142.72265625 C-168.44229628 141.90594849 -171.03354063 140.47950295 -174.375 138.4375 C-175.43460938 137.79683594 -176.49421875 137.15617188 -177.5859375 136.49609375 C-178.38257813 136.00238281 -179.17921875 135.50867188 -180 135 C-186.59807938 140.36093949 -192.16575993 146.34532201 -197.375 153.0625 C-197.91125 153.701875 -198.4475 154.34125 -199 155 C-199.66 155 -200.32 155 -201 155 C-201.27005859 155.57927246 -201.54011719 156.15854492 -201.81835938 156.75537109 C-203.00912931 159.01734193 -204.34077234 160.89617164 -205.90625 162.9140625 C-213.07377533 172.30422436 -219.40500289 181.69038869 -224.9140625 192.14453125 C-226.73525056 195.58899743 -228.82342323 198.76553396 -231 202 C-237.07981383 211.95405492 -242.96383704 221.8491397 -246.82421875 232.8828125 C-248.16920423 236.44858797 -249.82339176 239.803336 -251.5625 243.1875 C-255.34116694 250.55733923 -258.84876401 258.03985379 -262.3125 265.5625 C-262.82820557 266.68100342 -263.34391113 267.79950684 -263.87524414 268.9519043 C-266.85112288 275.42693646 -266.85112288 275.42693646 -269.703125 281.95703125 C-270.88007965 284.71862062 -272.14303637 287.41723673 -273.4375 290.125 C-275.68097598 295.04466989 -277.30187439 299.98129441 -278.8203125 305.1640625 C-280.2992978 310.10209537 -282.036821 314.95192237 -283.75 319.8125 C-284.0682373 320.71540771 -284.38647461 321.61831543 -284.71435547 322.54858398 C-285.47431972 324.69974302 -286.23607238 326.85024584 -287 329 C-287.66 329 -288.32 329 -289 329 C-289.10441406 329.82113281 -289.20882813 330.64226562 -289.31640625 331.48828125 C-290.11594784 335.5956406 -291.44025159 339.29178172 -292.9375 343.1875 C-293.20240234 343.89841797 -293.46730469 344.60933594 -293.74023438 345.34179688 C-294.93398232 348.49056626 -296.12454366 351.18681549 -298 354 C-298.70812814 356.32108669 -299.38024152 358.65377147 -300 361 C-298.93845703 360.98984863 -297.87691406 360.97969727 -296.78320312 360.96923828 C-284.99721359 360.89241991 -273.269561 361.28113106 -261.5 361.875 C-260.58014313 361.92045959 -259.66028625 361.96591919 -258.71255493 362.01275635 C-237.23655169 363.07851111 -215.88211481 364.73603292 -194.5 367 C-193.7000058 367.08376892 -192.9000116 367.16753784 -192.07577515 367.25384521 C-184.39441508 368.06407806 -176.78559762 368.9068676 -169.22900391 370.55322266 C-166.04514048 371.19139024 -162.84620456 371.52865562 -159.62060547 371.88574219 C-133.9498836 374.77282246 -104.57964285 379.26619713 -81.83984375 392.0546875 C-80.0137867 393.0836191 -80.0137867 393.0836191 -77.89453125 393.51171875 C-75.11248799 394.22874021 -73.82356108 395.85080301 -72 398 C-72 398.66 -72 399.32 -72 400 C-71.01 400.33 -70.02 400.66 -69 401 C-69 405.62 -69 410.24 -69 415 C-69.99 415 -70.98 415 -72 415 C-72.33 415.99 -72.66 416.98 -73 418 C-75.0625 418.6875 -75.0625 418.6875 -77 419 C-77 419.66 -77 420.32 -77 421 C-106.41667246 435.15161044 -138.85157943 440.64859762 -171 445 C-172.45582453 445.21550256 -173.91154728 445.43169349 -175.3671875 445.6484375 C-226.25449514 452.99003639 -277.92689139 454.26961234 -329.25469971 454.96032715 C-331.73231021 454.99613156 -334.20960483 455.03928839 -336.68701172 455.08691406 C-393.3511418 456.15294601 -451.980718 453.70919009 -508 445 C-508.7002832 444.89365234 -509.40056641 444.78730469 -510.12207031 444.67773438 C-514.45776915 444.01196055 -518.77917501 443.27908966 -523.09814453 442.51269531 C-526.01433866 441.99746667 -528.93233567 441.49314833 -531.8505249 440.98936462 C-534.77077691 440.48280852 -537.68950414 439.96781129 -540.60797119 439.45108032 C-542.05342998 439.19629715 -543.49934211 438.9440698 -544.94573975 438.69467163 C-553.17636813 437.27137229 -561.14517857 435.54529492 -569.09667969 432.91992188 C-572.18434749 431.94158919 -575.2837247 431.17213876 -578.4375 430.4375 C-582.66755541 429.40901594 -586.16017614 428.0868608 -590 426 C-592.5963149 424.92022418 -595.20926971 423.89092184 -597.828125 422.8671875 C-600 422 -600 422 -602 421 C-602 420.34 -602 419.68 -602 419 C-603.65 418.34 -605.3 417.68 -607 417 C-607 416.34 -607 415.68 -607 415 C-607.66 415 -608.32 415 -609 415 C-609 410.05 -609 405.1 -609 400 C-608.34 400 -607.68 400 -607 400 C-606.67 399.01 -606.34 398.02 -606 397 C-600.26292545 392.90208961 -594.02899079 389.6029116 -587.23046875 387.703125 C-584.78546414 386.97767484 -584.78546414 386.97767484 -581.71484375 385.546875 C-578.03611179 383.94285952 -574.27451772 382.91844928 -570.375 382 C-568.46847656 381.5359375 -568.46847656 381.5359375 -566.5234375 381.0625 C-565.0157615 380.70775271 -563.50793239 380.35365588 -562 380 C-561.0291748 379.76732422 -560.05834961 379.53464844 -559.05810547 379.29492188 C-551.20295317 377.43770975 -543.32530957 375.88944455 -535.375 374.5 C-534.13991699 374.28351807 -532.90483398 374.06703613 -531.63232422 373.84399414 C-529.17908804 373.41612644 -526.72548564 372.99035212 -524.27148438 372.56689453 C-521.61118255 372.1059079 -518.95379827 371.63223119 -516.296875 371.15234375 C-499.01518361 368.13085844 -481.45075338 366.6941652 -464 365 C-462.84725586 364.88769043 -461.69451172 364.77538086 -460.50683594 364.65966797 C-429.46809243 361.7189983 -398.16910733 360.52608375 -367 361 C-366.84837402 360.06736328 -366.69674805 359.13472656 -366.54052734 358.17382812 C-365.5145877 352.1497923 -364.13621226 346.18826064 -361.3125 340.75 C-359.68847205 337.34727478 -359.77659585 334.72340253 -360 331 C-361.423125 330.5359375 -361.423125 330.5359375 -362.875 330.0625 C-372.74724705 325.78319936 -379.52627374 316.19586315 -386 308 C-386.97162857 306.86848319 -387.94990804 305.74261106 -388.9375 304.625 C-396.34044738 296.04569386 -402.95399425 286.74669189 -409.73754883 277.67773438 C-414.02723167 271.9479487 -418.40385003 266.29213911 -422.8359375 260.671875 C-423.44695312 259.89328125 -424.05796875 259.1146875 -424.6875 258.3125 C-425.22761719 257.62800781 -425.76773438 256.94351562 -426.32421875 256.23828125 C-427.55456997 254.594945 -428.72504505 252.9063396 -429.859375 251.1953125 C-432.30269283 247.54817019 -434.91172282 244.05997547 -437.5625 240.5625 C-441.21267862 235.72431013 -444.84351405 230.87450962 -448.41357422 225.97680664 C-449.33985279 224.70927605 -450.27111363 223.44537011 -451.20751953 222.18530273 C-453.1782269 219.53138348 -455.0622974 216.90067174 -456.8203125 214.09765625 C-459.1160973 210.58743456 -460.57326285 208.40146284 -464.70703125 207.23828125 C-467.84404494 206.92820416 -470.85026218 206.901324 -474 207 C-475.87499826 207.00255449 -477.75000188 207.0026558 -479.625 207 C-480.95337891 207.01546875 -480.95337891 207.01546875 -482.30859375 207.03125 C-486.56912166 206.98178088 -490.77354027 206.51340943 -495 206 C-495 205.34 -495 204.68 -495 204 C-496.14726562 204.03609375 -497.29453125 204.0721875 -498.4765625 204.109375 C-502.96608941 204.10542469 -507.03275068 203.33146961 -511.375 202.25 C-512.12467041 202.06663086 -512.87434082 201.88326172 -513.64672852 201.69433594 C-519.34465409 200.2561324 -524.64033865 198.41710218 -530 196 C-531.42896623 195.3915325 -532.85873368 194.78494502 -534.2890625 194.1796875 C-542.36184621 190.72648309 -549.91560354 187.25465168 -557 182 C-558.18442188 181.24514832 -559.37162934 180.49463637 -560.5625 179.75 C-561.366875 179.1725 -562.17125 178.595 -563 178 C-563 177.34 -563 176.68 -563 176 C-563.804375 175.62875 -563.804375 175.62875 -564.625 175.25 C-569.96588884 172.43900587 -573.8362983 169.34573571 -577.60546875 164.68359375 C-578.94956766 162.99801263 -578.94956766 162.99801263 -580.4296875 161.6171875 C-584.09720156 157.84019541 -586.95799226 153.28339272 -590 149 C-590.44214844 148.37996094 -590.88429688 147.75992188 -591.33984375 147.12109375 C-593.3670108 144.19126364 -594.72526866 141.31430148 -596 138 C-596.45246094 137.30519531 -596.90492188 136.61039063 -597.37109375 135.89453125 C-599.4741961 132.15736377 -600.70067102 128.32393775 -602 124.25 C-602.2475 123.48945313 -602.495 122.72890625 -602.75 121.9453125 C-603.25287053 120.40003328 -603.75152462 118.85337599 -604.24609375 117.30541992 C-604.73802056 115.80112432 -605.25021818 114.30326376 -605.78515625 112.8137207 C-607.90530672 106.85479277 -609.04737569 100.93198231 -610 94.6875 C-610.16661133 93.61733643 -610.33322266 92.54717285 -610.50488281 91.44458008 C-611.77308434 83.04668538 -612.81840617 74.62893847 -613.75 66.1875 C-613.87761719 65.05078857 -614.00523437 63.91407715 -614.13671875 62.74291992 C-614.8972297 55.46946579 -615.14864945 48.31107559 -615 41 C-611.73735029 41.75738547 -609.09759187 42.87712078 -606.125 44.4375 C-602.46856251 46.30324816 -598.94692325 47.83386359 -595 49 C-594.09064697 49.32484375 -593.18129395 49.6496875 -592.24438477 49.984375 C-580.29894679 53.72378519 -566.97119681 53.4859237 -554.5625 54 C-521.59145584 55.36886283 -521.59145584 55.36886283 -506.0625 61.25 C-505.01771484 61.61996094 -503.97292969 61.98992187 -502.89648438 62.37109375 C-497.05768744 64.51895 -492.00405554 66.99728862 -486.94140625 70.62255859 C-484.08389685 72.64998164 -481.06378456 74.30514046 -478 76 C-478 76.66 -478 77.32 -478 78 C-477.484375 78.226875 -476.96875 78.45375 -476.4375 78.6875 C-469.53257651 82.40553573 -464.94857979 87.03458875 -460 93 C-458.35698081 94.85292032 -456.71354069 96.70542429 -455.06640625 98.5546875 C-454 100 -454 100 -454 102 C-453.34 102 -452.68 102 -452 102 C-449 107.75 -449 107.75 -449 110 C-448.01 110.33 -447.02 110.66 -446 111 C-443.13299292 115.22672735 -441.43030492 120.29337926 -439.71484375 125.078125 C-439.05436803 126.85383021 -438.28152026 128.58664275 -437.5 130.3125 C-433.03325451 141.29324932 -430.7852803 153.56672802 -429.5234375 165.3203125 C-428.78629356 170.5023244 -426.40449989 172.59550011 -422.8125 176.1875 C-419.47509974 179.52490026 -416.36608695 183.03581632 -413.2265625 186.55859375 C-411.35255425 188.61342736 -409.43813111 190.57048137 -407.4375 192.5 C-405 195 -405 195 -405 197 C-404.41605469 197.23847656 -403.83210937 197.47695313 -403.23046875 197.72265625 C-400.54108344 199.26281211 -399.17808973 200.97297908 -397.3125 203.4375 C-396.71050781 204.21996094 -396.10851562 205.00242187 -395.48828125 205.80859375 C-394 208 -394 208 -393 211 C-392.42765625 211.2784375 -391.8553125 211.556875 -391.265625 211.84375 C-388.06518468 213.47707817 -386.14445724 215.83949195 -383.75 218.5 C-383.29109375 218.99886719 -382.8321875 219.49773437 -382.359375 220.01171875 C-379 223.74102493 -379 223.74102493 -379 226 C-378.401875 226.268125 -377.80375 226.53625 -377.1875 226.8125 C-375.00152146 227.99917406 -373.58667406 229.09599113 -372 231 C-372 231.66 -372 232.32 -372 233 C-371.401875 233.268125 -370.80375 233.53625 -370.1875 233.8125 C-368.00152146 234.99917406 -366.58667406 236.09599113 -365 238 C-365 238.66 -365 239.32 -365 240 C-364.401875 240.268125 -363.80375 240.53625 -363.1875 240.8125 C-361.00152146 241.99917406 -359.58667406 243.09599113 -358 245 C-358 245.66 -358 246.32 -358 247 C-357.401875 247.268125 -356.80375 247.53625 -356.1875 247.8125 C-354.00152146 248.99917406 -352.58667406 250.09599113 -351 252 C-351 252.66 -351 253.32 -351 254 C-350.13375 254.3403125 -350.13375 254.3403125 -349.25 254.6875 C-346.41565264 256.3408693 -345.03237811 258.42963944 -343 261 C-341.06055298 262.75792242 -339.05042917 264.36897679 -337 266 C-336.75765625 265.39414062 -336.5153125 264.78828125 -336.265625 264.1640625 C-335.55603428 262.3900857 -334.84497843 260.61669455 -334.1328125 258.84375 C-333.42912468 257.07725092 -332.73464887 255.30701689 -332.0546875 253.53125 C-328.58208803 244.54334549 -324.21483241 236.02464912 -319.4609375 227.65234375 C-318.28275251 225.51333946 -317.1517656 223.3645059 -316.0390625 221.19140625 C-311.30055944 211.97582012 -306.10503078 203.35619352 -300.23632812 194.82177734 C-298.18168938 191.79418763 -296.2169338 188.71000232 -294.25 185.625 C-291.40417323 181.17350594 -288.52291863 176.75127101 -285.5625 172.375 C-284.38394865 170.58360195 -283.24466277 168.76628253 -282.125 166.9375 C-274.08999032 153.86165878 -264.17941729 142.22633034 -253.76953125 130.98046875 C-251.97123659 129.05195327 -251.97123659 129.05195327 -250.57421875 126.92578125 C-248.65925787 124.58316161 -246.61321135 123.50505255 -244 122 C-242.44754976 120.72505352 -240.92617305 119.41136724 -239.4375 118.0625 C-238.69371094 117.39347656 -237.94992187 116.72445312 -237.18359375 116.03515625 C-235.69641335 114.64907219 -234.25167021 113.21635882 -232.84765625 111.74609375 C-231 110 -231 110 -229 110 C-228.6596875 108.8553125 -228.6596875 108.8553125 -228.3125 107.6875 C-226.83695402 103.54191843 -225.02158113 99.62778456 -223.17578125 95.63671875 C-221.91525227 92.8099511 -220.88201223 89.96676839 -220 87 C-219.34 87 -218.68 87 -218 87 C-217.67 85.02 -217.34 83.04 -217 81 C-216.34 81 -215.68 81 -215 81 C-214.83757812 79.68128906 -214.83757812 79.68128906 -214.671875 78.3359375 C-213.59119878 72.9702544 -210.74661442 68.68112891 -208 64 C-207.2884375 62.76830078 -207.2884375 62.76830078 -206.5625 61.51171875 C-204.11307838 57.40747954 -204.11307838 57.40747954 -203 56 C-202.34 56 -201.68 56 -201 56 C-201 55.01 -201 54.02 -201 53 C-200.34 53 -199.68 53 -199 53 C-199 52.01 -199 51.02 -199 50 C-198.34 50 -197.68 50 -197 50 C-197 49.34 -197 48.68 -197 48 C-196.34 48 -195.68 48 -195 48 C-194.896875 47.4225 -194.79375 46.845 -194.6875 46.25 C-193.89103535 43.64338842 -192.80934723 42.0264689 -191 40 C-190.34 40 -189.68 40 -189 40 C-188.62875 39.071875 -188.62875 39.071875 -188.25 38.125 C-186.79371361 35.64931313 -185.62187494 35.04874998 -183 34 C-183 33.34 -183 32.68 -183 32 C-182.34 32 -181.68 32 -181 32 C-181 31.01 -181 30.02 -181 29 C-180.01 29 -179.02 29 -178 29 C-178 28.34 -178 27.68 -178 27 C-177.34 27 -176.68 27 -176 27 C-176 26.34 -176 25.68 -176 25 C-173.98828125 23.125 -173.98828125 23.125 -171.3125 21 C-170.44238281 20.29875 -169.57226562 19.5975 -168.67578125 18.875 C-166.15665913 17.10977574 -163.8944112 16.00130982 -161 15 C-161 14.34 -161 13.68 -161 13 C-158.76953125 11.37890625 -158.76953125 11.37890625 -155.8125 9.5625 C-154.84957031 8.96566406 -153.88664062 8.36882812 -152.89453125 7.75390625 C-151.93933594 7.17511719 -150.98414063 6.59632812 -150 6 C-149.16855469 5.49082031 -148.33710937 4.98164062 -147.48046875 4.45703125 C-138.72509062 -0.68589165 -129.51186713 -4.50844877 -120 -8 C-119.38979004 -8.24371338 -118.77958008 -8.48742676 -118.15087891 -8.73852539 C-113.13652398 -10.71532645 -108.15465385 -12.00299421 -102.875 -13.0625 C-102.03880127 -13.23168945 -101.20260254 -13.40087891 -100.34106445 -13.57519531 C-97.89609417 -14.06151881 -95.44874427 -14.53310263 -93 -15 C-91.82050781 -15.23074219 -90.64101563 -15.46148437 -89.42578125 -15.69921875 C-58.61064517 -20.94039389 -27.65013182 -13.82506591 0 0 Z " fill="#653E36" transform="translate(851,109)"/>
<path d="M0 0 C0.99 0.33 1.98 0.66 3 1 C3 1.66 3 2.32 3 3 C4.22009766 3.11021484 4.22009766 3.11021484 5.46484375 3.22265625 C9.9935271 4.21846618 13.53790291 6.19145848 17.5625 8.4375 C24.11541096 12.06797746 24.11541096 12.06797746 31 15 C31.73863281 15.28101563 32.47726562 15.56203125 33.23828125 15.8515625 C35.15885417 16.56770833 37.07942708 17.28385417 39 18 C39 18.66 39 19.32 39 20 C39.87011719 20.18175781 39.87011719 20.18175781 40.7578125 20.3671875 C45.28028442 21.33735474 49.63750966 22.43397783 54 24 C54 24.66 54 25.32 54 26 C54.92941406 26.12117188 55.85882812 26.24234375 56.81640625 26.3671875 C58.05261719 26.53476563 59.28882813 26.70234375 60.5625 26.875 C61.78066406 27.03742188 62.99882813 27.19984375 64.25390625 27.3671875 C68 28 68 28 71.3125 29.0625 C76.09114483 30.2774097 80.53247744 30.21681468 85.4375 30.125 C86.82098633 30.11146484 86.82098633 30.11146484 88.23242188 30.09765625 C90.48855809 30.0742766 92.74413684 30.04150916 95 30 C95 33.79557881 94.49821059 35.62902617 93 39 C92.34 39 91.68 39 91 39 C90.9175 39.54527344 90.835 40.09054688 90.75 40.65234375 C89.74430154 43.80038943 87.99858249 45.93936048 86 48.5625 C82.97792356 52.50293421 82.97792356 52.50293421 81 57 C80.34 57 79.68 57 79 57 C79 57.99 79 58.98 79 60 C78.34 60 77.68 60 77 60 C76.8875293 60.58031982 76.77505859 61.16063965 76.65917969 61.75854492 C75.9350144 64.22097511 74.94936886 65.78536611 73.453125 67.86328125 C72.9375 68.58580078 72.421875 69.30832031 71.890625 70.05273438 C71.34921875 70.79845703 70.8078125 71.54417969 70.25 72.3125 C69.7240625 73.04662109 69.198125 73.78074219 68.65625 74.53710938 C67.61303131 75.99219287 66.56556962 77.4442447 65.51367188 78.89306641 C64.51396879 80.2845886 63.53043906 81.6878908 62.56445312 83.10302734 C61.42277373 84.76818602 60.21715397 86.38918609 59 88 C58.34 88 57.68 88 57 88 C56.896875 88.5775 56.79375 89.155 56.6875 89.75 C55.89103535 92.35661158 54.80934723 93.9735311 53 96 C52.34 96 51.68 96 51 96 C50.75507812 96.56074219 50.51015625 97.12148437 50.2578125 97.69921875 C46.46672216 104.63385295 39.94639915 110.25531509 33.953125 115.29296875 C31.91021584 117.07847136 30.06127493 118.9761299 28.1875 120.9375 C23.57037835 125.60862307 18.3969929 129.2836814 13 133 C12.04996094 133.67160156 11.09992188 134.34320313 10.12109375 135.03515625 C2.71893371 140.15063037 -4.87511874 144.1771016 -13 148 C-13.81339844 148.39058594 -14.62679687 148.78117188 -15.46484375 149.18359375 C-43.18352508 162.06551256 -79.77512976 166.07007455 -109.6484375 159.5 C-112.11653285 158.94289366 -112.11653285 158.94289366 -115.125 158.58984375 C-120.0298879 157.84323279 -124.80326946 156.72066077 -129.625 155.5625 C-130.553125 155.34529297 -131.48125 155.12808594 -132.4375 154.90429688 C-136.78500893 153.86724783 -140.87622743 152.75219585 -145 151 C-145.66 151 -146.32 151 -147 151 C-147 150.34 -147 149.68 -147 149 C-147.99 149.33 -148.98 149.66 -150 150 C-150 149.34 -150 148.68 -150 148 C-150.61488281 147.86722656 -151.22976563 147.73445312 -151.86328125 147.59765625 C-152.67152344 147.42105469 -153.47976563 147.24445313 -154.3125 147.0625 C-155.11300781 146.88847656 -155.91351562 146.71445313 -156.73828125 146.53515625 C-159 146 -159 146 -162 145 C-162 144.34 -162 143.68 -162 143 C-163.26070312 142.87044922 -163.26070312 142.87044922 -164.546875 142.73828125 C-168.56142603 141.87996661 -171.74459731 140.23355602 -175.25 138.1875 C-175.87390625 137.84396484 -176.4978125 137.50042969 -177.140625 137.14648438 C-180.65709678 135.12678668 -182.33729956 133.64362106 -184 130 C-186.06943928 129.55897196 -188.14223861 129.12987578 -190.2265625 128.765625 C-194.84457402 127.49079365 -198.77684034 124.97233186 -202.88671875 122.55859375 C-206.01168469 120.99415032 -208.54597543 120.37802668 -212 120 C-212 119.34 -212 118.68 -212 118 C-218.27 117.67 -224.54 117.34 -231 117 C-229.20621223 109.52588428 -226.77452762 102.95036828 -223.40234375 96.04296875 C-222.03404244 93.07386925 -220.97408489 90.11800377 -220 87 C-219.34 87 -218.68 87 -218 87 C-217.67 85.02 -217.34 83.04 -217 81 C-216.34 81 -215.68 81 -215 81 C-214.83757813 79.68128906 -214.83757813 79.68128906 -214.671875 78.3359375 C-213.59119878 72.9702544 -210.74661442 68.68112891 -208 64 C-207.2884375 62.76830078 -207.2884375 62.76830078 -206.5625 61.51171875 C-204.11307838 57.40747954 -204.11307838 57.40747954 -203 56 C-202.34 56 -201.68 56 -201 56 C-201 55.01 -201 54.02 -201 53 C-200.34 53 -199.68 53 -199 53 C-199 52.01 -199 51.02 -199 50 C-198.34 50 -197.68 50 -197 50 C-197 49.34 -197 48.68 -197 48 C-196.34 48 -195.68 48 -195 48 C-194.896875 47.4225 -194.79375 46.845 -194.6875 46.25 C-193.89103535 43.64338842 -192.80934723 42.0264689 -191 40 C-190.34 40 -189.68 40 -189 40 C-188.7525 39.38125 -188.505 38.7625 -188.25 38.125 C-186.79371361 35.64931313 -185.62187494 35.04874998 -183 34 C-183 33.34 -183 32.68 -183 32 C-182.34 32 -181.68 32 -181 32 C-181 31.01 -181 30.02 -181 29 C-180.01 29 -179.02 29 -178 29 C-178 28.34 -178 27.68 -178 27 C-177.34 27 -176.68 27 -176 27 C-176 26.34 -176 25.68 -176 25 C-173.98828125 23.125 -173.98828125 23.125 -171.3125 21 C-170.44238281 20.29875 -169.57226562 19.5975 -168.67578125 18.875 C-166.15665913 17.10977574 -163.8944112 16.00130982 -161 15 C-161 14.34 -161 13.68 -161 13 C-158.76953125 11.37890625 -158.76953125 11.37890625 -155.8125 9.5625 C-154.84957031 8.96566406 -153.88664063 8.36882812 -152.89453125 7.75390625 C-151.93933594 7.17511719 -150.98414063 6.59632812 -150 6 C-149.16855469 5.49082031 -148.33710937 4.98164062 -147.48046875 4.45703125 C-138.72509062 -0.68589165 -129.51186713 -4.50844877 -120 -8 C-119.38979004 -8.24371338 -118.77958008 -8.48742676 -118.15087891 -8.73852539 C-113.13652398 -10.71532645 -108.15465385 -12.00299421 -102.875 -13.0625 C-102.03880127 -13.23168945 -101.20260254 -13.40087891 -100.34106445 -13.57519531 C-97.89609417 -14.06151881 -95.44874427 -14.53310263 -93 -15 C-91.82050781 -15.23074219 -90.64101563 -15.46148437 -89.42578125 -15.69921875 C-58.61064517 -20.94039389 -27.65013182 -13.82506591 0 0 Z " fill="#589C33" transform="translate(851,109)"/>
<path d="M0 0 C3.26264971 0.75738547 5.90240813 1.87712078 8.875 3.4375 C12.53143749 5.30324816 16.05307675 6.83386359 20 8 C20.90935303 8.32484375 21.81870605 8.6496875 22.75561523 8.984375 C34.70105321 12.72378519 48.02880319 12.4859237 60.4375 13 C93.40854416 14.36886283 93.40854416 14.36886283 108.9375 20.25 C109.98228516 20.61996094 111.02707031 20.98992187 112.10351562 21.37109375 C117.94231256 23.51895 122.99594446 25.99728862 128.05859375 29.62255859 C130.91610315 31.64998164 133.93621544 33.30514046 137 35 C137 35.66 137 36.32 137 37 C137.515625 37.226875 138.03125 37.45375 138.5625 37.6875 C145.46742349 41.40553573 150.05142021 46.03458875 155 52 C156.64301919 53.85292032 158.28645931 55.70542429 159.93359375 57.5546875 C161 59 161 59 161 61 C161.66 61 162.32 61 163 61 C166 66.75 166 66.75 166 69 C166.99 69.33 167.98 69.66 169 70 C171.86700708 74.22672735 173.56969508 79.29337926 175.28515625 84.078125 C175.94563197 85.85383021 176.71847974 87.58664275 177.5 89.3125 C179.45918434 94.12882818 180.78946774 98.94788066 182 104 C182.29390625 105.19882813 182.5878125 106.39765625 182.890625 107.6328125 C184.79328029 116.00407202 185.08250138 123.68974677 184.39453125 132.23046875 C183.76880745 140.34660887 183.65041245 148.48985154 183.4375 156.625 C183.39372583 158.23934384 183.34978379 159.85368314 183.30566406 161.46801758 C183.20117608 165.31194654 183.0997082 169.15594421 183 173 C180.03 171.68 177.06 170.36 174 169 C174 168.34 174 167.68 174 167 C168.50878134 166.21741083 163.23631514 165.87317231 157.6953125 165.9375 C156.54928055 165.94317993 156.54928055 165.94317993 155.38009644 165.94897461 C152.15192752 165.9651206 148.92389198 165.99325559 145.69580078 166.02050781 C137.05552061 166.08701189 128.58802719 166.11037119 120 165 C120 164.34 120 163.68 120 163 C118.85273438 163.03609375 117.70546875 163.0721875 116.5234375 163.109375 C112.03391059 163.10542469 107.96724932 162.33146961 103.625 161.25 C102.87532959 161.06663086 102.12565918 160.88326172 101.35327148 160.69433594 C95.65534591 159.2561324 90.35966135 157.41710218 85 155 C83.57103377 154.3915325 82.14126632 153.78494502 80.7109375 153.1796875 C72.63815379 149.72648309 65.08439646 146.25465168 58 141 C56.81557812 140.24514832 55.62837066 139.49463637 54.4375 138.75 C53.633125 138.1725 52.82875 137.595 52 137 C52 136.34 52 135.68 52 135 C51.195625 134.62875 51.195625 134.62875 50.375 134.25 C45.03411116 131.43900587 41.1637017 128.34573571 37.39453125 123.68359375 C36.05043234 121.99801263 36.05043234 121.99801263 34.5703125 120.6171875 C30.90279844 116.84019541 28.04200774 112.28339272 25 108 C24.55785156 107.37996094 24.11570312 106.75992188 23.66015625 106.12109375 C21.6329892 103.19126364 20.27473134 100.31430148 19 97 C18.54753906 96.30519531 18.09507812 95.61039062 17.62890625 94.89453125 C15.5258039 91.15736377 14.29932898 87.32393775 13 83.25 C12.7525 82.48945313 12.505 81.72890625 12.25 80.9453125 C11.74712947 79.40003328 11.24847538 77.85337599 10.75390625 76.30541992 C10.26197944 74.80112432 9.74978182 73.30326376 9.21484375 71.8137207 C7.09469328 65.85479277 5.95262431 59.93198231 5 53.6875 C4.83338867 52.61733643 4.66677734 51.54717285 4.49511719 50.44458008 C3.22691566 42.04668538 2.18159383 33.62893847 1.25 25.1875 C1.12238281 24.05078857 0.99476563 22.91407715 0.86328125 21.74291992 C0.1027703 14.46946579 -0.14864945 7.31107559 0 0 Z " fill="#599D34" transform="translate(236,150)"/>
<path d="M0 0 C13.21731152 -0.1184229 26.36266703 0.2057331 39.5625 0.875 C40.93853897 0.94318939 40.93853897 0.94318939 42.34237671 1.01275635 C63.79973665 2.07989342 85.13633919 3.73798685 106.5 6 C107.6999913 6.12565338 107.6999913 6.12565338 108.92422485 6.25384521 C116.60558492 7.06407806 124.21440238 7.9068676 131.77099609 9.55322266 C134.95485952 10.19139024 138.15379544 10.52865562 141.37939453 10.88574219 C167.0501164 13.77282246 196.42035715 18.26619713 219.16015625 31.0546875 C220.9862133 32.0836191 220.9862133 32.0836191 223.10546875 32.51171875 C225.88751201 33.22874021 227.17643892 34.85080301 229 37 C229 37.66 229 38.32 229 39 C229.99 39.33 230.98 39.66 232 40 C232 44.62 232 49.24 232 54 C231.01 54 230.02 54 229 54 C228.67 54.99 228.34 55.98 228 57 C225.9375 57.6875 225.9375 57.6875 224 58 C224 58.66 224 59.32 224 60 C194.58332754 74.15161044 162.14842057 79.64859762 130 84 C128.54417547 84.21550256 127.08845272 84.43169349 125.6328125 84.6484375 C73.76540546 92.13143701 21.31005937 93.42316787 -31 93 C-30.3601868 89.45411937 -29.3485869 86.54116297 -27.87890625 83.25390625 C-26.30525405 79.21836261 -25.26881857 75.01719371 -24.109375 70.84765625 C-22.05563594 63.59048922 -19.74964986 56.3111876 -16.9140625 49.32421875 C-15.82107271 46.54503531 -15.19667853 43.77761395 -14.5625 40.8671875 C-14 39 -14 39 -12 36 C-11.18113451 33.35951795 -10.41692975 30.727288 -9.6875 28.0625 C-7.89996179 21.73323093 -5.8182109 15.71993432 -3.11328125 9.7109375 C-1.80858184 6.53387998 -0.92347037 3.30568953 0 0 Z " fill="#512016" transform="translate(550,470)"/>
<path d="M0 0 C-0.64856289 3.41211234 -1.4672268 6.4199268 -2.8125 9.625 C-5.03405699 15.0283474 -7.03397301 20.49930746 -9 26 C-9.66 26 -10.32 26 -11 26 C-11.10957031 26.86882812 -11.21914063 27.73765625 -11.33203125 28.6328125 C-12.17387449 34.75157557 -13.13360344 39.50607325 -16 45 C-16.56293884 47.66568095 -16.99308126 50.32613638 -17.375 53.0234375 C-18.03075133 56.14645321 -19.05472737 58.90348416 -20.2109375 61.86767578 C-21.79608055 66.15128946 -22.91742393 70.58883073 -24.10546875 74.99609375 C-25.23989997 79.02079558 -26.44729222 81.65975472 -29 85 C-29.73260159 87.31347872 -30.411438 89.645752 -31 92 C-67.0136454 92.91173786 -104.40560483 89.36413399 -140 84 C-140.71623535 83.89220215 -141.4324707 83.7844043 -142.17041016 83.67333984 C-146.4899462 83.00934505 -150.79517807 82.27624995 -155.09814453 81.51269531 C-158.01433866 80.99746667 -160.93233567 80.49314833 -163.8505249 79.98936462 C-166.77077691 79.48280852 -169.68950414 78.96781129 -172.60797119 78.45108032 C-174.05342998 78.19629715 -175.49934211 77.9440698 -176.94573975 77.69467163 C-185.17636813 76.27137229 -193.14517857 74.54529492 -201.09667969 71.91992188 C-204.18434749 70.94158919 -207.2837247 70.17213876 -210.4375 69.4375 C-214.66755541 68.40901594 -218.16017614 67.0868608 -222 65 C-224.5963149 63.92022418 -227.20926971 62.89092184 -229.828125 61.8671875 C-232 61 -232 61 -234 60 C-234 59.34 -234 58.68 -234 58 C-235.65 57.34 -237.3 56.68 -239 56 C-239 55.34 -239 54.68 -239 54 C-239.66 54 -240.32 54 -241 54 C-241 49.05 -241 44.1 -241 39 C-240.34 39 -239.68 39 -239 39 C-238.67 38.01 -238.34 37.02 -238 36 C-232.26292545 31.90208961 -226.02899079 28.6029116 -219.23046875 26.703125 C-216.78546414 25.97767484 -216.78546414 25.97767484 -213.71484375 24.546875 C-210.03611179 22.94285952 -206.27451772 21.91844928 -202.375 21 C-201.10398437 20.690625 -199.83296875 20.38125 -198.5234375 20.0625 C-197.0157615 19.70775271 -195.50793239 19.35365588 -194 19 C-193.0291748 18.76732422 -192.05834961 18.53464844 -191.05810547 18.29492188 C-183.20295317 16.43770975 -175.32530957 14.88944455 -167.375 13.5 C-165.52237549 13.1752771 -165.52237549 13.1752771 -163.63232422 12.84399414 C-161.17908804 12.41612644 -158.72548564 11.99035212 -156.27148438 11.56689453 C-153.61118255 11.1059079 -150.95379827 10.63223119 -148.296875 10.15234375 C-131.01518361 7.13085844 -113.45075338 5.6941652 -96 4 C-94.27088379 3.83153564 -94.27088379 3.83153564 -92.50683594 3.65966797 C-61.80801594 0.7512033 -30.82955045 -0.49031583 0 0 Z " fill="#512016" transform="translate(483,470)"/>
<path d="M0 0 C1.47146484 -0.01160156 1.47146484 -0.01160156 2.97265625 -0.0234375 C18.91010831 0.01900578 32.99879329 6.11482834 44.5 17.25 C53.5 27.17825112 53.5 27.17825112 53.5 30.25 C54.16 30.25 54.82 30.25 55.5 30.25 C58.10281577 35.59461684 60.01775281 40.64463194 61.10546875 46.5 C61.34042152 48.26851573 61.34042152 48.26851573 62.5 49.25 C62.78496247 53.20061604 62.73200164 57.16536182 62.75 61.125 C62.770625 62.22070312 62.79125 63.31640625 62.8125 64.4453125 C62.86431263 75.37777844 60.25640861 84.47159652 55.5 94.25 C54.84 94.25 54.18 94.25 53.5 94.25 C53.2628125 94.96414063 53.025625 95.67828125 52.78125 96.4140625 C46.90927412 109.41117984 33.28246784 116.8035713 20.796875 122.0859375 C6.97110807 126.96754715 -12.10131998 126.03539031 -25.5 120.25 C-29.00006798 118.45926755 -32.25338202 116.46198148 -35.5 114.25 C-36.14195312 113.85296875 -36.78390625 113.4559375 -37.4453125 113.046875 C-38.83874591 112.17840953 -40.17816575 111.22398313 -41.5 110.25 C-41.5 109.59 -41.5 108.93 -41.5 108.25 C-42.985 107.755 -42.985 107.755 -44.5 107.25 C-44.5 106.59 -44.5 105.93 -44.5 105.25 C-45.985 104.755 -45.985 104.755 -47.5 104.25 C-60.97256184 87.01824019 -63.46661084 69.77551047 -61.5 48.25 C-59.97569269 38.86778611 -54.95445538 30.87589733 -49.5 23.25 C-48.97664062 22.48945312 -48.45328125 21.72890625 -47.9140625 20.9453125 C-47.44742188 20.38585937 -46.98078125 19.82640625 -46.5 19.25 C-45.84 19.25 -45.18 19.25 -44.5 19.25 C-44.17 18.26 -43.84 17.27 -43.5 16.25 C-42.84 16.25 -42.18 16.25 -41.5 16.25 C-41.5 15.59 -41.5 14.93 -41.5 14.25 C-29.31506814 3.75668558 -15.73314207 -0.1240458 0 0 Z " fill="#36120B" transform="translate(623.5,730.75)"/>
<path d="M0 0 C1.17240234 -0.01546875 2.34480469 -0.0309375 3.55273438 -0.046875 C21.12569451 0.03075265 33.50078063 7.05154129 46.26171875 18.58203125 C48.0625 20.5 48.0625 20.5 48.0625 22.5 C48.7225 22.5 49.3825 22.5 50.0625 22.5 C62.17813046 35.63743062 63.2291781 52.69265221 62.6484375 69.578125 C61.90972281 81.1170354 58.06871603 92.81856093 50.0625 101.5 C49.4025 101.5 48.7425 101.5 48.0625 101.5 C47.85625 102.056875 47.65 102.61375 47.4375 103.1875 C45.54355476 106.37277155 42.94573975 108.20517652 40.0625 110.5 C39.35673828 111.22896484 39.35673828 111.22896484 38.63671875 111.97265625 C28.37302309 121.93073318 14.04409485 124.93135863 0.3125 125 C-1.10615356 125.00942627 -1.10615356 125.00942627 -2.5534668 125.01904297 C-18.80597826 124.72773371 -33.17021752 117.55214377 -44.9375 106.5 C-48.9375 101.90308748 -48.9375 101.90308748 -48.9375 99.5 C-49.5975 99.5 -50.2575 99.5 -50.9375 99.5 C-55.79901464 92.682165 -58.94328727 85.5842316 -60.9375 77.5 C-61.2675 76.51 -61.5975 75.52 -61.9375 74.5 C-62.19910461 70.50458417 -62.16903146 66.50305499 -62.1875 62.5 C-62.208125 61.41332031 -62.22875 60.32664062 -62.25 59.20703125 C-62.29495501 49.80019453 -61.11386191 40.99200288 -55.8125 33 C-54.12374213 30.41225163 -52.92039597 28.44868792 -51.9375 25.5 C-50.81634399 24.31089514 -49.68323043 23.13105231 -48.49609375 22.0078125 C-47.38817565 20.93599198 -46.32124065 19.8210949 -45.28515625 18.6796875 C-32.94892745 5.37846829 -17.87489039 -0.23506705 0 0 Z " fill="#37140D" transform="translate(399.9375,731.5)"/>
<path d="M0 0 C4.24177759 2.9508018 8.73854095 6.89584327 10.55859375 11.8671875 C10.97014188 14.64132677 11.03124791 17.38498218 11.125 20.1875 C11.60974429 26.45404938 12.64406075 31.21971329 16.875 36 C25.05115482 42.41918077 33.48059951 44.39422566 43.6875 44.375 C44.5738916 44.37338867 45.4602832 44.37177734 46.37353516 44.37011719 C52.8997243 44.24763857 58.18818624 43.379459 63.875 40 C64.98875 39.38125 66.1025 38.7625 67.25 38.125 C74.44054117 32.30408572 74.73798279 25.68171088 75.875 17 C76.84329732 10.96525809 78.51436686 7.26152784 82.875 3 C88.13719269 -0.75870906 93.64507108 -0.66117332 99.875 0 C105.32370404 1.74769752 108.66041808 5.39278162 111.875 10 C113.37281974 14.49345922 113.14122247 18.91703242 113.1875 23.625 C113.21650391 24.58535156 113.24550781 25.54570313 113.27539062 26.53515625 C113.33494298 33.28747739 112.07175802 38.07932362 108.875 44 C108.2975 45.175625 107.72 46.35125 107.125 47.5625 C106.7125 48.366875 106.3 49.17125 105.875 50 C105.215 50 104.555 50 103.875 50 C103.648125 50.556875 103.42125 51.11375 103.1875 51.6875 C101.4804547 54.69515124 99.40714914 56.63299102 96.875 59 C96.31941406 59.54914062 95.76382813 60.09828125 95.19140625 60.6640625 C78.79006782 76.14474368 56.11297394 78.69865693 34.62548828 78.13623047 C15.46680689 77.18730945 -2.55685016 68.04780484 -15.7265625 54.33203125 C-19.125 50.48743017 -19.125 50.48743017 -19.125 47 C-19.785 47 -20.445 47 -21.125 47 C-21.77739158 45.60721983 -22.42160552 44.21060788 -23.0625 42.8125 C-23.42214844 42.03519531 -23.78179687 41.25789062 -24.15234375 40.45703125 C-26.45115213 34.65000125 -26.37336037 28.78240435 -26.4375 22.625 C-26.46650391 21.70460938 -26.49550781 20.78421875 -26.52539062 19.8359375 C-26.58291166 13.64136461 -25.74706075 10.06159771 -22.125 5 C-15.68400273 -1.11068972 -8.44348213 -2.70191428 0 0 Z " fill="#35120B" transform="translate(469.125,848)"/>
<path d="M0 0 C2.65262179 1.32631089 3.21099749 2.85343108 4.625 5.4375 C5.07101562 6.24058594 5.51703125 7.04367187 5.9765625 7.87109375 C7 10 7 10 7 12 C7.66 12 8.32 12 9 12 C10.12109375 13.46875 10.12109375 13.46875 11.4375 15.5 C19.61246464 26.73809008 33.65936829 33.30615626 47 36 C50.95074533 36.34193547 54.85019925 36.33358182 58.8125 36.25 C59.80958984 36.24484375 60.80667969 36.2396875 61.83398438 36.234375 C66.65490996 36.18305443 71.26295831 35.99727193 76 35 C78.40880224 41.19051127 79.54919532 46.67318134 79.5 53.3125 C79.4990332 54.54383667 79.4990332 54.54383667 79.49804688 55.80004883 C79.32182296 63.0444149 77.5565813 68.63625988 74 75 C73.34 75 72.68 75 72 75 C71.76667969 75.75023437 71.53335938 76.50046875 71.29296875 77.2734375 C69.75566818 80.51523749 68.27171693 81.64010411 65.3125 83.625 C64.48363281 84.19476562 63.65476562 84.76453125 62.80078125 85.3515625 C55.78358441 89.48162814 50.76236699 90.47934143 42.6875 90.375 C41.80126953 90.38660156 40.91503906 90.39820313 40.00195312 90.41015625 C23.83775667 90.33941578 11.1550365 82.19494719 0 71 C-4.37808714 66.4487138 -8.02445916 61.57443095 -11 56 C-11.46921875 55.13375 -11.9384375 54.2675 -12.421875 53.375 C-15.80072499 46.08579553 -16.46491297 39.65424156 -16.5 31.6875 C-16.50620361 30.75663574 -16.51240723 29.82577148 -16.51879883 28.86669922 C-16.41006864 22.93586537 -15.39330384 18.42948984 -13 13 C-12.34 13 -11.68 13 -11 13 C-10.773125 12.278125 -10.54625 11.55625 -10.3125 10.8125 C-8.08758432 6.04482355 -4.2431885 2.98594746 0 0 Z " fill="#CE473E" transform="translate(342,819)"/>
<path d="M0 0 C8.69580533 5.1760746 13.81721054 12.45163162 17 22 C18.63900878 39.52287108 15.29591866 52.62281629 5 67 C4.55140625 67.63421875 4.1028125 68.2684375 3.640625 68.921875 C-4.27671423 79.07469825 -18.09981207 88.30068346 -31 90 C-43.97965638 90.81077769 -55.57065827 91.35171541 -66.125 82.875 C-67.8203125 81.3671875 -67.8203125 81.3671875 -69 80 C-69 79.34 -69 78.68 -69 78 C-69.66 78 -70.32 78 -71 78 C-73.04169485 75.09451118 -74 73.59857954 -74 70 C-74.66 70 -75.32 70 -76 70 C-77.80254232 64.5851916 -78.33665453 59.81580739 -78.3125 54.125 C-78.32861328 53.37347656 -78.34472656 52.62195313 -78.36132812 51.84765625 C-78.3662574 46.10012456 -77.08927776 41.33583991 -75 36 C-74.16863525 36.01047363 -73.33727051 36.02094727 -72.48071289 36.03173828 C-69.35523529 36.0661057 -66.22985498 36.09103659 -63.10424805 36.10986328 C-61.10263623 36.12470245 -59.10111188 36.15013361 -57.09960938 36.17578125 C-39.93076218 36.26227418 -25.55016263 31.16000214 -13 19 C-7.96882283 13.37535333 -7.96882283 13.37535333 -4 7 C-3.34 7 -2.68 7 -2 7 C-1.855625 6.21625 -1.71125 5.4325 -1.5625 4.625 C-1 2 -1 2 0 0 Z " fill="#CE473E" transform="translate(681,818)"/>
<path d="M0 0 C6.88624395 6.13610845 11.33504728 14.99242139 12.203125 24.140625 C12.41610337 33.7246518 9.17596988 41.68464784 3 49 C-4.75131715 56.43970641 -11.15414938 60.05543945 -21.875 60.4375 C-32.20439268 60.17292644 -40.78807346 56.50520266 -48 49 C-55.07070879 38.87814108 -56.9057838 31.28136269 -56 19 C-53.98915778 9.29904495 -47.02420703 1.43898836 -38.9375 -4 C-25.8966082 -11.2936213 -11.67787699 -8.49835418 0 0 Z " fill="#FFFFFF" transform="translate(438,752)"/>
<path d="M0 0 C8.85137262 5.50724448 15.23784554 12.85965816 18 23 C19.20507557 35.73736856 17.0163976 44.12402485 8.9765625 53.92578125 C2.11695766 61.12429937 -6.19006607 64.35445179 -15.9375 65.4375 C-26.84472584 64.93069961 -35.64584257 58.79770228 -42.8125 51.0625 C-48.96680265 43.71658977 -50.80896735 35.43795242 -50 26 C-48.04342292 15.28856957 -41.89669687 7.16045442 -33 1 C-29.74225808 -0.59740689 -26.44260407 -1.86265656 -23 -3 C-14.99322504 -5.66892499 -7.44733298 -3.4069629 0 0 Z " fill="#FFFFFF" transform="translate(624,747)"/>
<path d="M0 0 C2.91966192 2.28495281 4.59188033 4.0052083 6 7.4375 C6 11.02912215 4.95189051 13.00710122 3 16 C0.26211268 18.21990864 -1.51431274 18.92917061 -5 19.4375 C-8.86403373 18.87399508 -10.3553644 17.8650219 -13 15 C-14.79831895 10.95378236 -15.32342842 8.98931046 -13.9375 4.75 C-10.02668353 -0.80083628 -6.55095869 -1.87170248 0 0 Z " fill="#FFFFFF" transform="translate(648,803)"/>
<path d="M0 0 C3.05111368 3.05111368 4.89044663 5.61786524 5 10 C3.51134386 13.1261779 1.79948182 15.92630977 -1 18 C-4.44440994 19.04829868 -6.26369924 19.2980265 -9.625 17.9375 C-12.61499221 15.49829583 -14.32078863 13.49275966 -16 10 C-15.47832613 5.67755936 -14.68741071 3.66978479 -11.5625 0.625 C-7.00989098 -2.26202035 -4.86664109 -2.18502253 0 0 Z " fill="#FFFFFF" transform="translate(386,804)"/>
<path d="M0 0 C6.54668727 -0.12978014 13.03171078 0.08953355 19.5625 0.5 C28.71456544 1.06834209 37.83357555 1.09751515 47 1 C47 1.66 47 2.32 47 3 C31.38208192 4.41782776 15.35261506 4.62687924 0 1 C0 0.67 0 0.34 0 0 Z " fill="#8DBC71" transform="translate(739,267)"/>
<path d="M0 0 C10.71600323 -0.12825004 21.312837 0.20414744 32 1 C32 1.66 32 2.32 32 3 C28.54168516 3.02949232 25.08340346 3.0469616 21.625 3.0625 C20.65949219 3.07087891 19.69398438 3.07925781 18.69921875 3.08789062 C12.40175711 3.10902305 6.25160137 2.76107198 0 2 C0 1.34 0 0.68 0 0 Z " fill="#84B667" transform="translate(356,313)"/>
<path d="M0 0 C5.34670262 0.99308671 10.40012601 2.62704319 15.5625 4.3125 C16.50802734 4.60833984 17.45355469 4.90417969 18.42773438 5.20898438 C26.95235797 7.99831351 26.95235797 7.99831351 30 12 C27.14140934 11.3352396 24.4446971 10.47607036 21.69921875 9.44140625 C20.88646484 9.13783203 20.07371094 8.83425781 19.23632812 8.52148438 C17.54866233 7.8865082 15.86115992 7.25109756 14.17382812 6.61523438 C9.48824435 4.86599908 4.83091741 3.29737188 0 2 C0 1.34 0 0.68 0 0 Z " fill="#78B059" transform="translate(329,166)"/>
<path d="M0 0 C2.14655501 0.30750371 4.29223285 0.6211366 6.4375 0.9375 C8.22994141 1.19853516 8.22994141 1.19853516 10.05859375 1.46484375 C13 2 13 2 14 3 C16.96456743 3.54107902 19.94031251 3.96539063 22.921875 4.40234375 C25.83228697 4.96743643 28.29644548 5.80342679 31 7 C28 9 28 9 24.59375 8.42578125 C23.22555141 8.06824684 21.86105872 7.69631951 20.5 7.3125 C19.789646 7.12187988 19.07929199 6.93125977 18.34741211 6.73486328 C16.90971937 6.34782335 15.47341142 5.95560077 14.03857422 5.55810547 C12.21052171 5.05763504 10.37327786 4.59102701 8.53515625 4.12890625 C7.55417969 3.88011719 6.57320312 3.63132812 5.5625 3.375 C4.69753906 3.15585937 3.83257813 2.93671875 2.94140625 2.7109375 C1 2 1 2 0 0 Z " fill="#88BA6D" transform="translate(707,259)"/>
<path d="M0 0 C0.66 0 1.32 0 2 0 C0.79618552 2.49361571 -0.45428722 4.68143083 -2 7 C-2.66 7 -3.32 7 -4 7 C-4.2371875 7.55171875 -4.474375 8.1034375 -4.71875 8.671875 C-6.31245143 11.56774711 -8.28917273 13.79512037 -10.5 16.25 C-11.2940625 17.14203125 -12.088125 18.0340625 -12.90625 18.953125 C-15 21 -15 21 -17 21 C-15.56438314 17.81293058 -13.79733671 15.37830895 -11.5 12.75 C-10.8915625 12.04359375 -10.283125 11.3371875 -9.65625 10.609375 C-8 9 -8 9 -6 9 C-6 8.01 -6 7.02 -6 6 C-5.34 6 -4.68 6 -4 6 C-4 5.34 -4 4.68 -4 4 C-3.34 4 -2.68 4 -2 4 C-1.34 2.68 -0.68 1.36 0 0 Z " fill="#ADD096" transform="translate(906,198)"/>
<path d="M0 0 C3.65433265 0.81825274 6.6796203 2.26434698 10 4 C10 4.66 10 5.32 10 6 C9.030625 5.814375 8.06125 5.62875 7.0625 5.4375 C6.051875 5.293125 5.04125 5.14875 4 5 C2.41727399 6.58272601 2.65264253 8.38034003 2.4375 10.5625 C2.35371094 11.38878906 2.26992187 12.21507812 2.18359375 13.06640625 C2.12300781 13.70449219 2.06242188 14.34257812 2 15 C-0.35119399 11.47320901 -0.21443452 9.97120515 -0.125 5.8125 C-0.10695312 4.72582031 -0.08890625 3.63914063 -0.0703125 2.51953125 C-0.04710937 1.68808594 -0.02390625 0.85664063 0 0 Z " fill="#87B669" transform="translate(236,150)"/>
<path d="M0 0 C-1.75934554 2.2273196 -2.64834525 2.94276668 -5.49609375 3.40625 C-6.46675781 3.4371875 -7.43742188 3.468125 -8.4375 3.5 C-14.88334598 3.86990813 -20.80135998 5.25251106 -27 7 C-27 6.34 -27 5.68 -27 5 C-9.04070957 -0.21062585 -9.04070957 -0.21062585 0 0 Z " fill="#A2C98A" transform="translate(768,93)"/>
<path d="M0 0 C0.66 0 1.32 0 2 0 C2.86458312 2.93479598 3.71697187 5.87221519 4.5625 8.8125 C4.80935547 9.64587891 5.05621094 10.47925781 5.31054688 11.33789062 C5.65375977 12.54155273 5.65375977 12.54155273 6.00390625 13.76953125 C6.21861572 14.50792236 6.4333252 15.24631348 6.65454102 16.00708008 C7 18 7 18 6 21 C2.91302228 14.09176345 1.08165726 7.48620682 0 0 Z " fill="#A3C98A" transform="translate(242,208)"/>
<path d="M0 0 C0.66 0.66 1.32 1.32 2 2 C-2.455 7.94 -2.455 7.94 -7 14 C-7.33 13.34 -7.66 12.68 -8 12 C-5.74520378 7.57391854 -3.22269618 3.79817765 0 0 Z " fill="#7CAD5C" transform="translate(940,149)"/>
<path d="M0 0 C1.32 0.33 2.64 0.66 4 1 C2.21427748 2.83947337 0.42197551 4.67157741 -1.375 6.5 C-1.88289062 7.02464844 -2.39078125 7.54929688 -2.9140625 8.08984375 C-4.23832604 9.43153181 -5.61605865 10.71995815 -7 12 C-7.66 12 -8.32 12 -9 12 C-9 11.34 -9 10.68 -9 10 C-7.5192278 8.78247619 -6.03626023 7.56736628 -4.53515625 6.375 C-2.47680926 4.5313915 -1.25569614 2.44163138 0 0 Z " fill="#9CC681" transform="translate(882,222)"/>
<path d="M0 0 C0.66 0.33 1.32 0.66 2 1 C-0.11891448 4.17837172 -1.95710924 5.17402036 -5.25390625 6.94921875 C-7.51744048 8.31139035 -9.17481144 10.10721186 -11 12 C-11.66 12 -12.32 12 -13 12 C-13 11.34 -13 10.68 -13 10 C-11.44996996 8.60410053 -9.83365761 7.28112981 -8.1875 6 C-7.29417969 5.29875 -6.40085937 4.5975 -5.48046875 3.875 C-3.69566972 2.52586058 -1.86157838 1.24105225 0 0 Z " fill="#9DC584" transform="translate(688,124)"/>
<path d="M0 0 C2.62696231 0.44879766 5.25116893 0.90854114 7.875 1.375 C8.99455078 1.56449219 8.99455078 1.56449219 10.13671875 1.7578125 C15.7734375 2.7734375 15.7734375 2.7734375 18 5 C12.39 4.34 6.78 3.68 1 3 C0.67 2.01 0.34 1.02 0 0 Z " fill="#89B96C" transform="translate(800,93)"/>
<path d="M0 0 C5.28 0 10.56 0 16 0 C16.33 0.66 16.66 1.32 17 2 C11.43779559 2.81982605 6.51547368 3.26396272 1 2 C0.67 1.34 0.34 0.68 0 0 Z " fill="#8DBB6F" transform="translate(926,139)"/>
<path d="M0 0 C4.62 0 9.24 0 14 0 C14.33 0.66 14.66 1.32 15 2 C9.31302429 2.91397824 4.68697571 2.91397824 -1 2 C-0.67 1.34 -0.34 0.68 0 0 Z " fill="#85B766" transform="translate(776,92)"/>
<path d="M0 0 C0.66 0 1.32 0 2 0 C0.44298069 4.67105792 -2.08447373 8.08705685 -5 12 C-5.33 11.01 -5.66 10.02 -6 9 C-4.85546875 6.73828125 -4.85546875 6.73828125 -3.1875 4.3125 C-2.64480469 3.50425781 -2.10210938 2.69601563 -1.54296875 1.86328125 C-1.03378906 1.24839844 -0.52460937 0.63351563 0 0 Z " fill="#79AC5A" transform="translate(923,174)"/>
<path d="M0 0 C0.66 0 1.32 0 2 0 C2 0.99 2 1.98 2 3 C1.34 3 0.68 3 0 3 C0 3.99 0 4.98 0 6 C-0.66 6 -1.32 6 -2 6 C-2.103125 6.639375 -2.20625 7.27875 -2.3125 7.9375 C-2.539375 8.618125 -2.76625 9.29875 -3 10 C-3.99 10.33 -4.98 10.66 -6 11 C-4.54997977 6.89160936 -2.6020866 3.49655387 0 0 Z " fill="#66A443" transform="translate(930,163)"/>
<path d="M0 0 C1.60568666 0.28317926 3.20952047 0.57687791 4.8125 0.875 C6.15248047 1.11863281 6.15248047 1.11863281 7.51953125 1.3671875 C10 2 10 2 13 4 C10.09905209 5.45047396 8.44027404 4.45356803 5.375 3.5625 C4.37210938 3.27503906 3.36921875 2.98757812 2.3359375 2.69140625 C1.56507813 2.46324219 0.79421875 2.23507813 0 2 C0 1.34 0 0.68 0 0 Z " fill="#93BF77" transform="translate(912,136)"/>
<path d="M0 0 C0.66 0.33 1.32 0.66 2 1 C0.8125 3.5 0.8125 3.5 -1 6 C-3.6875 6.3125 -3.6875 6.3125 -6 6 C-6 5.34 -6 4.68 -6 4 C-4.03852126 2.61061923 -2.03833424 1.2739589 0 0 Z " fill="#96C279" transform="translate(696,118)"/>
<path d="M0 0 C0.66 0 1.32 0 2 0 C0.55922954 3.36179774 -1.24750021 5.59156268 -4 8 C-4.66 8 -5.32 8 -6 8 C-6 7.34 -6 6.68 -6 6 C-5.34 6 -4.68 6 -4 6 C-4 5.34 -4 4.68 -4 4 C-3.34 4 -2.68 4 -2 4 C-1.34 2.68 -0.68 1.36 0 0 Z " fill="#99C37E" transform="translate(906,198)"/>
<path d="M0 0 C4.12751449 0.60698743 7.3321148 2.03810791 11 4 C9 5 9 5 6.8359375 4.44140625 C6.02382813 4.15136719 5.21171875 3.86132812 4.375 3.5625 C3.55773437 3.27503906 2.74046875 2.98757812 1.8984375 2.69140625 C1.27195312 2.46324219 0.64546875 2.23507813 0 2 C0 1.34 0 0.68 0 0 Z " fill="#8ABA6E" transform="translate(689,252)"/>
<path d="M0 0 C4.08378283 0.74250597 8.01939223 1.82923301 12 3 C12 3.33 12 3.66 12 4 C10.3745692 3.85904936 8.74965949 3.71207913 7.125 3.5625 C6.22007812 3.48128906 5.31515625 3.40007812 4.3828125 3.31640625 C2 3 2 3 0 2 C0 1.34 0 0.68 0 0 Z " fill="#8DBC70" transform="translate(329,166)"/>
<path d="M0 0 C1.29409592 0.45142881 2.58521059 0.91141021 3.875 1.375 C4.95394531 1.75785156 4.95394531 1.75785156 6.0546875 2.1484375 C8 3 8 3 10 5 C3.375 4.25 3.375 4.25 0 2 C0 1.34 0 0.68 0 0 Z " fill="#8FBD72" transform="translate(248,155)"/>
<path d="M0 0 C1.5 1.375 1.5 1.375 3 3 C3 3.66 3 4.32 3 5 C3.66 5 4.32 5 5 5 C4.67 5.99 4.34 6.98 4 8 C2.35 6.35 0.7 4.7 -1 3 C-0.67 2.01 -0.34 1.02 0 0 Z " fill="#97C27C" transform="translate(394,206)"/>
<path d="M0 0 C-1.0625 1.5 -1.0625 1.5 -3 3 C-6.6875 3.1875 -6.6875 3.1875 -10 3 C-10 2.34 -10 1.68 -10 1 C-6.59437148 0.22157062 -3.49234244 -0.09978121 0 0 Z " fill="#88B96A" transform="translate(768,93)"/>
<path d="M0 0 C2.97 0 5.94 0 9 0 C8.67 0.99 8.34 1.98 8 3 C5.36 2.34 2.72 1.68 0 1 C0 0.67 0 0.34 0 0 Z " fill="#7AB25C" transform="translate(768,268)"/>
<path d="M0 0 C0.8353125 0.37125 0.8353125 0.37125 1.6875 0.75 C-3.5859375 3.97265625 -3.5859375 3.97265625 -5.3125 4.75 C-5.9725 4.42 -6.6325 4.09 -7.3125 3.75 C-2.88173077 -0.31153846 -2.88173077 -0.31153846 0 0 Z " fill="#AFD297" transform="translate(707.3125,112.25)"/>
<path d="" fill="#A14A39" transform="translate(0,0)"/>
</svg>
